<svg width="30" height="30" viewBox="0 0 30 30" fill="none" xmlns="http://www.w3.org/2000/svg">
<g clip-path="url(#clip0)">
<path d="M7.91726 11.1946L1.00127 4.2786C0.772406 4.0499 0.401449 4.04985 0.172583 4.2786C-0.0562255 4.5074 -0.0562255 4.87842 0.172583 5.10729L6.91665 11.8512L6.91548 12.6587C6.91501 12.9823 7.17698 13.2451 7.50054 13.2455C7.50083 13.2455 7.50112 13.2455 7.50142 13.2455C7.82462 13.2455 8.08688 12.9837 8.08735 12.6605L8.08888 11.6098C8.08911 11.4541 8.02735 11.3047 7.91726 11.1946Z" fill="white"/>
<path d="M13.236 6.91376C13.2357 6.91376 13.2354 6.91376 13.2351 6.91376L11.8526 6.91569L5.10869 0.171684C4.87989 -0.0570653 4.50887 -0.0570653 4.28 0.171684C4.0512 0.400492 4.0512 0.771507 4.28 1.00037L11.196 7.9163C11.3059 8.02616 11.4549 8.08792 11.6103 8.08792C11.6105 8.08792 11.6109 8.08792 11.6111 8.08792L13.2368 8.08563C13.5604 8.08516 13.8224 7.82249 13.8219 7.49888C13.8215 7.1755 13.5592 6.91376 13.236 6.91376Z" fill="white"/>
<path d="M25.7226 0.171679C25.6136 0.0626952 25.4623 0 25.3081 0C25.1538 0 25.0026 0.0626366 24.8935 0.171679C24.7844 0.280722 24.7217 0.431835 24.7217 0.585936C24.7217 0.740038 24.7844 0.891209 24.8935 1.00013C25.0026 1.10918 25.1538 1.17187 25.3081 1.17187C25.4623 1.17187 25.6136 1.10918 25.7226 1.00013C25.8317 0.891209 25.8945 0.740038 25.8945 0.585936C25.8945 0.431835 25.8317 0.280664 25.7226 0.171679Z" fill="white"/>
<path d="M24.0066 1.88763C23.7778 1.65888 23.4068 1.65888 23.178 1.88763L18.15 6.91561L17.3425 6.91443C17.3396 6.91443 17.3369 6.91443 17.3341 6.91443C15.7839 6.91443 14.3268 7.51795 13.2304 8.61423L12.7038 9.14093C12.475 9.3698 12.475 9.74076 12.7038 9.96962C12.8183 10.084 12.9682 10.1412 13.1181 10.1412C13.2681 10.1412 13.4181 10.084 13.5325 9.96962L14.0591 9.44293C14.9341 8.56789 16.0969 8.08636 17.3341 8.08636C17.3364 8.08636 17.3386 8.08636 17.3408 8.08636L18.3915 8.08783C18.3918 8.08783 18.392 8.08783 18.3923 8.08783C18.5477 8.08783 18.6968 8.02607 18.8067 7.91621L24.0066 2.71632C24.2354 2.48751 24.2354 2.11649 24.0066 1.88763Z" fill="white"/>
<path d="M29.8293 4.2785C29.6006 4.04975 29.2295 4.04975 29.0007 4.2785L22.0847 11.1945C21.9747 11.3046 21.9129 11.454 21.9131 11.6097L21.9154 13.2354C21.9159 13.5587 22.1781 13.8205 22.5014 13.8205C22.5017 13.8205 22.502 13.8205 22.5022 13.8205C22.8259 13.82 23.0878 13.5573 23.0874 13.2337L23.0854 11.8511L29.8293 5.10719C30.0581 4.87838 30.0581 4.50736 29.8293 4.2785Z" fill="white"/>
<path d="M29.8296 24.8928L23.0856 18.1488L23.0868 17.3412C23.0879 16.5714 22.9389 15.8206 22.6439 15.1095C22.5199 14.8106 22.1771 14.6688 21.8782 14.7928C21.5793 14.9167 21.4375 15.2596 21.5615 15.5585C21.7968 16.1259 21.9157 16.7252 21.9148 17.3395L21.9133 18.3902C21.9131 18.5459 21.9748 18.6953 22.0849 18.8054L29.001 25.7215C29.1154 25.8358 29.2654 25.8931 29.4153 25.8931C29.5653 25.8931 29.7153 25.8358 29.8296 25.7215C30.0584 25.4926 30.0585 25.1216 29.8296 24.8928Z" fill="white"/>
<path d="M25.7226 28.9997L18.8066 22.0837C18.6967 21.9739 18.5477 21.9121 18.3923 21.9121C18.392 21.9121 18.3917 21.9121 18.3915 21.9121L16.7658 21.9144C16.4422 21.9149 16.1802 22.1775 16.1807 22.5012C16.1811 22.8245 16.4433 23.0863 16.7666 23.0863C16.7669 23.0863 16.7672 23.0863 16.7675 23.0863L18.15 23.0843L24.894 29.8283C25.0084 29.9427 25.1584 30 25.3083 30C25.4583 30 25.6083 29.9427 25.7226 29.8283C25.9514 29.5995 25.9514 29.2285 25.7226 28.9997Z" fill="white"/>
<path d="M5.10936 28.9998C5.00029 28.8908 4.849 28.8281 4.69478 28.8281C4.54056 28.8281 4.38928 28.8908 4.28021 28.9998C4.17114 29.1088 4.1084 29.26 4.1084 29.4141C4.1084 29.5682 4.17114 29.7193 4.28021 29.8283C4.38928 29.9372 4.54056 30 4.69478 30C4.849 30 5.00029 29.9373 5.10936 29.8283C5.21901 29.7193 5.28117 29.5682 5.28117 29.4141C5.28117 29.26 5.21901 29.1088 5.10936 28.9998Z" fill="white"/>
<path d="M20.9559 14.8669C20.823 14.734 20.6728 14.629 20.5127 14.5511C20.6497 14.3073 20.723 14.0315 20.723 13.7443C20.723 13.3034 20.5513 12.8888 20.2395 12.577C20.0985 12.436 19.9381 12.3259 19.7668 12.2467C20.0623 11.6323 19.9561 10.8714 19.4474 10.3627C18.9388 9.85413 18.1783 9.74779 17.5639 10.043C17.4834 9.8696 17.3723 9.70976 17.2331 9.57054C16.5894 8.92695 15.5422 8.92707 14.8986 9.57054L12.5592 11.91C12.5146 11.4358 12.2698 10.9845 11.8538 10.6932C11.4823 10.433 11.0321 10.3355 10.5862 10.4189C10.1403 10.5022 9.75569 10.7555 9.50303 11.1322L7.89798 13.5257C7.25304 14.4875 6.91296 15.6081 6.9146 16.7662L6.91659 18.1487L0.172583 24.8928C-0.0562255 25.1216 -0.0562255 25.4926 0.172583 25.7215C0.286957 25.8358 0.436957 25.8931 0.586898 25.8931C0.736839 25.8931 0.886839 25.8358 1.00121 25.7215L7.9172 18.8055C8.02724 18.6954 8.08905 18.546 8.08882 18.3903L8.08647 16.7647C8.08519 15.8404 8.35653 14.9461 8.87134 14.1785L10.4763 11.7849C10.5522 11.6719 10.6676 11.5959 10.8014 11.5709C10.9351 11.546 11.0702 11.5751 11.1817 11.6532C11.3977 11.8045 11.4598 12.0996 11.3231 12.3251L10.6959 13.3597C10.4981 13.6859 10.5725 14.0937 10.8727 14.3292C11.1728 14.5648 11.5866 14.5398 11.8564 14.27L15.7272 10.3992C15.9139 10.2124 16.2177 10.2125 16.4045 10.3992C16.4949 10.4897 16.5448 10.6099 16.5448 10.7378C16.5448 10.8464 16.5085 10.9492 16.4424 11.0332L14.1517 13.3292C13.9229 13.558 13.9229 13.929 14.1517 14.1579C14.3805 14.3866 14.7516 14.3866 14.9804 14.1579L17.9416 11.1914C18.1284 11.0046 18.4322 11.0046 18.6189 11.1913C18.8056 11.3781 18.8056 11.6818 18.6189 11.8686L15.655 14.8325C15.4262 15.0613 15.4262 15.4323 15.655 15.6612C15.7694 15.7755 15.9194 15.8328 16.0693 15.8328C16.2193 15.8328 16.3693 15.7755 16.4836 15.6612L18.777 13.3678C18.9648 13.2203 19.238 13.2327 19.4109 13.4057C19.5014 13.4961 19.5512 13.6164 19.5512 13.7443C19.5512 13.8722 19.5014 13.9924 19.4109 14.0828L17.1582 16.3356C16.9294 16.5644 16.9294 16.9354 17.1582 17.1643C17.2726 17.2787 17.4226 17.3359 17.5725 17.3359C17.7224 17.3359 17.8724 17.2787 17.9868 17.1643L19.4933 15.6578C19.681 15.5101 19.9544 15.5225 20.1274 15.6956C20.2179 15.786 20.2677 15.9063 20.2677 16.0342C20.2677 16.1621 20.2179 16.2824 20.1274 16.3728L15.9432 20.557C15.0682 21.4321 13.9054 21.9136 12.6682 21.9136C12.666 21.9136 12.6637 21.9136 12.6615 21.9136L11.6108 21.9121C11.6105 21.9121 11.6103 21.9121 11.61 21.9121C11.4546 21.9121 11.3056 21.9739 11.1957 22.0837L5.75164 27.5278C5.52283 27.7566 5.52283 28.1276 5.75164 28.3565C5.86607 28.4709 6.01601 28.5281 6.16595 28.5281C6.31589 28.5281 6.46589 28.4709 6.58027 28.3565L11.8523 23.0843L12.6599 23.0855C12.6628 23.0855 12.6655 23.0855 12.6683 23.0855C14.2184 23.0855 15.6756 22.482 16.7719 21.3857L20.9559 17.2015C21.5995 16.5579 21.5995 15.5106 20.9559 14.8669Z" fill="white"/>
</g>
<defs>
<clipPath id="clip0">
<rect width="30" height="30" fill="white" transform="translate(0.000976562)"/>
</clipPath>
</defs>
</svg>
