<svg width="65" height="65" viewBox="0 0 65 65" fill="none" xmlns="http://www.w3.org/2000/svg">
<path d="M13.0007 0C7.62426 0.00114254 3.25098 4.37442 3.25098 9.75086C3.25098 15.1273 7.62426 19.4996 13.0007 19.4996C18.3771 19.4996 22.7504 15.1263 22.7504 9.74984C22.7504 4.37328 18.3771 0 13.0007 0ZM13.0007 16.2507C9.41069 16.2507 6.50088 13.3409 6.50088 9.75086C6.50088 6.16085 9.41069 3.25105 13.0007 3.25105C16.5907 3.25105 19.5005 6.16085 19.5005 9.75086C19.5005 13.3409 16.5908 16.2507 13.0007 16.2507Z" fill="white"/>
<path d="M61.75 16.2495H29.2509C27.4558 16.2495 26.001 17.7044 26.001 19.4994V21.9813L29.2509 23.6062V19.4994H61.75V45.4975H29.2509V41.6345L26.001 40.8231V45.4975C26.001 47.2926 27.4558 48.7474 29.2509 48.7474H42.6319L34.3576 62.5368C33.8939 63.3049 34.1452 64.3047 34.9165 64.7652C35.6781 65.2321 36.6812 64.9807 37.1449 64.2062L43.8755 52.9875V63.371C43.8755 64.269 44.6024 64.9959 45.5004 64.9959C46.3985 64.9959 47.1254 64.269 47.1254 63.371V52.9875L53.857 64.2052C54.1614 64.7132 54.7008 64.9949 55.2501 64.9949C55.5362 64.9949 55.8243 64.9223 56.0853 64.7631C56.8567 64.3027 57.1069 63.3028 56.6443 62.5348L48.37 48.7454H61.7498C63.5449 48.7454 64.9997 47.2906 64.9997 45.4955V19.4994C64.9999 17.7044 63.545 16.2495 61.75 16.2495Z" fill="white"/>
<path d="M56.8109 25.5519C56.566 24.6885 55.6679 24.1805 54.8024 24.4383L34.7493 30.1679C34.5154 29.9416 34.2532 29.7433 33.9542 29.5927L20.9546 23.0929C20.5029 22.8676 20.0057 22.7495 19.5008 22.7495H6.50118C4.93043 22.7495 3.58489 23.8729 3.30332 25.4177L0.053416 43.2911C-0.118854 44.239 0.137964 45.215 0.755446 45.9548C1.37293 46.6947 2.28722 47.1227 3.2514 47.1227H5.32804L6.51209 62.0039C6.64641 63.6939 8.0558 64.996 9.75121 64.996H16.251C17.9073 64.996 19.2983 63.7513 19.4814 62.1057L22.3207 36.5539L31.7129 38.9014C31.9729 38.9664 32.2373 38.9978 32.5005 38.9978C33.2177 38.9978 33.9229 38.7605 34.5004 38.3098C35.289 37.6945 35.7504 36.7487 35.7504 35.7479V33.2595L55.6973 27.5603C56.5606 27.3155 57.0589 26.4142 56.8109 25.5519ZM32.5004 35.749L19.5008 32.4991L16.2509 61.7472H9.75108L8.32976 43.8727H3.25127L6.50118 25.9994H11.376V35.8856C11.376 36.7836 12.1029 37.5106 13.001 37.5106C13.899 37.5106 14.6259 36.7836 14.6259 35.8856V25.9993H19.5008L32.5004 32.4991V35.749Z" fill="white"/>
</svg>
