<svg width="65" height="65" viewBox="0 0 65 65" fill="none" xmlns="http://www.w3.org/2000/svg">
<g clip-path="url(#clip0)">
<path d="M38.7451 10.6756V20.3618L26.2549 15.8194V6.27219L0 15.8194V64.9527H65V0.0476074L38.7451 10.6756ZM22.4314 61.129H3.82353V50.678H13.1275V46.8545H3.82353V42.5212H13.1275V38.6976H3.82353V34.3643H13.1275V30.5408H3.82353V26.2074H13.1275V22.3839H3.82353V18.4975L22.4314 11.7309V61.129ZM38.7451 61.129H26.2549V19.8879L38.7451 24.4303V61.129ZM61.1765 14.227H50.8529V18.0506H61.1765V22.3839H50.8529V26.2074H61.1765V30.5408H50.8529V34.3643H61.1765V38.6976H50.8529V42.5212H61.1765V46.8545H50.8529V50.678H61.1765V61.129C59.1952 61.129 45.0663 61.129 42.5686 61.129V13.2528L61.1765 5.72032V14.227Z" fill="white"/>
<path d="M30.4609 46.8545H34.5394V50.678H30.4609V46.8545Z" fill="white"/>
<path d="M30.4609 38.6976H34.5394V42.5212H30.4609V38.6976Z" fill="white"/>
<path d="M30.4609 30.5408H34.5394V34.3643H30.4609V30.5408Z" fill="white"/>
</g>
<defs>
<clipPath id="clip0">
<rect width="65" height="65" fill="white"/>
</clipPath>
</defs>
</svg>
