<svg width="102" height="78" viewBox="0 0 102 78" fill="none" xmlns="http://www.w3.org/2000/svg">
<path d="M23.4243 33H1.49561V28.6494L11.8447 17.6191C13.2656 16.0664 14.313 14.7114 14.9868 13.5542C15.6753 12.397 16.0195 11.2983 16.0195 10.2583C16.0195 8.8374 15.6606 7.72412 14.9429 6.91846C14.2251 6.09814 13.1997 5.68799 11.8667 5.68799C10.4312 5.68799 9.2959 6.18604 8.46094 7.18213C7.64062 8.16357 7.23047 9.45996 7.23047 11.0713H0.858398C0.858398 9.12305 1.31982 7.34326 2.24268 5.73193C3.18018 4.12061 4.49854 2.86084 6.19775 1.95264C7.89697 1.02979 9.82324 0.568359 11.9766 0.568359C15.2725 0.568359 17.8286 1.35938 19.645 2.94141C21.4761 4.52344 22.3916 6.75732 22.3916 9.64307C22.3916 11.2251 21.9814 12.8364 21.1611 14.4771C20.3408 16.1177 18.9346 18.0293 16.9424 20.2119L9.66943 27.8804H23.4243V33ZM48.8687 19.7725C48.8687 24.1963 47.9531 27.5801 46.1221 29.9238C44.291 32.2676 41.6104 33.4395 38.0801 33.4395C34.5938 33.4395 31.9277 32.2896 30.082 29.9897C28.2363 27.6899 27.2915 24.394 27.2476 20.1021V14.2134C27.2476 9.74561 28.1704 6.35449 30.0161 4.04004C31.8765 1.72559 34.5498 0.568359 38.0361 0.568359C41.5225 0.568359 44.1885 1.71826 46.0342 4.01807C47.8799 6.30322 48.8247 9.5918 48.8687 13.8838V19.7725ZM42.5186 13.3125C42.5186 10.6611 42.1523 8.73486 41.4199 7.53369C40.7021 6.31787 39.5742 5.70996 38.0361 5.70996C36.542 5.70996 35.436 6.28857 34.7183 7.4458C34.0151 8.58838 33.6416 10.3828 33.5977 12.8291V20.6074C33.5977 23.2148 33.9492 25.1558 34.6523 26.4302C35.3701 27.6899 36.5127 28.3198 38.0801 28.3198C39.6328 28.3198 40.7534 27.7119 41.4419 26.4961C42.1304 25.2803 42.4893 23.4199 42.5186 20.915V13.3125ZM68.6001 33H62.25V8.52246L54.6694 10.8735V5.70996L67.9189 0.963867H68.6001V33ZM96.2417 0.678223V5.90771H95.6265C92.7554 5.95166 90.4409 6.69873 88.6831 8.14893C86.9399 9.59912 85.8926 11.6133 85.541 14.1914C87.2402 12.4629 89.3862 11.5986 91.979 11.5986C94.7622 11.5986 96.9741 12.5947 98.6147 14.5869C100.255 16.5791 101.076 19.2012 101.076 22.4531C101.076 24.5332 100.622 26.4155 99.7134 28.1001C98.8198 29.7847 97.5454 31.0957 95.8901 32.0332C94.2495 32.9707 92.3892 33.4395 90.3091 33.4395C86.9399 33.4395 84.2153 32.2676 82.1353 29.9238C80.0698 27.5801 79.0371 24.4526 79.0371 20.5415V18.2563C79.0371 14.7847 79.689 11.7231 80.9927 9.07178C82.311 6.40576 84.1934 4.34766 86.6396 2.89746C89.1006 1.43262 91.9497 0.692871 95.187 0.678223H96.2417ZM90.0454 16.6963C89.02 16.6963 88.0898 16.9673 87.2549 17.5093C86.4199 18.0366 85.8047 18.7397 85.4092 19.6187V21.5522C85.4092 23.6763 85.8267 25.3389 86.6616 26.54C87.4966 27.7266 88.6685 28.3198 90.1772 28.3198C91.5396 28.3198 92.6382 27.7852 93.4731 26.7158C94.3228 25.6318 94.7476 24.2329 94.7476 22.519C94.7476 20.7759 94.3228 19.3696 93.4731 18.3003C92.6235 17.231 91.481 16.6963 90.0454 16.6963ZM39.8525 60.5781H33.29V73H29.0566V57.1504H39.8525V60.5781ZM40.6729 64.9287C40.6729 63.3564 40.9756 61.9551 41.5811 60.7246C42.1865 59.4941 43.0557 58.542 44.1885 57.8682C45.3311 57.1943 46.6543 56.8574 48.1582 56.8574C50.2969 56.8574 52.04 57.5117 53.3877 58.8203C54.7451 60.1289 55.502 61.9062 55.6582 64.1523L55.6875 65.2363C55.6875 67.668 55.0088 69.6211 53.6514 71.0957C52.2939 72.5605 50.4727 73.293 48.1875 73.293C45.9023 73.293 44.0762 72.5605 42.709 71.0957C41.3516 69.6309 40.6729 67.6387 40.6729 65.1191V64.9287ZM44.9062 65.2363C44.9062 66.7402 45.1895 67.8926 45.7559 68.6934C46.3223 69.4844 47.1328 69.8799 48.1875 69.8799C49.2129 69.8799 50.0137 69.4893 50.5898 68.708C51.166 67.917 51.4541 66.6572 51.4541 64.9287C51.4541 63.4541 51.166 62.3115 50.5898 61.501C50.0137 60.6904 49.2031 60.2852 48.1582 60.2852C47.123 60.2852 46.3223 60.6904 45.7559 61.501C45.1895 62.3018 44.9062 63.5469 44.9062 65.2363ZM57.46 69.5869C58.417 68.5713 59.0664 67.5654 59.4082 66.5693C59.75 65.5732 59.9404 64.1621 59.9795 62.3359L60.0967 57.1504H71.7568V69.5869H74.042V77.7607H69.8086V73H60.4189V77.7607H56.0977V69.5869H57.46ZM62.4551 69.5869H67.5381V60.6514H64.2422L64.2129 62.5557C64.125 65.4658 63.5391 67.8096 62.4551 69.5869Z" fill="white"/>
</svg>
