<svg width="65" height="65" viewBox="0 0 65 65" fill="none" xmlns="http://www.w3.org/2000/svg">
<path d="M57.3828 5.07812H54.3359V0H49.2578V5.07812H15.7422V0H10.6641V5.07812H7.61719C3.41707 5.07812 0 8.4952 0 12.6953V57.3828C0 61.5829 3.41707 65 7.61719 65H57.3828C61.5829 65 65 61.5829 65 57.3828V12.6953C65 8.4952 61.5829 5.07812 57.3828 5.07812ZM59.9219 57.3828C59.9219 58.7829 58.7829 59.9219 57.3828 59.9219H7.61719C6.21715 59.9219 5.07812 58.7829 5.07812 57.3828V23.8672H59.9219V57.3828ZM59.9219 18.7891H5.07812V12.6953C5.07812 11.2953 6.21715 10.1562 7.61719 10.1562H10.6641V15.2344H15.7422V10.1562H49.2578V15.2344H54.3359V10.1562H57.3828C58.7829 10.1562 59.9219 11.2953 59.9219 12.6953V18.7891Z" fill="white"/>
<path d="M14.7266 29.1992H9.64844V34.2773H14.7266V29.1992Z" fill="white"/>
<path d="M24.8828 29.1992H19.8047V34.2773H24.8828V29.1992Z" fill="white"/>
<path d="M35.0391 29.1992H29.9609V34.2773H35.0391V29.1992Z" fill="white"/>
<path d="M45.1953 29.1992H40.1172V34.2773H45.1953V29.1992Z" fill="white"/>
<path d="M55.3516 29.1992H50.2734V34.2773H55.3516V29.1992Z" fill="white"/>
<path d="M14.7266 39.3555H9.64844V44.4336H14.7266V39.3555Z" fill="white"/>
<path d="M24.8828 39.3555H19.8047V44.4336H24.8828V39.3555Z" fill="white"/>
<path d="M35.0391 39.3555H29.9609V44.4336H35.0391V39.3555Z" fill="white"/>
<path d="M45.1953 39.3555H40.1172V44.4336H45.1953V39.3555Z" fill="white"/>
<path d="M14.7266 49.5117H9.64844V54.5898H14.7266V49.5117Z" fill="white"/>
<path d="M24.8828 49.5117H19.8047V54.5898H24.8828V49.5117Z" fill="white"/>
<path d="M35.0391 49.5117H29.9609V54.5898H35.0391V49.5117Z" fill="white"/>
<path d="M45.1953 49.5117H40.1172V54.5898H45.1953V49.5117Z" fill="white"/>
<path d="M55.3516 39.3555H50.2734V44.4336H55.3516V39.3555Z" fill="white"/>
</svg>
