<svg width="65" height="65" viewBox="0 0 65 65" fill="none" xmlns="http://www.w3.org/2000/svg">
<path d="M62.0451 32.7726V23.637C62.0451 20.5392 59.6422 18.0199 56.6063 17.7756L48.1223 2.95693C47.3361 1.58642 46.0666 0.606863 44.5474 0.200112C43.0355 -0.203869 41.4545 0.00830054 40.1013 0.795905L11.0175 17.7279H5.90953C2.65067 17.7279 0.000488281 20.378 0.000488281 23.637V59.091C0.000488281 62.3498 2.65053 65 5.90953 65H56.136C59.3949 65 62.0451 62.3499 62.0451 59.091V49.9553C63.7608 49.3435 64.9995 47.7191 64.9995 45.7957V36.9322C64.9995 35.0088 63.7608 33.3845 62.0451 32.7726ZM53.1733 17.7279H40.2975L49.9544 12.1057L53.1733 17.7279ZM48.4866 9.54182L34.4256 17.7279H28.5933L47.0282 6.99481L48.4866 9.54182ZM41.5886 3.34928C42.2565 2.95832 43.0369 2.85445 43.7828 3.0536C44.5373 3.25552 45.1664 3.74315 45.5573 4.4255L45.5604 4.43091L22.7216 17.7279H16.8896L41.5886 3.34928ZM57 57C57 58.6287 57.1287 60 55.5 60H8C6.37133 60 5 58.6287 5 57V25.5C5 23.8713 5.87133 22.5 7.5 22.5H54.1875C55.8162 22.5 57 23.8713 57 25.5V30.5H50C46 30.5 39 34.5 39 41.364C39 49 46 52.375 50 52.375H57V57ZM62.0451 45.7957C62.0451 46.6107 61.3829 47.273 60.5678 47.273H50.227C46.9681 47.273 44.3179 44.623 44.3179 41.364C44.3179 38.1051 46.968 35.4549 50.227 35.4549H60.5678C61.3828 35.4549 62.0451 36.1171 62.0451 36.9322V45.7957Z" fill="white"/>
<path d="M50.2269 38.4095C48.5982 38.4095 47.2725 39.7353 47.2725 41.364C47.2725 42.9927 48.5982 44.3184 50.2269 44.3184C51.8556 44.3184 53.1814 42.9927 53.1814 41.364C53.1815 39.7353 51.8557 38.4095 50.2269 38.4095Z" fill="white"/>
</svg>
