<svg width="31" height="30" viewBox="0 0 31 30" fill="none" xmlns="http://www.w3.org/2000/svg">
<g clip-path="url(#clip0)">
<path d="M27.5452 5.16209C27.4357 5.05252 27.2851 4.99036 27.1309 4.99036C26.9762 4.99036 26.8256 5.05252 26.716 5.16209C26.6071 5.27102 26.5449 5.42166 26.5449 5.57635C26.5449 5.73045 26.6071 5.88168 26.716 5.99067C26.8256 6.09965 26.9762 6.16235 27.1309 6.16235C27.285 6.16235 27.4357 6.09971 27.5452 5.99067C27.6542 5.88168 27.7163 5.73051 27.7163 5.57635C27.7163 5.42166 27.6542 5.27102 27.5452 5.16209Z" fill="white"/>
<path d="M14.0863 18.9625C13.9767 18.8529 13.8261 18.7908 13.6719 18.7908C13.5172 18.7908 13.3666 18.8529 13.257 18.9625C13.1481 19.0714 13.0859 19.2221 13.0859 19.3768C13.0859 19.5309 13.1481 19.682 13.257 19.7911C13.3666 19.9001 13.5172 19.9628 13.6719 19.9628C13.826 19.9628 13.9767 19.9001 14.0863 19.7911C14.1952 19.6821 14.2573 19.5309 14.2573 19.3768C14.2574 19.2221 14.1953 19.0714 14.0863 18.9625Z" fill="white"/>
<path d="M28.9638 7.10815C28.8039 6.82678 28.446 6.72846 28.1648 6.88842C27.8835 7.04838 27.7851 7.40616 27.9451 7.68747C29.6857 10.7483 29.1603 14.6272 26.6672 17.1202L26.2229 17.5645C26.1155 17.2828 25.9493 17.0186 25.7227 16.7921L19.7018 10.7713C20.0956 10.5776 20.4594 10.3191 20.7788 9.99975L21.9335 8.84493C22.1623 8.61612 22.1623 8.24504 21.9335 8.01624C21.7047 7.78743 21.3337 7.78743 21.1048 8.01624L19.95 9.17106C19.4075 9.71352 18.6863 10.0123 17.9191 10.0123H15.6107C15.4553 10.0123 15.3063 10.074 15.1963 10.1839L13.4291 11.9511C12.9044 12.4759 12.0505 12.4759 11.5257 11.9511C11.0009 11.4263 11.0009 10.5724 11.5257 10.0477L15.5602 6.01321C18.0258 3.54758 21.875 3.00536 24.9204 4.69461C25.2034 4.85147 25.5601 4.74946 25.7171 4.46639C25.8741 4.18338 25.7719 3.82667 25.4889 3.66969C23.8091 2.73811 21.8301 2.36528 19.9159 2.62022C18.1246 2.85875 16.485 3.60881 15.1409 4.79897C13.4898 3.33524 11.3879 2.53479 9.1625 2.53479C6.7516 2.53479 4.48508 3.47364 2.78029 5.17836C1.07551 6.88309 0.136719 9.14979 0.136719 11.5606C0.136719 13.9715 1.07557 16.2381 2.78029 17.9428L3.00113 18.1637C3.03957 18.2021 3.08223 18.2335 3.12729 18.259C3.16648 18.7659 3.37889 19.2618 3.76578 19.6487C4.19639 20.0792 4.7617 20.2944 5.32719 20.2944C5.35654 20.2944 5.38596 20.2934 5.41531 20.2923C5.41414 20.3219 5.41314 20.3516 5.41314 20.3814C5.41314 20.9712 5.64283 21.5257 6.0599 21.9428C6.49051 22.3733 7.05582 22.5886 7.62131 22.5885C7.65066 22.5885 7.68008 22.5876 7.70943 22.5864C7.70826 22.616 7.70727 22.6457 7.70727 22.6755C7.70727 23.2653 7.93695 23.8198 8.35408 24.2369C8.78463 24.6674 9.35006 24.8826 9.91549 24.8826C9.9452 24.8826 9.9749 24.8817 10.0046 24.8805C9.98082 25.4753 10.1951 26.078 10.6482 26.5312C11.0653 26.9482 11.6199 27.1779 12.2096 27.1779C12.7995 27.1779 13.354 26.9482 13.771 26.5312L14.59 25.7121L15.6962 26.8182C16.1132 27.2353 16.6678 27.465 17.2576 27.465C17.8474 27.465 18.4019 27.2353 18.819 26.8183C19.2775 26.3597 19.4918 25.7479 19.4619 25.1462C19.4987 25.148 19.5356 25.149 19.5724 25.149C20.1379 25.149 20.7035 24.9338 21.134 24.5033C21.5868 24.0504 21.8011 23.4482 21.7776 22.8537C21.8072 22.8549 21.8369 22.8559 21.8667 22.8559C22.4565 22.8559 23.011 22.6262 23.4281 22.2091C23.881 21.7562 24.0952 21.154 24.0717 20.5595C24.1013 20.5607 24.131 20.5617 24.1608 20.5617C24.7506 20.5617 25.3051 20.332 25.7222 19.9149C25.934 19.7031 26.0935 19.4584 26.2011 19.1973C26.2581 19.1695 26.3117 19.1325 26.3591 19.0852L27.4955 17.9488C30.3608 15.0841 30.9644 10.6262 28.9638 7.10815ZM5.32725 19.1234C5.05045 19.1234 4.79023 19.0157 4.59447 18.8199C4.39877 18.6242 4.29096 18.364 4.29096 18.0872C4.29096 17.8105 4.39871 17.5502 4.59447 17.3545L5.60428 16.3447C5.79998 16.1489 6.06025 16.0412 6.33705 16.0412C6.61379 16.0412 6.87406 16.1489 7.06977 16.3447C7.47383 16.7488 7.47383 17.4061 7.06977 17.8101L6.05996 18.82C5.86426 19.0156 5.6041 19.1234 5.32725 19.1234ZM6.88877 21.1142C6.69301 20.9185 6.58525 20.6582 6.58525 20.3815C6.58525 20.1047 6.69301 19.8444 6.88877 19.6487L7.89863 18.6389C7.89863 18.6389 7.89863 18.6389 7.89863 18.6388C8.09434 18.4431 8.35455 18.3353 8.63135 18.3353C8.90809 18.3353 9.16836 18.4431 9.36406 18.6388C9.76812 19.0429 9.76812 19.7002 9.36406 20.1042L8.35426 21.1141C7.95014 21.5181 7.2926 21.5181 6.88877 21.1142ZM9.18289 23.4083C8.98713 23.2126 8.87937 22.9523 8.87937 22.6756C8.87937 22.3988 8.98713 22.1386 9.18289 21.9429L10.1928 20.933C10.1928 20.933 10.1928 20.933 10.1928 20.9329C10.3885 20.7372 10.6487 20.6294 10.9255 20.6294C11.2023 20.6294 11.4625 20.7372 11.6582 20.9329C12.0622 21.3371 12.0622 21.9944 11.6582 22.3984L10.6483 23.4083C10.2443 23.8124 9.58695 23.8124 9.18289 23.4083ZM13.9524 24.6927L12.9425 25.7026C12.7468 25.8983 12.4866 26.0061 12.2098 26.0061C11.933 26.0061 11.6728 25.8983 11.4771 25.7026C11.073 25.2985 11.073 24.6411 11.4771 24.2371L12.4869 23.2272C12.4869 23.2272 12.4869 23.2272 12.4869 23.2272C12.6826 23.0315 12.9429 22.9237 13.2196 22.9237C13.4964 22.9237 13.7567 23.0314 13.9524 23.2272C14.1481 23.4229 14.2559 23.6831 14.2559 23.9599C14.2559 24.2368 14.1481 24.497 13.9524 24.6927ZM24.8939 19.0862C24.6982 19.282 24.438 19.3898 24.1612 19.3898C23.8844 19.3898 23.6242 19.282 23.4285 19.0862L20.9894 16.6472C20.9893 16.647 20.9892 16.647 20.9891 16.6469L18.6952 14.3529C18.4663 14.1241 18.0954 14.1241 17.8664 14.3529C17.6376 14.5817 17.6376 14.9528 17.8664 15.1816L22.5997 19.9148C23.0038 20.3189 23.0038 20.9763 22.5997 21.3803C22.404 21.5761 22.1438 21.6838 21.867 21.6838C21.5902 21.6838 21.33 21.5761 21.1343 21.3803L16.401 16.647C16.1721 16.4183 15.8012 16.4183 15.5722 16.647C15.3434 16.8758 15.3434 17.2469 15.5722 17.4758L17.866 19.7694C17.8661 19.7696 17.8663 19.7698 17.8665 19.77L20.3056 22.209C20.7097 22.6132 20.7097 23.2706 20.3057 23.6746C19.9016 24.0787 19.2441 24.0787 18.8402 23.6746L16.4011 21.2355C16.3559 21.1904 16.3053 21.1545 16.2513 21.1272L15.5556 20.4315C15.3267 20.2028 14.9558 20.2028 14.7269 20.4315C14.498 20.6604 14.498 21.0314 14.7269 21.2603L17.9906 24.524C18.3947 24.9281 18.3947 25.5855 17.9906 25.9895C17.7949 26.1852 17.5347 26.293 17.2579 26.293C16.9811 26.293 16.7209 26.1852 16.5252 25.9895L15.2833 24.7476C15.3779 24.4993 15.4279 24.2335 15.4279 23.9598C15.4279 23.37 15.1982 22.8155 14.7812 22.3984C14.364 21.9814 13.8095 21.7517 13.2198 21.7517C13.1899 21.7517 13.1603 21.7527 13.1306 21.7538C13.1541 21.1593 12.9399 20.5571 12.4871 20.1042C12.0699 19.6872 11.5154 19.4575 10.9256 19.4575C10.8958 19.4575 10.8662 19.4585 10.8365 19.4597C10.8601 18.8652 10.6458 18.2629 10.1929 17.8101C9.7758 17.393 9.22127 17.1633 8.63152 17.1633C8.6017 17.1633 8.57205 17.1643 8.5424 17.1655C8.56596 16.571 8.35168 15.9688 7.89881 15.5159C7.03783 14.6549 5.6368 14.655 4.77582 15.5159L3.76602 16.5257C3.63863 16.6531 3.53064 16.7925 3.44088 16.94C2.06445 15.478 1.30895 13.5774 1.30895 11.5605C1.30895 9.46268 2.12586 7.49036 3.60934 6.007C5.0927 4.52364 7.06508 3.70667 9.16285 3.70667C11.0693 3.70667 12.872 4.38143 14.2982 5.61788L10.6972 9.21887C10.2217 9.69448 9.95979 10.3268 9.95979 10.9993C9.95979 11.6719 10.2217 12.3042 10.6972 12.7798C11.1881 13.2706 11.833 13.5161 12.4777 13.5161C13.1225 13.5161 13.7673 13.2707 14.2582 12.7798L15.8538 11.1842H17.9195C18.09 11.1842 18.2587 11.1725 18.4254 11.1518L24.8943 17.6206C25.2979 18.0249 25.2979 18.6823 24.8939 19.0862Z" fill="white"/>
</g>
<defs>
<clipPath id="clip0">
<rect width="30" height="30" fill="white" transform="translate(0.136719)"/>
</clipPath>
</defs>
</svg>
