<svg width="31" height="30" viewBox="0 0 31 30" fill="none" xmlns="http://www.w3.org/2000/svg">
<g clip-path="url(#clip0)">
<path d="M15.2734 1.17188C14.9499 1.17188 14.6875 1.4342 14.6875 1.75781V5.24373C14.6875 5.56734 14.9499 5.82967 15.2734 5.82967C15.597 5.82967 15.8594 5.56734 15.8594 5.24373V1.75781C15.8594 1.4342 15.597 1.17188 15.2734 1.17188Z" fill="white"/>
<path d="M11.9538 6.17468L10.5519 4.77399C10.3228 4.54524 9.95192 4.54542 9.72317 4.77434C9.49448 5.00327 9.49465 5.37423 9.72352 5.60298L11.1255 7.00366C11.2399 7.11798 11.3898 7.17511 11.5396 7.17511C11.6897 7.17511 11.8397 7.1178 11.9541 7.00331C12.1828 6.77438 12.1826 6.40343 11.9538 6.17468Z" fill="white"/>
<path d="M20.8255 4.77536C20.5966 4.54656 20.2256 4.54679 19.9968 4.77566L18.5064 6.26728C18.2777 6.4962 18.2779 6.86716 18.5067 7.09591C18.6212 7.21029 18.7711 7.26741 18.9209 7.26741C19.071 7.26741 19.221 7.21011 19.3354 7.09562L20.8259 5.604C21.0545 5.37507 21.0544 5.00411 20.8255 4.77536Z" fill="white"/>
<path d="M26.4365 16.6406H25.9637C26.3496 16.1376 26.5797 15.509 26.5797 14.8275V14.0006C26.5797 12.3546 25.2406 11.0156 23.5947 11.0156C21.9488 11.0156 20.6098 12.3546 20.6098 14.0005V14.6434L16.2017 10.2353C15.9571 9.99069 15.5973 9.91217 15.2745 10.0288C14.9517 9.91217 14.5919 9.99068 14.3472 10.2353L9.93916 14.6434V14.0005C9.93904 12.3546 8.6 11.0156 6.9541 11.0156C5.3082 11.0156 3.96916 12.3546 3.96916 14.0005V14.8275C3.96916 15.509 4.19926 16.1375 4.58516 16.6405H4.1123C1.99607 16.6406 0.274414 18.3623 0.274414 20.4785V28.2422C0.274414 28.5658 0.536797 28.8281 0.860352 28.8281H3.33594C3.39453 28.8281 3.45102 28.8193 3.50439 28.8033C3.55777 28.8193 3.61426 28.8281 3.67285 28.8281H10.2354C10.5589 28.8281 10.8213 28.5658 10.8213 28.2422V26.25C10.8213 25.9264 10.5589 25.664 10.2354 25.664C9.9118 25.664 9.64941 25.9264 9.64941 26.25V27.6562H4.25879V20.9796C4.25879 20.656 3.99641 20.3937 3.67285 20.3937C3.3493 20.3937 3.08691 20.656 3.08691 20.9796V27.6562H1.44629V20.4785C1.44629 19.0084 2.64225 17.8125 4.1123 17.8125H8.18457C8.34582 17.8125 8.49184 17.7473 8.59777 17.6419C8.59818 17.6415 8.59854 17.6413 8.59895 17.6409L14.685 11.5548C14.6451 12.7717 14.2666 13.9437 13.5842 14.9572L9.74937 20.6524C9.68428 20.7491 9.64947 20.8631 9.64947 20.9796V21.6211C9.64947 21.9447 9.91186 22.207 10.2354 22.207C10.559 22.207 10.8213 21.9447 10.8213 21.6211V21.1585L14.5563 15.6116C14.8416 15.1878 15.0809 14.7401 15.2745 14.2752C15.468 14.7401 15.7072 15.1878 15.9927 15.6116L19.7275 21.1585V28.2422C19.7275 28.5658 19.9899 28.8281 20.3135 28.8281H26.876C26.9346 28.8281 26.9911 28.8193 27.0444 28.8033C27.0978 28.8193 27.1543 28.8281 27.2129 28.8281H29.6885C30.012 28.8281 30.2744 28.5658 30.2744 28.2422V20.4785C30.2744 18.3623 28.5528 16.6406 26.4365 16.6406ZM8.76717 14.8275C8.76717 15.8273 7.95389 16.6406 6.9541 16.6406C5.95432 16.6406 5.14104 15.8273 5.14104 14.8275V14.0006C5.14104 13.0008 5.95437 12.1875 6.9541 12.1875C7.95383 12.1875 8.76717 13.0008 8.76717 14.0005V14.8275ZM21.7817 14.0005C21.7817 13.0008 22.595 12.1875 23.5947 12.1875C24.5945 12.1875 25.4078 13.0008 25.4078 14.0005V14.8275C25.4078 15.8273 24.5945 16.6406 23.5947 16.6406C22.5949 16.6406 21.7817 15.8273 21.7817 14.8275V14.0005ZM29.1025 27.6562H27.4619V23.3203C27.4619 22.9967 27.1995 22.7344 26.876 22.7344C26.5524 22.7344 26.29 22.9967 26.29 23.3203V27.6562H20.8994V20.9796C20.8994 20.863 20.8646 20.7491 20.7995 20.6524L16.9647 14.9573C16.2823 13.9438 15.9038 12.7717 15.8639 11.5548L21.9499 17.6409C21.9577 17.6487 21.9649 17.6552 21.972 17.661C22.0759 17.7549 22.2132 17.8126 22.3643 17.8126H26.4365C27.9066 17.8126 29.1025 19.0086 29.1025 20.4786V27.6562Z" fill="white"/>
<path d="M27.2902 20.5652C27.1813 20.4563 27.0301 20.3936 26.876 20.3936C26.7219 20.3936 26.5707 20.4563 26.4617 20.5652C26.3527 20.6742 26.29 20.8254 26.29 20.9795C26.29 21.1336 26.3527 21.2848 26.4617 21.3938C26.5707 21.5027 26.7219 21.5654 26.876 21.5654C27.0301 21.5654 27.1813 21.5027 27.2902 21.3938C27.3992 21.2848 27.4619 21.1336 27.4619 20.9795C27.4619 20.8254 27.3992 20.6748 27.2902 20.5652Z" fill="white"/>
<path d="M10.6496 23.6678C10.5406 23.5588 10.3895 23.4961 10.2354 23.4961C10.0812 23.4961 9.93008 23.5588 9.82109 23.6678C9.71211 23.7768 9.64941 23.9279 9.64941 24.082C9.64941 24.2361 9.71205 24.3873 9.82109 24.4963C9.93014 24.6053 10.0812 24.668 10.2354 24.668C10.3895 24.668 10.5406 24.6053 10.6496 24.4963C10.7585 24.3873 10.8213 24.2361 10.8213 24.082C10.8213 23.9279 10.7586 23.7768 10.6496 23.6678Z" fill="white"/>
</g>
<defs>
<clipPath id="clip0">
<rect width="30" height="30" fill="white" transform="translate(0.274414)"/>
</clipPath>
</defs>
</svg>
