<svg width="30" height="30" viewBox="0 0 30 30" fill="none" xmlns="http://www.w3.org/2000/svg">
<path d="M26.1621 20.0667H25.6893C26.0752 19.5636 26.3053 18.9351 26.3053 18.2536V17.4267C26.3053 15.7808 24.9662 14.4417 23.3204 14.4417C21.6745 14.4417 20.3354 15.7808 20.3354 17.4267V18.2536C20.3354 18.9352 20.5655 19.5636 20.9515 20.0667H20.4786C20.3114 20.0667 20.1469 20.0786 19.9853 20.0995L17.3464 17.4605C16.8505 16.9647 16.2353 16.6596 15.5924 16.5439C15.5927 16.537 15.5935 16.5302 15.5935 16.5232V15.4538L16.9907 14.0565C17.1242 14.0646 17.2978 14.0716 17.5018 14.0716C18.5903 14.0716 20.5399 13.8745 21.8297 12.6084C23.5628 10.9076 23.3317 7.94415 23.2842 7.48583C23.2761 7.34743 23.2192 7.21131 23.1135 7.10561C23.0093 7.00137 22.8755 6.94465 22.7391 6.93545C22.4756 6.91249 19.4788 6.6961 17.7089 8.43217C16.1921 9.92075 16.135 12.3434 16.1701 13.2198L15.5934 13.7964V9.61881C16.2544 9.03352 18.0699 7.22397 18.0908 4.99085C18.1145 2.46329 15.758 0.449126 15.3879 0.148481C15.2843 0.0561963 15.1477 0.00012207 14.998 0.00012207C14.8504 0.00012207 14.7156 0.0547314 14.6126 0.14479C14.4009 0.322739 12.0345 2.36901 12.0096 4.95042C11.9886 7.19643 13.7638 9.02708 14.4216 9.62626V13.8113L13.7062 13.0959C13.7402 12.2307 13.6809 9.8621 12.1955 8.40417C10.4722 6.71379 7.56973 6.90903 7.26885 6.9344C7.13578 6.94155 7.00459 6.99387 6.9 7.09172C6.78715 7.19731 6.72527 7.33729 6.71572 7.48067C6.67061 7.91034 6.43506 10.835 8.14307 12.5113C9.40945 13.7542 11.3227 13.9476 12.3903 13.9476C12.5875 13.9476 12.7558 13.941 12.8859 13.9332L14.4215 15.4688V16.5234C14.4215 16.5295 14.4223 16.5355 14.4224 16.5415C13.7742 16.6552 13.1534 16.961 12.6537 17.4607L10.0148 20.0997C9.85318 20.0788 9.68877 20.0668 9.52148 20.0668H9.04863C9.43453 19.5638 9.66469 18.9353 9.66469 18.2538V17.4269C9.66469 15.7809 8.32559 14.4419 6.67975 14.4419C5.03391 14.4419 3.6948 15.781 3.6948 17.4269V18.2538C3.6948 18.9353 3.9249 19.5638 4.31086 20.0668H3.83789C1.72166 20.0668 0 21.7885 0 23.9047V29.4139C0 29.7375 0.262383 29.9999 0.585938 29.9999H12.7734C13.097 29.9999 13.3594 29.7375 13.3594 29.4139V23.9047C13.3594 22.4212 12.5128 21.1325 11.2778 20.494L13.4824 18.2894C14.3192 17.4526 15.6809 17.4527 16.5176 18.2894L18.7222 20.494C17.4872 21.1324 16.6406 22.421 16.6406 23.9046V29.4138C16.6406 29.7373 16.903 29.9997 17.2266 29.9997H29.4141C29.7376 29.9997 30 29.7373 30 29.4138V23.9046C30 21.7883 28.2783 20.0667 26.1621 20.0667ZM18.5296 9.2686C19.5816 8.2367 21.3005 8.09133 22.1458 8.08758C22.1657 8.95448 22.0642 10.7363 21.0088 11.7721C20.2329 12.5335 19.0767 12.7918 18.1785 12.8687L19.1858 11.8613C19.4146 11.6325 19.4146 11.2615 19.1858 11.0326C18.957 10.8039 18.5861 10.8039 18.3571 11.0326L17.3814 12.0084C17.4804 11.1294 17.7654 10.0185 18.5296 9.2686ZM11.7698 11.1595C11.541 10.9308 11.1701 10.9308 10.9412 11.1595C10.7123 11.3883 10.7123 11.7594 10.9412 11.9882L11.6984 12.7455C10.8266 12.6683 9.71625 12.4131 8.96391 11.6748C7.93816 10.6682 7.83557 8.93836 7.85391 8.08717C8.6816 8.0918 10.3508 8.23624 11.3746 9.24047C12.1104 9.96252 12.391 11.028 12.4914 11.8811L11.7698 11.1595ZM4.86662 17.4267C4.86662 16.4269 5.67996 15.6135 6.67969 15.6135C7.67941 15.6135 8.49275 16.4269 8.49275 17.4267V18.2535C8.49275 19.2533 7.67941 20.0666 6.67969 20.0666C5.67996 20.0666 4.86662 19.2533 4.86662 18.2535V17.4267ZM12.1875 23.9046V28.8278H10.5469V24.4057C10.5469 24.0821 10.2845 23.8197 9.96094 23.8197C9.63738 23.8197 9.375 24.0821 9.375 24.4057V28.8278H3.98438V24.4057C3.98438 24.0821 3.72199 23.8197 3.39844 23.8197C3.07488 23.8197 2.8125 24.0821 2.8125 24.4057V28.8278H1.17188V23.9046C1.17188 22.4345 2.36783 21.2385 3.83789 21.2385H9.52148C10.9915 21.2385 12.1875 22.4345 12.1875 23.9046ZM15.0074 5.39034C14.6839 5.39034 14.4215 5.65272 14.4215 5.97627V7.92422C13.826 7.1952 13.1705 6.12651 13.1814 4.96149C13.1965 3.39528 14.3882 1.99858 15.008 1.37737C15.6611 1.99758 16.9336 3.40917 16.9188 4.97977C16.9079 6.14754 16.2135 7.21864 15.5934 7.94432V5.97627C15.5934 5.65272 15.331 5.39034 15.0074 5.39034ZM21.5072 17.4267C21.5072 16.4269 22.3206 15.6135 23.3203 15.6135C24.32 15.6135 25.1334 16.4269 25.1334 17.4267V18.2535C25.1334 19.2533 24.32 20.0666 23.3203 20.0666C22.3206 20.0666 21.5072 19.2533 21.5072 18.2535V17.4267ZM28.8281 28.8278H27.1875V26.6599C27.1875 26.3363 26.9251 26.0739 26.6016 26.0739C26.278 26.0739 26.0156 26.3363 26.0156 26.6599V28.8278H20.625V24.4057C20.625 24.0821 20.3626 23.8197 20.0391 23.8197C19.7155 23.8197 19.4531 24.0821 19.4531 24.4057V28.8278H17.8125V23.9046C17.8125 22.4345 19.0085 21.2385 20.4785 21.2385H26.1621C27.6322 21.2385 28.8281 22.4345 28.8281 23.9046V28.8278Z" fill="white"/>
</svg>
