<svg width="30" height="34" viewBox="0 0 30 34" fill="none" xmlns="http://www.w3.org/2000/svg">
<path d="M29.1527 29.6507H28.5345V28.5816C28.5345 28.1712 28.4875 27.884 28.3866 27.6777C28.2489 27.3961 27.9939 27.2346 27.6872 27.2346H26.9651V17.234H27.6872C28.1545 17.234 28.5345 16.8673 28.5345 16.4164V15.1782H29.1464C29.4405 15.1782 29.6902 14.9942 29.7676 14.7203C29.845 14.4464 29.7267 14.1656 29.4733 14.0215L23.2209 10.4655C22.9791 10.3279 22.6674 10.4055 22.5247 10.6389C22.3822 10.8723 22.4627 11.1731 22.7046 11.3106L27.7796 14.1971H2.22031L15 6.92872L20.658 10.1467C20.8998 10.2843 21.2115 10.2066 21.3541 9.97316C21.4967 9.73979 21.4162 9.43906 21.1743 9.30145L15.5084 6.07899V4.8613H17.3359V6.42066C17.3359 6.69157 17.5635 6.91119 17.8442 6.91119H23.809C24.2014 6.91119 24.5207 6.60314 24.5207 6.22445V3.32234C24.5207 2.94365 24.2014 2.63559 23.809 2.63559H21.7537V1.27244C21.7537 0.893748 21.4344 0.585694 21.042 0.585694H15.5084V0.490531C15.5084 0.219627 15.2808 0 15 0C14.7193 0 14.4916 0.219627 14.4916 0.490531V6.07899L0.526728 14.0215C0.273294 14.1657 0.155016 14.4465 0.232422 14.7204C0.309828 14.9942 0.559467 15.1782 0.853638 15.1782H1.4655V16.4164C1.4655 16.8673 1.84555 17.234 2.31277 17.234H3.03491V27.2346H2.31277C1.84555 27.2346 1.4655 27.6013 1.4655 28.0522V29.6506H0.847266C0.38005 29.6506 0 30.0173 0 30.4681V32.6694C0 33.1202 0.38005 33.4869 0.847266 33.4869H29.1527C29.62 33.4869 30 33.1202 30 32.6694V30.4682C30 30.0174 29.6199 29.6507 29.1527 29.6507ZM18.3526 5.53587V4.8613H19.4719L18.3526 5.53587ZM21.5167 4.78504C21.659 4.69805 21.7537 4.54526 21.7537 4.37077V3.61665H23.504V5.93013H19.6173L21.5167 4.78504ZM15.5084 1.56676H20.7369V3.88023H15.5084V1.56676ZM21.8957 27.2346V17.234H23.3123V27.2346H21.8957ZM11.2487 24.8209C10.968 24.8209 10.7404 25.0405 10.7404 25.3114V27.1614H9.12099V17.234H10.7404V23.0223C10.7404 23.2932 10.968 23.5128 11.2487 23.5128C11.5295 23.5128 11.7571 23.2932 11.7571 23.0223V17.234H13.1736V27.2346H11.7571V25.3114C11.7571 25.0405 11.5295 24.8209 11.2487 24.8209ZM14.1904 27.1614V17.234H15.8097V27.1614H14.1904ZM16.8264 17.234H18.2429V27.2346H16.8264V17.234ZM19.2596 27.1614V17.234H20.879V27.1614H19.2596ZM25.9484 27.1614H24.329V17.234H25.9484V27.1614ZM2.48222 15.1782H27.5178V16.2529H2.48222V15.1782ZM5.67099 17.234V27.1614H4.05163V17.234H5.67099ZM6.68771 17.234H8.10427V27.2346H6.68771V17.234ZM28.9833 32.5059H1.01672V30.6317H21.7781C22.0589 30.6317 22.2865 30.4121 22.2865 30.1412C22.2865 29.8703 22.0589 29.6507 21.7781 29.6507H2.48222V28.2158H27.496C27.5073 28.2903 27.5178 28.4064 27.5178 28.5817V29.6507H24.1505C23.8697 29.6507 23.6421 29.8703 23.6421 30.1413C23.6421 30.4122 23.8697 30.6318 24.1505 30.6318H28.9833V32.5059Z" fill="white"/>
<path d="M12.7471 11.0698C12.7471 12.2688 13.758 13.2441 15.0005 13.2441C16.2431 13.2441 17.254 12.2687 17.254 11.0698C17.254 9.87088 16.2431 8.89539 15.0005 8.89539C13.758 8.89539 12.7471 9.87082 12.7471 11.0698ZM16.2373 11.0698C16.2373 11.7278 15.6825 12.2631 15.0005 12.2631C14.3186 12.2631 13.7638 11.7278 13.7638 11.0698C13.7638 10.4118 14.3186 9.87644 15.0005 9.87644C15.6825 9.87644 16.2373 10.4118 16.2373 11.0698Z" fill="white"/>
</svg>
