<svg width="30" height="30" viewBox="0 0 30 30" fill="none" xmlns="http://www.w3.org/2000/svg">
<path d="M15 0C12.5145 0 10.5 2.01451 10.5 4.5C10.5 6.98549 12.5145 9 15 9C17.4855 9 19.5 6.98549 19.5 4.5C19.5 2.01451 17.4855 0 15 0ZM15 7.5C13.346 7.5 12 6.15398 12 4.5C12 2.84602 13.346 1.5 15 1.5C16.654 1.5 18 2.84602 18 4.5C18 6.15398 16.654 7.5 15 7.5Z" fill="white"/>
<path d="M20.9757 19.9815L19.4757 11.7315C19.3462 11.0185 18.7252 10.5 18.0002 10.5H12.0002C11.2752 10.5 10.6542 11.0185 10.5242 11.7315L9.0242 19.9815C8.94469 20.419 9.06323 20.8695 9.34823 21.211C9.63323 21.5525 10.0552 21.75 10.5002 21.75H11.4587L12.0052 28.619C12.0667 29.399 12.7177 30 13.5002 30H16.5002C17.2828 30 17.9337 29.399 17.9953 28.619L18.5418 21.75H19.5002C19.9453 21.75 20.3667 21.5525 20.6517 21.211C20.9367 20.8695 21.0551 20.419 20.9757 19.9815ZM17.1562 20.25L16.5002 28.5H13.5002L12.8442 20.25H10.5002L12.0002 12H14.2502V16.5C14.2502 16.9145 14.5857 17.25 15.0002 17.25C15.4147 17.25 15.7502 16.9145 15.7502 16.5V12H18.0002L19.5002 20.25H17.1562Z" fill="white"/>
<path d="M24.2992 1.5C22.3112 1.5 20.6992 3.11197 20.6992 5.1C20.6992 7.08803 22.3107 8.7 24.2992 8.7C26.2877 8.7 27.8992 7.08803 27.8992 5.1C27.8992 3.11197 26.2872 1.5 24.2992 1.5ZM24.2992 7.5C22.9757 7.5 21.8992 6.42351 21.8992 5.1C21.8992 3.77648 22.9757 2.7 24.2992 2.7C25.6227 2.7 26.6992 3.77648 26.6992 5.1C26.6992 6.42351 25.6227 7.5 24.2992 7.5Z" fill="white"/>
<path d="M29.0811 17.4855L27.8806 10.8855C27.7771 10.315 27.2801 9.90002 26.7001 9.90002H21.9001C21.3466 9.90002 20.8786 10.283 20.7461 10.814C20.8351 11.0205 20.9101 11.2346 20.9516 11.464L21.3926 13.89L21.9 11.1H23.7V14.7C23.7 15.0315 23.9685 15.3 24.3 15.3C24.6316 15.3 24.9 15.0315 24.9 14.7V11.1H26.7L27.9 17.7H26.025L25.5 24.3H23.1L22.5 21L21.6 22.5L21.904 24.395C21.9535 25.019 22.474 25.5 23.1 25.5H25.5C26.1261 25.5 26.6465 25.019 26.6961 24.395L27.133 18.9H27.9C28.2561 18.9 28.5936 18.742 28.8215 18.469C29.0495 18.196 29.1446 17.8356 29.0811 17.4855Z" fill="white"/>
<path d="M5.69961 1.5C3.71111 1.5 2.09961 3.11197 2.09961 5.1C2.09961 7.08803 3.71158 8.7 5.69961 8.7C7.68811 8.7 9.29961 7.08803 9.29961 5.1C9.29961 3.11197 7.68811 1.5 5.69961 1.5ZM5.69961 7.5C4.37609 7.5 3.29961 6.42351 3.29961 5.1C3.29961 3.77648 4.37609 2.7 5.69961 2.7C7.02312 2.7 8.09961 3.77648 8.09961 5.1C8.09961 6.42351 7.02307 7.5 5.69961 7.5Z" fill="white"/>
<path d="M8.10017 9.90002H3.30017C2.72015 9.90002 2.22316 10.315 2.11968 10.8855L0.919684 17.4855C0.856169 17.8355 0.951208 18.196 1.1792 18.469C1.40718 18.742 1.74422 18.9 2.10017 18.9H2.86716L3.30416 24.395C3.35367 25.019 3.87416 25.5 4.50017 25.5H6.90017C7.52619 25.5 8.04668 25.019 8.09619 24.395L8.40017 22.5L7.50017 21L6.90017 24.3H4.50017L3.97517 17.7H2.10017L3.30017 11.1H5.10017V14.7C5.10017 15.0315 5.36865 15.3 5.70017 15.3C6.0317 15.3 6.30017 15.0315 6.30017 14.7V11.1H8.10017L8.60765 13.89L9.04863 11.464C9.09011 11.2345 9.16511 11.0205 9.25412 10.814C9.12164 10.2831 8.65365 9.90002 8.10017 9.90002Z" fill="white"/>
</svg>
