<svg width="30" height="30" viewBox="0 0 30 30" fill="none" xmlns="http://www.w3.org/2000/svg">
<path d="M7.0487 6.41858H15.4717C15.8895 6.41858 16.2293 6.08414 16.2293 5.673V4.72415C16.2293 4.31301 15.8895 3.97852 15.4717 3.97852H7.0487C6.63092 3.97852 6.29102 4.31301 6.29102 4.72415V5.673C6.29102 6.08414 6.63092 6.41858 7.0487 6.41858ZM7.17126 4.84477H15.3491V5.55232H7.17126V4.84477Z" fill="white"/>
<path d="M6.29102 9.47524C6.29102 9.88638 6.63092 10.2208 7.0487 10.2208H15.4717C15.8895 10.2208 16.2293 9.88638 16.2293 9.47524V8.52634C16.2293 8.1152 15.8895 7.78076 15.4717 7.78076H7.0487C6.63092 7.78076 6.29102 8.1152 6.29102 8.52634V9.47524ZM7.17126 8.64696H15.3491V9.35451H7.17126V8.64696Z" fill="white"/>
<path d="M14.2528 15.9552H15.4755C15.8761 15.9552 16.202 15.6345 16.202 15.2404V14.2549C16.202 13.8608 15.8761 13.5402 15.4755 13.5402H14.2528C13.8522 13.5402 13.5264 13.8608 13.5264 14.2549V15.2404C13.5263 15.6345 13.8522 15.9552 14.2528 15.9552ZM14.4066 14.4064H15.3217V15.0891H14.4066V14.4064Z" fill="white"/>
<path d="M19.9509 14.255C19.9509 13.8608 19.625 13.5402 19.2245 13.5402H18.0018C17.6012 13.5402 17.2754 13.8608 17.2754 14.255V15.2405C17.2754 15.6347 17.6013 15.9554 18.0018 15.9554H19.2245C19.6251 15.9554 19.9509 15.6347 19.9509 15.2405V14.255ZM19.0707 15.0892H18.1556V14.4063H19.0707V15.0892Z" fill="white"/>
<path d="M23.7098 14.255C23.7098 13.8608 23.3839 13.5402 22.9833 13.5402H21.7606C21.36 13.5402 21.0342 13.8608 21.0342 14.255V15.2405C21.0342 15.6347 21.3601 15.9554 21.7606 15.9554H22.9833C23.3839 15.9554 23.7098 15.6347 23.7098 15.2405V14.255ZM22.8295 15.0892H21.9144V14.4063H22.8295V15.0892Z" fill="white"/>
<path d="M13.5264 19.4562C13.5264 19.8505 13.8523 20.1711 14.2528 20.1711H15.4755C15.8761 20.1711 16.202 19.8505 16.202 19.4562V18.4706C16.202 18.0763 15.8761 17.7556 15.4755 17.7556H14.2528C13.8522 17.7556 13.5264 18.0763 13.5264 18.4706V19.4562ZM14.4066 18.6219H15.3218V19.3048H14.4066V18.6219Z" fill="white"/>
<path d="M19.2245 20.1711C19.6251 20.1711 19.9509 19.8505 19.9509 19.4562V18.4706C19.9509 18.0763 19.625 17.7556 19.2245 17.7556H18.0018C17.6012 17.7556 17.2754 18.0763 17.2754 18.4706V19.4562C17.2754 19.8505 17.6013 20.1711 18.0018 20.1711H19.2245ZM18.1556 18.6219H19.0707V19.3048H18.1556V18.6219Z" fill="white"/>
<path d="M13.5264 23.6717C13.5264 24.0659 13.8523 24.3866 14.2528 24.3866H17.0263C17.4269 24.3866 17.7527 24.0659 17.7527 23.6717V22.6862C17.7527 22.292 17.4269 21.9713 17.0263 21.9713H14.2528C13.8522 21.9713 13.5264 22.292 13.5264 22.6862V23.6717ZM14.4066 22.8375H16.8726V23.5204H14.4066V22.8375Z" fill="white"/>
<path d="M22.9833 17.7556H21.7606C21.36 17.7556 21.0342 18.0763 21.0342 18.4706V19.4562C21.0342 19.8505 21.3601 20.1711 21.7606 20.1711H22.9833C23.3839 20.1711 23.7098 19.8505 23.7098 19.4562V18.4706C23.7098 18.0764 23.3839 17.7556 22.9833 17.7556ZM22.8296 19.3048H21.9144V18.6219H22.8296V19.3048Z" fill="white"/>
<path d="M28.9046 26.7098C28.9201 25.828 28.3303 25.0996 27.5193 24.8821C27.2978 24.0862 26.5653 23.5202 25.6956 23.5202H25.6226V17.8468C25.6226 17.6076 25.4256 17.4137 25.1825 17.4137C24.9394 17.4137 24.7424 17.6076 24.7424 17.8468V26.6631H23.5824V22.7885C23.5824 22.3378 23.2098 21.9712 22.7518 21.9712H19.5011C19.0431 21.9712 18.6705 22.3379 18.6705 22.7885V26.6631H12.4843C12.4843 25.2853 12.4843 14.0357 12.4843 12.1659C12.4843 11.9501 12.6621 11.7672 12.8894 11.7672H24.3373C24.5607 11.7672 24.7424 11.9461 24.7424 12.1659V15.822C24.7424 16.0612 24.9395 16.2551 25.1825 16.2551C25.4256 16.2551 25.6227 16.0612 25.6227 15.822V12.1659C25.6227 11.4684 25.046 10.901 24.3373 10.901H18.1434V2.93702C18.1434 2.3253 17.6998 1.81364 17.1124 1.69713V0.916892C17.1124 0.411355 16.6945 0 16.1807 0H6.34004C5.82626 0 5.4083 0.411355 5.4083 0.916892V1.69724C4.82098 1.81376 4.37733 2.32541 4.37733 2.93713V4.18505C4.37733 4.42426 4.57438 4.61816 4.81746 4.61816C5.06054 4.61816 5.25759 4.42426 5.25759 4.18505V2.93708C5.25759 2.71726 5.43932 2.53842 5.6627 2.53842H16.858C17.0814 2.53842 17.2631 2.71726 17.2631 2.93708V10.901H12.8894C12.3995 10.901 11.9663 11.1731 11.7502 11.5828H7.04888C6.63121 11.5828 6.29119 11.9171 6.29119 12.3283V13.2772C6.29119 13.6883 6.6311 14.0228 7.04888 14.0228H11.604V15.385H7.04888C6.6311 15.385 6.29119 15.7194 6.29119 16.1306V17.0794C6.29119 17.4905 6.6311 17.825 7.04888 17.825H11.604V19.1871H7.04888C6.6311 19.1871 6.29119 19.5216 6.29119 19.9328V20.8815C6.29119 21.2926 6.6311 21.6271 7.04888 21.6271H11.604V22.9893H7.04888C6.6311 22.9893 6.29119 23.3238 6.29119 23.7349V24.6837C6.29119 25.0948 6.6311 25.4293 7.04888 25.4293H11.604V26.6633H5.25759V6.20789C5.25759 5.96868 5.06054 5.77478 4.81746 5.77478C4.57438 5.77478 4.37733 5.96868 4.37733 6.20789V23.5202H4.30444C3.43474 23.5202 2.70227 24.0862 2.48066 24.8821C1.67013 25.0994 1.07982 25.8275 1.09536 26.7098C0.46593 26.8716 0 27.4359 0 28.1053C0 28.9004 0.657403 29.5474 1.46546 29.5474H28.5345C29.3426 29.5474 30 28.9004 30 28.1053C30 27.4359 29.5341 26.8717 28.9046 26.7098ZM6.34004 0.866223H16.1807C16.2091 0.866223 16.2322 0.88896 16.2322 0.916892V1.67225H6.28855V0.916892C6.28855 0.88896 6.31166 0.866223 6.34004 0.866223ZM7.17144 13.1565V12.449H11.604V13.1565H7.17144ZM7.17144 16.9587V16.2512H11.604V16.9587H7.17144ZM7.17144 20.7608V20.0533H11.604V20.7608H7.17144ZM7.17144 24.563V23.8555H11.604V24.563H7.17144ZM25.6227 24.3864H25.6956C26.2148 24.3864 26.6575 24.7844 26.7035 25.2926C26.7224 25.5016 26.8909 25.6673 27.1034 25.6857C27.6156 25.7299 28.0174 26.158 28.0249 26.6632H25.6226V24.3864H25.6227ZM19.5508 22.8373H22.7022V26.6631H19.5508V22.8373ZM2.89662 25.6857C3.10909 25.6673 3.27758 25.5016 3.29652 25.2926C3.34249 24.7844 3.78526 24.3864 4.30438 24.3864H4.37733V26.6631H1.97508C1.98265 26.1579 2.38436 25.7298 2.89662 25.6857ZM28.5345 28.6811H1.46546C1.14274 28.6811 0.880252 28.4228 0.880252 28.1053C0.880252 27.7877 1.1428 27.5294 1.46546 27.5294H28.5346C28.8573 27.5294 29.1198 27.7877 29.1198 28.1053C29.1198 28.4228 28.8573 28.6811 28.5345 28.6811Z" fill="white"/>
</svg>
