<svg width="16" height="19" viewBox="0 0 16 19" fill="none" xmlns="http://www.w3.org/2000/svg">
<path fill-rule="evenodd" clip-rule="evenodd" d="M10.5 10H8.83333V8.33334C8.83333 7.87251 8.46 7.50001 8 7.50001C7.54 7.50001 7.16667 7.87251 7.16667 8.33334V10.8333C7.16667 11.2942 7.54 11.6667 8 11.6667H10.5C10.96 11.6667 11.3333 11.2942 11.3333 10.8333C11.3333 10.3725 10.96 10 10.5 10ZM8 16.4583C4.89833 16.4583 2.375 13.935 2.375 10.8333C2.375 7.73168 4.89833 5.20834 8 5.20834C11.1017 5.20834 13.625 7.73168 13.625 10.8333C13.625 13.935 11.1017 16.4583 8 16.4583ZM8.82333 3.38168C8.825 3.36418 8.83333 3.35084 8.83333 3.33334V2.50001H9.66667C10.1267 2.50001 10.5 2.12751 10.5 1.66668C10.5 1.20584 10.1267 0.833344 9.66667 0.833344H6.33333C5.87333 0.833344 5.5 1.20584 5.5 1.66668C5.5 2.12751 5.87333 2.50001 6.33333 2.50001H7.16667V3.33334C7.16667 3.35084 7.175 3.36418 7.17667 3.38168C3.4275 3.79334 0.5 6.97668 0.5 10.8333C0.5 14.9692 3.865 18.3333 8 18.3333C12.135 18.3333 15.5 14.9692 15.5 10.8333C15.5 6.97668 12.5725 3.79334 8.82333 3.38168Z" fill="#7B7B7B"/>
</svg>
