<svg width="871" height="337" viewBox="0 0 871 337" fill="none" xmlns="http://www.w3.org/2000/svg">
<g clip-path="url(#clip0)">
<path d="M378.73 82.8235L374.003 82.8229L371.674 96.2719L369.031 96.2715L371.371 82.8226L366.677 82.822L367.064 80.6307L379.116 80.6321L378.73 82.8235ZM388.152 90.5053C388.008 91.6654 387.697 92.7181 387.217 93.6634C386.745 94.6087 386.14 95.3247 385.402 95.8116C384.672 96.2913 383.852 96.5204 382.942 96.4988C381.732 96.47 380.779 96.0402 380.085 95.2094L379.043 100.742L376.487 100.741L379.278 84.6497L381.609 84.6393L381.416 85.8424C382.304 84.8757 383.36 84.4067 384.584 84.4355C385.322 84.4428 385.963 84.6326 386.507 85.0051C387.052 85.3704 387.467 85.904 387.754 86.6058C388.047 87.3077 388.205 88.0883 388.227 88.9477C388.234 89.3845 388.209 89.9038 388.152 90.5053ZM385.638 90.2794L385.691 89.4952C385.713 88.5714 385.559 87.8553 385.229 87.3468C384.907 86.8382 384.42 86.5768 383.768 86.5624C382.809 86.5336 381.978 86.974 381.276 87.8834L380.375 93.0717C380.697 93.9383 381.352 94.386 382.34 94.4148C383.186 94.4363 383.894 94.107 384.467 93.4267C385.047 92.7465 385.438 91.6974 385.638 90.2794ZM398.367 84.6521L400.988 84.6524L398.97 96.2752L396.424 96.2749L397.755 88.691L392.105 96.2743L389.484 96.274L391.502 84.6512L394.048 84.6515L392.717 92.2354L398.367 84.6521ZM414.222 85.2985C415.554 85.3273 416.589 85.8359 417.327 86.8243C418.072 87.8126 418.38 89.0767 418.251 90.6164C418.094 92.3852 417.471 93.8175 416.383 94.913C415.301 96.0086 413.959 96.542 412.354 96.5131C411.359 96.4844 410.503 96.2157 409.787 95.7071C409.078 95.1986 408.559 94.5003 408.229 93.6122C407.907 92.717 407.803 91.7323 407.917 90.6581L407.939 90.4325L407.939 90.4003L408.046 89.5946C408.397 87.1884 409.091 85.2728 410.129 83.8478C411.175 82.4228 412.525 81.5314 414.179 81.1735L415.189 80.9803C416.241 80.7727 416.843 80.3037 416.993 79.5733L419.066 79.5735C419.009 80.2896 418.834 80.8769 418.54 81.3352C418.247 81.7935 417.824 82.173 417.273 82.4737C416.721 82.7672 415.912 83.0178 414.845 83.2253C413.785 83.4257 412.912 83.8195 412.224 84.4067C411.544 84.9938 410.971 85.8281 410.506 86.9094C411.637 85.821 412.876 85.284 414.222 85.2985ZM413.578 87.3824C413.012 87.368 412.504 87.5004 412.053 87.7797C411.609 88.0518 411.247 88.4384 410.968 88.9397C410.696 89.441 410.52 90.0175 410.442 90.6691C410.392 91.1991 410.381 91.6717 410.41 92.0871C410.46 92.8033 410.66 93.369 411.011 93.7844C411.362 94.1927 411.853 94.4076 412.483 94.4292C413.321 94.4507 414.026 94.1465 414.599 93.5163C415.172 92.8862 415.534 91.9982 415.684 90.8524L415.705 90.6268C415.798 89.6314 415.659 88.8472 415.286 88.2742C414.921 87.7013 414.351 87.404 413.578 87.3824ZM429.982 90.5104C429.839 91.6705 429.527 92.7232 429.047 93.6685C428.575 94.6137 427.97 95.3298 427.232 95.8167C426.502 96.2964 425.682 96.5255 424.772 96.5039C423.562 96.4751 422.61 96.0453 421.915 95.2145L420.873 100.747L418.317 100.746L421.108 84.6548L423.439 84.6444L423.246 85.8475C424.134 84.8808 425.19 84.4118 426.415 84.4406C427.152 84.4479 427.793 84.6377 428.337 85.0102C428.882 85.3755 429.297 85.9091 429.584 86.6109C429.877 87.3128 430.035 88.0934 430.057 88.9528C430.064 89.3896 430.039 89.9088 429.982 90.5104ZM427.468 90.2845L427.522 89.5003C427.543 88.5765 427.389 87.8603 427.059 87.3518C426.737 86.8433 426.25 86.5819 425.598 86.5675C424.639 86.5387 423.808 86.979 423.106 87.8885L422.205 93.0768C422.527 93.9434 423.182 94.3911 424.171 94.4198C425.016 94.4414 425.725 94.1121 426.297 93.4318C426.877 92.7515 427.268 91.7024 427.468 90.2845ZM438.125 96.2799C438.039 95.9934 438.003 95.6318 438.017 95.1949C437.058 96.09 436.023 96.5232 434.913 96.4944C433.903 96.4799 433.065 96.1576 432.399 95.5273C431.74 94.8898 431.432 94.0841 431.475 93.1102C431.532 91.8856 432.062 90.9224 433.065 90.2207C434.067 89.519 435.413 89.1683 437.104 89.1685L438.758 89.1902L438.908 88.3952C438.951 88.116 438.951 87.8546 438.908 87.6111C438.765 86.8376 438.253 86.4401 437.372 86.4185C436.828 86.4041 436.348 86.5437 435.932 86.8373C435.524 87.1237 435.274 87.5104 435.181 87.9973L432.635 88.0185C432.685 87.3024 432.939 86.6758 433.397 86.1387C433.855 85.5945 434.464 85.1721 435.223 84.8714C435.982 84.5707 436.784 84.4275 437.629 84.442C438.897 84.4708 439.885 84.854 440.594 85.5917C441.303 86.3223 441.597 87.2712 441.476 88.4385L440.585 93.8847L440.499 94.8515C440.477 95.274 440.531 95.6858 440.66 96.0869L440.649 96.2802L438.125 96.2799ZM435.504 94.4105C436.041 94.4248 436.538 94.3032 436.997 94.0454C437.455 93.7805 437.845 93.4404 438.167 93.025L438.565 90.8229L437.351 90.8121C436.391 90.8119 435.625 90.9945 435.052 91.3596C434.479 91.7176 434.153 92.2117 434.075 92.8419C434.017 93.3217 434.121 93.7013 434.386 93.9806C434.658 94.2528 435.031 94.3961 435.504 94.4105ZM453.26 86.7319L449.607 86.7315L447.943 96.2811L445.397 96.2808L447.051 86.7312L443.43 86.7308L443.795 84.6576L453.625 84.6588L453.26 86.7319ZM460.125 96.2826C460.039 95.9961 460.003 95.6345 460.017 95.1976C459.058 96.0927 458.023 96.5258 456.913 96.497C455.903 96.4826 455.065 96.1602 454.399 95.5299C453.74 94.8925 453.432 94.0868 453.475 93.1128C453.532 91.8882 454.062 90.9251 455.065 90.2234C456.067 89.5217 457.413 89.1709 459.104 89.1711L460.758 89.1928L460.908 88.3979C460.951 88.1186 460.951 87.8572 460.908 87.6137C460.765 86.8403 460.253 86.4428 459.372 86.4212C458.828 86.4068 458.348 86.5464 457.932 86.8399C457.524 87.1263 457.274 87.513 457.181 88L454.635 88.0212C454.685 87.305 454.939 86.6784 455.397 86.1414C455.855 85.5972 456.464 85.1747 457.223 84.874C457.982 84.5733 458.784 84.4302 459.629 84.4446C460.897 84.4734 461.885 84.8567 462.594 85.5944C463.303 86.325 463.597 87.2739 463.476 88.4412L462.585 93.8874L462.499 94.8542C462.477 95.2767 462.531 95.6885 462.66 96.0895L462.649 96.2829L460.125 96.2826ZM457.504 94.4131C458.041 94.4275 458.538 94.3058 458.997 94.0481C459.455 93.7832 459.845 93.443 460.167 93.0277L460.565 90.8256L459.351 90.8147C458.391 90.8146 457.625 90.9971 457.052 91.3623C456.479 91.7203 456.153 92.2144 456.075 92.8446C456.017 93.3244 456.121 93.704 456.386 93.9833C456.658 94.2555 457.031 94.3987 457.504 94.4131Z" fill="#1D293F"/>
<g opacity="0.65">
<path d="M90.6868 54.29C98.3745 54.2794 104.616 60.5023 104.628 68.1899C104.638 74.0716 100.515 80.4871 92.3677 87.505C91.9146 87.8953 91.3366 88.1101 90.7385 88.1104C90.1404 88.1107 89.562 87.8965 89.1084 87.5066L88.568 87.0391C80.7595 80.2259 76.7992 73.9785 76.79 68.2281C76.7776 60.5405 82.9991 54.3005 90.6868 54.29ZM90.6902 56.4314C87.5666 56.4356 84.5728 57.6806 82.3676 59.8924C80.1624 62.1042 78.9264 65.1016 78.9314 68.2252C78.9394 73.2246 82.5862 78.98 89.9716 85.4226L90.5049 85.8829C90.5697 85.9385 90.6523 85.969 90.7377 85.9689C90.8231 85.9688 90.9056 85.9381 90.9703 85.8823C98.6915 79.2305 102.495 73.3108 102.487 68.1928C102.484 66.6462 102.177 65.1151 101.583 63.687C100.989 62.2588 100.119 60.9617 99.0239 59.8695C97.9285 58.7774 96.6287 57.9116 95.1988 57.3217C93.7689 56.7318 92.2369 56.4292 90.6902 56.4314ZM90.7006 62.8555C92.1204 62.8536 93.483 63.4157 94.4886 64.4183C95.4942 65.4209 96.0604 66.7818 96.0627 68.2017C96.065 69.6215 95.5031 70.9839 94.5008 71.9893C93.4984 72.9946 92.1376 73.5605 90.7178 73.5625C89.2979 73.5644 87.9353 73.0023 86.9297 71.9997C85.9241 70.9971 85.3579 69.6362 85.3556 68.2164C85.3533 66.7965 85.9152 65.4341 86.9175 64.4287C87.9199 63.4234 89.2807 62.8575 90.7006 62.8555ZM90.704 64.9969C89.8521 64.9981 89.0356 65.3376 88.4342 65.9408C87.8328 66.544 87.4957 67.3615 87.497 68.2134C87.4984 69.0653 87.8381 69.8819 88.4415 70.4834C89.0449 71.085 89.8624 71.4223 90.7143 71.4211C91.5662 71.4199 92.3827 71.0804 92.9841 70.4772C93.5855 69.874 93.9227 69.0565 93.9213 68.2046C93.9199 67.3527 93.5802 66.5362 92.9768 65.9346C92.3735 65.333 91.5559 64.9958 90.704 64.9969Z" fill="#FF3D00"/>
</g>
<path d="M108.663 114.48L97.6826 114.478L89.8402 105.867C89.0938 105.048 87.8392 104.948 86.973 105.639L82.1088 109.521L69.2736 89.2539C68.888 88.645 68.2173 88.2758 67.4966 88.2757C66.776 88.2756 66.1054 88.6447 65.7199 89.2534L54.7642 106.557L50.655 100.545C50.2631 99.972 49.6132 99.629 48.9185 99.6289C48.2238 99.6288 47.5742 99.9717 47.1821 100.545L37.6643 114.471L29.8736 114.47C28.712 114.47 27.7706 115.411 27.7708 116.572C27.7709 117.734 28.7125 118.675 29.8741 118.675L34.7903 118.676L33.117 121.124C32.4617 122.082 32.7081 123.391 33.6672 124.046C34.0301 124.294 34.4433 124.413 34.852 124.413C35.5233 124.413 36.1829 124.093 36.5902 123.497L37.4009 122.311L48.9194 105.458L52.315 110.426L44.7892 122.312L39.3474 130.907C38.7262 131.888 39.0182 133.186 39.9997 133.808C40.3488 134.029 40.7379 134.134 41.1228 134.134C41.8194 134.134 42.5012 133.788 42.9014 133.156L43.9006 131.578L67.4976 94.3095L86.6751 124.592L87.154 125.348C87.7752 126.329 89.0745 126.621 90.0558 126C90.9489 125.435 91.2684 124.309 90.8505 123.371C90.8091 123.279 90.7633 123.187 90.7074 123.099L84.3728 113.096L88.0578 110.155L100.689 124.024L102.161 125.641C102.576 126.097 103.145 126.328 103.717 126.328C104.222 126.328 104.729 126.147 105.132 125.78C105.991 124.999 106.053 123.669 105.271 122.81L101.513 118.684L108.663 118.685C109.825 118.685 110.766 117.744 110.766 116.582C110.766 115.421 109.824 114.48 108.663 114.48Z" fill="#172EA5"/>
<g opacity="0.65">
<path d="M410.554 127.29C419.832 127.278 427.365 134.788 427.379 144.065C427.391 151.164 422.416 158.906 412.583 167.376C412.036 167.847 411.338 168.106 410.617 168.106C409.895 168.107 409.197 167.848 408.649 167.378L407.997 166.814C398.573 158.591 393.794 151.051 393.783 144.112C393.768 134.834 401.276 127.303 410.554 127.29ZM410.558 129.875C406.789 129.88 403.176 131.382 400.514 134.052C397.853 136.721 396.361 140.338 396.367 144.108C396.377 150.142 400.778 157.087 409.691 164.863L410.335 165.418C410.413 165.485 410.513 165.522 410.616 165.522C410.719 165.522 410.818 165.485 410.896 165.417C420.215 157.39 424.805 150.246 424.795 144.069C424.792 142.202 424.422 140.355 423.704 138.631C422.987 136.908 421.938 135.342 420.616 134.024C419.294 132.706 417.725 131.661 416 130.949C414.274 130.237 412.425 129.872 410.558 129.875ZM410.571 137.628C412.284 137.625 413.929 138.304 415.142 139.514C416.356 140.724 417.039 142.366 417.042 144.08C417.045 145.793 416.367 147.437 415.157 148.651C413.947 149.864 412.305 150.547 410.592 150.549C408.878 150.552 407.234 149.873 406.02 148.663C404.806 147.453 404.123 145.811 404.12 144.097C404.118 142.384 404.796 140.74 406.005 139.526C407.215 138.313 408.857 137.63 410.571 137.628ZM410.575 140.212C409.547 140.213 408.561 140.623 407.836 141.351C407.11 142.079 406.703 143.066 406.705 144.094C406.706 145.122 407.116 146.107 407.844 146.833C408.573 147.559 409.559 147.966 410.587 147.965C411.616 147.964 412.601 147.554 413.327 146.826C414.053 146.098 414.459 145.111 414.458 144.083C414.456 143.055 414.046 142.07 413.318 141.344C412.59 140.618 411.603 140.211 410.575 140.212Z" fill="#FF3D00"/>
</g>
<path d="M474.663 196.48L463.683 196.478L455.84 187.867C455.094 187.048 453.839 186.948 452.973 187.639L448.109 191.522L435.274 171.254C434.888 170.645 434.217 170.276 433.497 170.276C432.776 170.276 432.105 170.645 431.72 171.253L420.764 188.557L416.655 182.545C416.263 181.972 415.613 181.629 414.918 181.629C414.224 181.629 413.574 181.972 413.182 182.545L403.664 196.471L395.874 196.47C394.712 196.47 393.771 197.411 393.771 198.572C393.771 199.734 394.712 200.675 395.874 200.675L400.79 200.676L399.117 203.124C398.462 204.083 398.708 205.391 399.667 206.046C400.03 206.294 400.443 206.413 400.852 206.413C401.523 206.413 402.183 206.093 402.59 205.497L403.401 204.311L414.919 187.458L418.315 192.426L410.789 204.312L405.347 212.907C404.726 213.888 405.018 215.186 406 215.808C406.349 216.029 406.738 216.134 407.123 216.134C407.819 216.134 408.501 215.788 408.901 215.156L409.901 213.578L433.498 176.31L452.675 206.592L453.154 207.348C453.775 208.329 455.074 208.621 456.056 208C456.949 207.435 457.268 206.309 456.85 205.372C456.809 205.279 456.763 205.187 456.707 205.099L450.373 195.096L454.058 192.155L466.689 206.025L468.161 207.641C468.576 208.097 469.145 208.328 469.717 208.328C470.222 208.328 470.729 208.147 471.132 207.781C471.991 206.999 472.053 205.669 471.271 204.81L467.513 200.684L474.663 200.685C475.825 200.685 476.766 199.744 476.766 198.583C476.766 197.421 475.824 196.48 474.663 196.48Z" fill="#172EA5"/>
<g opacity="0.65">
<path d="M815.778 168.298C826.83 168.283 835.803 177.229 835.821 188.281C835.834 196.737 829.907 205.96 818.194 216.049C817.543 216.61 816.712 216.919 815.852 216.919C814.993 216.92 814.161 216.612 813.509 216.051L812.732 215.379C801.506 205.584 795.813 196.603 795.8 188.336C795.782 177.284 804.726 168.314 815.778 168.298ZM815.783 171.377C811.292 171.383 806.989 173.173 803.818 176.353C800.648 179.532 798.871 183.841 798.878 188.332C798.89 195.519 804.133 203.793 814.75 213.055L815.517 213.717C815.61 213.797 815.728 213.841 815.851 213.84C815.974 213.84 816.093 213.796 816.186 213.716C827.286 204.153 832.754 195.643 832.742 188.285C832.739 186.062 832.297 183.861 831.443 181.808C830.589 179.755 829.338 177.89 827.764 176.32C826.189 174.75 824.32 173.505 822.265 172.657C820.209 171.809 818.006 171.374 815.783 171.377ZM815.798 180.612C817.839 180.61 819.798 181.418 821.244 182.859C822.689 184.3 823.503 186.257 823.507 188.298C823.51 190.339 822.702 192.298 821.261 193.743C819.82 195.188 817.864 196.002 815.823 196.005C813.781 196.008 811.822 195.199 810.377 193.758C808.931 192.317 808.117 190.36 808.114 188.319C808.111 186.278 808.918 184.319 810.359 182.874C811.8 181.429 813.757 180.615 815.798 180.612ZM815.803 183.691C814.578 183.693 813.404 184.181 812.54 185.048C811.675 185.915 811.19 187.09 811.192 188.315C811.194 189.54 811.683 190.714 812.55 191.578C813.418 192.443 814.593 192.928 815.818 192.926C817.042 192.925 818.216 192.437 819.081 191.569C819.945 190.702 820.43 189.527 820.428 188.302C820.426 187.078 819.938 185.904 819.07 185.039C818.203 184.174 817.027 183.689 815.803 183.691Z" fill="#FF3D00"/>
</g>
<path d="M854.663 260.48L843.683 260.478L835.84 251.868C835.094 251.048 833.839 250.948 832.973 251.639L828.109 255.522L815.274 235.254C814.888 234.645 814.217 234.276 813.497 234.276C812.776 234.276 812.105 234.645 811.72 235.254L800.764 252.557L796.655 246.546C796.263 245.972 795.613 245.629 794.918 245.629C794.224 245.629 793.574 245.972 793.182 246.545L783.664 260.471L775.874 260.47C774.712 260.47 773.771 261.411 773.771 262.573C773.771 263.734 774.712 264.675 775.874 264.675L780.79 264.676L779.117 267.124C778.462 268.083 778.708 269.391 779.667 270.046C780.03 270.295 780.443 270.413 780.852 270.413C781.523 270.413 782.183 270.093 782.59 269.497L783.401 268.311L794.919 251.458L798.315 256.426L790.789 268.312L785.347 276.907C784.726 277.888 785.018 279.187 786 279.808C786.349 280.029 786.738 280.134 787.123 280.134C787.819 280.134 788.501 279.788 788.901 279.156L789.901 277.578L813.498 240.31L832.675 270.592L833.154 271.348C833.775 272.329 835.074 272.621 836.056 272C836.949 271.435 837.268 270.309 836.85 269.372C836.809 269.279 836.763 269.187 836.707 269.099L830.373 259.097L834.058 256.155L846.689 270.025L848.161 271.641C848.576 272.097 849.145 272.328 849.717 272.328C850.222 272.328 850.729 272.147 851.132 271.781C851.991 270.999 852.053 269.669 851.271 268.81L847.513 264.684L854.663 264.685C855.825 264.685 856.766 263.744 856.766 262.583C856.766 261.421 855.824 260.48 854.663 260.48Z" fill="#172EA5"/>
<path d="M777.395 135.569L775.525 135.568L774.366 142.271L771.724 142.271L774.429 126.631L777.071 126.631L775.933 133.205L777.276 133.205L782.883 126.632L786.299 126.632L779.683 134.248L783.873 142.273L780.865 142.272L777.395 135.569ZM789.383 138.513L793.035 130.651L795.849 130.651L788.965 144.282C788.006 146.115 786.742 147.021 785.173 146.999C784.787 146.985 784.346 146.913 783.852 146.784L784.067 144.765L784.528 144.808C785.144 144.829 785.653 144.711 786.054 144.453C786.455 144.203 786.791 143.809 787.063 143.272L787.676 142.069L785.73 130.65L788.373 130.65L789.383 138.513ZM802.542 139.041L807.322 130.652L810.566 130.653L808.548 142.276L806.002 142.275L807.312 134.777L802.973 142.275L801.232 142.275L799.448 134.433L798.074 142.274L795.528 142.274L797.546 130.651L800.694 130.652L802.542 139.041ZM818.515 131.298C819.847 131.327 820.882 131.836 821.62 132.824C822.365 133.812 822.673 135.076 822.544 136.616C822.387 138.385 821.764 139.817 820.676 140.913C819.594 142.008 818.252 142.542 816.647 142.513C815.652 142.484 814.796 142.215 814.08 141.707C813.371 141.198 812.852 140.5 812.522 139.612C812.2 138.717 812.096 137.732 812.21 136.658L812.232 136.432L812.232 136.4L812.339 135.594C812.69 133.188 813.384 131.273 814.422 129.848C815.468 128.423 816.818 127.531 818.472 127.173L819.482 126.98C820.534 126.772 821.136 126.303 821.286 125.573L823.359 125.573C823.302 126.289 823.127 126.877 822.833 127.335C822.54 127.793 822.117 128.173 821.566 128.473C821.014 128.767 820.205 129.017 819.138 129.225C818.078 129.425 817.205 129.819 816.517 130.406C815.837 130.994 815.264 131.828 814.799 132.909C815.93 131.821 817.169 131.284 818.515 131.298ZM817.871 133.382C817.305 133.368 816.797 133.5 816.346 133.779C815.902 134.051 815.54 134.438 815.261 134.939C814.989 135.441 814.813 136.017 814.735 136.669C814.685 137.199 814.674 137.671 814.703 138.087C814.753 138.803 814.953 139.369 815.304 139.784C815.655 140.192 816.146 140.407 816.776 140.429C817.614 140.45 818.319 140.146 818.892 139.516C819.465 138.886 819.827 137.998 819.977 136.852L819.998 136.627C820.091 135.631 819.952 134.847 819.579 134.274C819.214 133.701 818.644 133.404 817.871 133.382ZM828.85 142.493C827.841 142.471 826.963 142.217 826.219 141.73C825.481 141.243 824.933 140.577 824.575 139.732C824.224 138.886 824.091 137.945 824.177 136.906L824.209 136.466C824.338 135.284 824.682 134.224 825.24 133.286C825.806 132.341 826.507 131.625 827.345 131.138C828.183 130.651 829.093 130.419 830.074 130.44C831.528 130.469 832.616 131.01 833.34 132.063C834.07 133.116 834.346 134.487 834.167 136.177L834.017 137.294L826.701 137.293C826.637 138.217 826.823 138.962 827.26 139.528C827.697 140.094 828.299 140.384 829.065 140.398C830.161 140.434 831.171 139.958 832.094 138.97L833.383 140.323C832.897 141.018 832.256 141.559 831.461 141.945C830.666 142.325 829.796 142.507 828.85 142.493ZM829.934 132.524C828.588 132.481 827.578 133.433 826.905 135.381L831.729 135.393L831.772 135.167C831.822 134.838 831.825 134.515 831.782 134.2C831.703 133.692 831.503 133.291 831.18 132.997C830.858 132.703 830.443 132.546 829.934 132.524ZM846.756 130.657L844.749 142.28L842.192 142.28L843.845 132.762L840.687 132.762L839.624 137.617C839.245 139.264 838.69 140.457 837.96 141.194C837.229 141.925 836.295 142.286 835.156 142.279L834.275 142.279L834.511 140.119L834.898 140.087C835.55 140.03 836.08 139.733 836.488 139.196C836.903 138.652 837.222 137.753 837.444 136.5L837.605 135.619L838.635 130.656L846.756 130.657ZM851.655 134.353L853.954 134.364C855.214 134.393 856.214 134.755 856.951 135.449C857.696 136.144 858.036 137.068 857.972 138.221C857.893 139.431 857.389 140.412 856.458 141.164C855.527 141.909 854.335 142.281 852.881 142.281L847.735 142.28L849.753 130.657L852.299 130.658L851.655 134.353ZM851.301 136.448L850.646 140.197L852.966 140.208C853.625 140.193 854.177 140.018 854.621 139.681C855.065 139.345 855.333 138.88 855.426 138.285C855.505 137.734 855.405 137.3 855.125 136.985C854.853 136.663 854.448 136.487 853.911 136.459L851.301 136.448Z" fill="#1D293F"/>
<path d="M138.176 110.778C138.176 110.778 209.271 209.595 350.674 196.51" stroke="#8C97AC" stroke-width="3" stroke-linecap="round" stroke-linejoin="round" stroke-dasharray="0 11"/>
<path fill-rule="evenodd" clip-rule="evenodd" d="M353.17 204.901L351.186 202.924L356.798 197.331L351.185 191.736L353.169 189.759L359.774 196.342C360.322 196.889 360.322 197.774 359.775 198.32L353.17 204.901Z" fill="#8C97AC"/>
<path d="M514.809 185.756C514.809 185.756 625.433 148.929 734.327 247.397" stroke="#8C97AC" stroke-width="3" stroke-linecap="round" stroke-linejoin="round" stroke-dasharray="0 11"/>
<path fill-rule="evenodd" clip-rule="evenodd" d="M730.895 254.049L730.136 251.249L737.61 249.582L735.462 241.66L738.104 241.071L740.632 250.392C740.842 251.166 740.421 251.924 739.691 252.087L730.895 254.049Z" fill="#8C97AC"/>
</g>
<path d="M25.8057 19.5679L23.9365 19.5679L22.7764 26.271L20.1338 26.271L22.8408 10.6304L25.4834 10.6304L24.3447 17.2046L25.6875 17.2046L31.2949 10.6304L34.7109 10.6304L28.0937 18.2466L32.2832 26.271L29.2754 26.271L25.8057 19.5679ZM33.9805 20.4165C34.1022 19.2778 34.4352 18.243 34.9795 17.312C35.5309 16.381 36.2363 15.6613 37.0957 15.1528C37.9551 14.6444 38.9076 14.4045 39.9531 14.4331C40.9486 14.4474 41.8079 14.7124 42.5312 15.228C43.2546 15.7437 43.7809 16.4491 44.1104 17.3442C44.4469 18.2394 44.5651 19.2349 44.4648 20.3306C44.3503 21.5623 44.0137 22.6509 43.4551 23.5962C42.9036 24.5415 42.1947 25.2684 41.3281 25.7769C40.4687 26.2782 39.5127 26.5145 38.46 26.4858C37.4717 26.4715 36.6159 26.2101 35.8926 25.7017C35.1764 25.186 34.6501 24.4842 34.3135 23.5962C33.9769 22.701 33.8551 21.7163 33.9482 20.6421L33.9805 20.4165ZM36.4834 21.8882C36.5192 22.6401 36.7161 23.2453 37.0742 23.7036C37.4395 24.1548 37.9443 24.3911 38.5889 24.4126C39.4626 24.4341 40.193 24.0975 40.7803 23.4028C41.3747 22.7082 41.7471 21.7593 41.8975 20.5562L41.9619 19.5034C41.9619 18.5868 41.7793 17.867 41.4141 17.3442C41.0488 16.8215 40.5189 16.5457 39.8242 16.5171C38.7357 16.4884 37.8763 17.022 37.2461 18.1177C36.8665 18.7837 36.6266 19.55 36.5264 20.4165C36.4691 21.0181 36.4548 21.5086 36.4834 21.8882ZM50.5342 21.6733L49.1807 21.6733L48.375 26.271L45.8291 26.271L47.8486 14.6479L50.3945 14.6479L49.5889 19.2886L50.5986 19.2886L54.5195 14.6479L57.8496 14.6479L52.6826 20.3413L55.9912 26.271L52.8652 26.271L50.5342 21.6733ZM63.457 20.6743L57.9678 20.6743L58.3437 18.5688L63.833 18.5688L63.457 20.6743ZM77.9482 19.5249L76.1973 19.5249L75.0156 26.271L72.373 26.271L73.5547 19.5249L71.8682 19.5249L66.9805 26.271L63.5215 26.271L69.9668 17.8169L66.7227 10.6304L69.7627 10.6304L72.2656 17.1616L73.9521 17.1616L75.0908 10.6304L77.7334 10.6304L76.5947 17.1616L78.0771 17.1616L82.793 10.6304L86.1553 10.6304L80.2578 18.0532L83.5986 26.271L80.4727 26.271L77.9482 19.5249ZM92.0527 26.271C91.9668 25.9845 91.931 25.6229 91.9453 25.186C90.9857 26.0812 89.9508 26.5145 88.8408 26.4858C87.8311 26.4715 86.9932 26.1493 86.3271 25.519C85.6683 24.8817 85.3604 24.076 85.4033 23.1021C85.4606 21.8774 85.9906 20.9142 86.9932 20.2124C87.9958 19.5106 89.3421 19.1597 91.0322 19.1597L92.6865 19.1812L92.8369 18.3862C92.8799 18.1069 92.8799 17.8455 92.8369 17.6021C92.6937 16.8286 92.1816 16.4312 91.3008 16.4097C90.7565 16.3953 90.2767 16.535 89.8613 16.8286C89.4531 17.1151 89.2025 17.5018 89.1094 17.9888L86.5635 18.0103C86.6136 17.2941 86.8678 16.6675 87.3262 16.1304C87.7845 15.5861 88.3932 15.1636 89.1523 14.8628C89.9115 14.562 90.7135 14.4188 91.5586 14.4331C92.8262 14.4618 93.8145 14.8449 94.5234 15.5825C95.2324 16.313 95.526 17.2619 95.4043 18.4292L94.5127 23.8755L94.4268 24.8423C94.4053 25.2648 94.459 25.6766 94.5879 26.0776L94.5771 26.271L92.0527 26.271ZM89.4316 24.4019C89.9687 24.4162 90.4665 24.2944 90.9248 24.0366C91.3831 23.7716 91.7734 23.4315 92.0957 23.0161L92.4932 20.814L91.2793 20.8032C90.3197 20.8032 89.5534 20.9858 88.9805 21.3511C88.4076 21.7091 88.0817 22.2033 88.0029 22.8335C87.9456 23.3133 88.0495 23.6929 88.3145 23.9722C88.5866 24.2443 88.959 24.3875 89.4316 24.4019ZM105.792 14.6479L108.413 14.6479L106.394 26.271L103.848 26.271L105.18 18.687L99.5293 26.271L96.9082 26.271L98.9277 14.6479L101.474 14.6479L100.142 22.2319L105.792 14.6479ZM107.726 10.1792C107.654 11.1317 107.285 11.8836 106.619 12.4351C105.953 12.9865 105.137 13.2479 104.17 13.2192C103.225 13.2049 102.465 12.9256 101.893 12.3813C101.327 11.8299 101.044 11.0959 101.044 10.1792L102.935 10.1899C102.899 11.1925 103.311 11.6938 104.17 11.6938C104.65 11.6938 105.026 11.5542 105.298 11.2749C105.57 10.9956 105.749 10.6375 105.835 10.2007L107.726 10.1792ZM120.799 14.6479L118.79 26.271L116.233 26.271L117.888 16.7534L114.729 16.7534L113.666 21.6089C113.286 23.256 112.731 24.4484 112.001 25.186C111.271 25.9165 110.336 26.2782 109.197 26.271L108.316 26.271L108.553 24.1118L108.939 24.0796C109.591 24.0223 110.121 23.7251 110.529 23.188C110.945 22.6437 111.263 21.745 111.485 20.4917L111.646 19.6108L112.678 14.6479L120.799 14.6479ZM128.49 26.271C128.404 25.9845 128.368 25.6229 128.383 25.186C127.423 26.0812 126.388 26.5145 125.278 26.4858C124.269 26.4715 123.431 26.1493 122.765 25.519C122.106 24.8817 121.798 24.076 121.841 23.1021C121.898 21.8774 122.428 20.9142 123.431 20.2124C124.433 19.5106 125.78 19.1597 127.47 19.1597L129.124 19.1812L129.274 18.3862C129.317 18.1069 129.317 17.8455 129.274 17.6021C129.131 16.8286 128.619 16.4312 127.738 16.4097C127.194 16.3953 126.714 16.535 126.299 16.8286C125.891 17.1151 125.64 17.5018 125.547 17.9888L123.001 18.0103C123.051 17.2941 123.305 16.6675 123.764 16.1304C124.222 15.5861 124.831 15.1636 125.59 14.8628C126.349 14.562 127.151 14.4188 127.996 14.4331C129.264 14.4618 130.252 14.8449 130.961 15.5825C131.67 16.313 131.964 17.2619 131.842 18.4292L130.95 23.8755L130.864 24.8423C130.843 25.2648 130.896 25.6766 131.025 26.0776L131.015 26.271L128.49 26.271ZM125.869 24.4019C126.406 24.4162 126.904 24.2944 127.362 24.0366C127.821 23.7716 128.211 23.4315 128.533 23.0161L128.931 20.814L127.717 20.8032C126.757 20.8032 125.991 20.9858 125.418 21.3511C124.845 21.7091 124.519 22.2033 124.44 22.8335C124.383 23.3133 124.487 23.6929 124.752 23.9722C125.024 24.2443 125.396 24.3875 125.869 24.4019ZM137.632 22.5112L141.284 14.6479L144.099 14.6479L137.213 28.2798C136.253 30.1131 134.989 31.019 133.421 30.9976C133.034 30.9832 132.594 30.9116 132.1 30.7827L132.314 28.7632L132.776 28.8062C133.392 28.8276 133.901 28.7095 134.302 28.4517C134.703 28.201 135.039 27.8071 135.312 27.27L135.924 26.0669L133.979 14.6479L136.622 14.6479L137.632 22.5112Z" fill="#1D293F"/>
<defs>
<clipPath id="clip0">
<rect width="868.861" height="281.636" fill="white" transform="translate(1 54.4224) rotate(-0.0856672)"/>
</clipPath>
</defs>
</svg>
