<svg width="102" height="635" viewBox="0 0 102 635" fill="none" xmlns="http://www.w3.org/2000/svg">
<g clip-path="url(#clip0)">
<line x1="53.5" y1="145.5" x2="53.5" y2="206.5" stroke="#8C97AC" stroke-width="3" stroke-linecap="round" stroke-dasharray="0 11"/>
<path fill-rule="evenodd" clip-rule="evenodd" d="M46.0009 202.889L47.9785 201.001L53.5714 206.339L59.1657 201L61.1428 202.887L54.5597 209.169C54.0136 209.69 53.1284 209.69 52.5824 209.169L46.0009 202.889Z" fill="#8C97AC"/>
<line x1="53.5" y1="401.5" x2="53.5" y2="462.5" stroke="#8C97AC" stroke-width="3" stroke-linecap="round" stroke-dasharray="0 11"/>
<path fill-rule="evenodd" clip-rule="evenodd" d="M46.0009 458.889L47.9785 457.001L53.5714 462.339L59.1657 457L61.1428 458.887L54.5597 465.169C54.0136 465.69 53.1284 465.69 52.5824 465.169L46.0009 458.889Z" fill="#8C97AC"/>
<path d="M21.0566 510.517L19.5273 510.517L18.5787 516.001L16.4166 516.001L18.6299 503.204L20.792 503.205L19.861 508.583L20.9596 508.584L25.5469 503.205L28.3418 503.206L22.9285 509.436L26.357 516.002L23.8961 516.002L21.0566 510.517ZM30.8654 512.927L33.853 506.493L36.1557 506.494L30.5232 517.646C29.7382 519.146 28.7041 519.887 27.4209 519.869C27.1045 519.858 26.7442 519.799 26.3399 519.694L26.5155 518.041L26.8934 518.076C27.3973 518.094 27.8133 517.997 28.1414 517.787C28.4695 517.582 28.7449 517.259 28.9675 516.82L29.4683 515.836L27.8764 506.493L30.0385 506.493L30.8654 512.927ZM41.6321 513.358L45.5424 506.495L48.1967 506.495L46.5455 516.005L44.4625 516.004L45.534 509.87L41.984 516.004L40.5601 516.004L39.1004 509.588L37.9761 516.004L35.8931 516.003L37.5444 506.494L40.1196 506.494L41.6321 513.358ZM54.7007 507.023C55.7905 507.047 56.6372 507.463 57.2409 508.271C57.8503 509.08 58.1024 510.114 57.9971 511.374C57.8683 512.821 57.3587 513.993 56.4682 514.889C55.5835 515.786 54.485 516.222 53.1725 516.199C52.358 516.175 51.6578 515.955 51.0718 515.539C50.4917 515.123 50.0668 514.552 49.7972 513.825C49.5334 513.093 49.4484 512.287 49.542 511.408L49.5596 511.224L49.5596 511.197L49.6474 510.538C49.9343 508.569 50.5024 507.002 51.3519 505.836C52.2072 504.67 53.3116 503.941 54.6651 503.648L55.4913 503.49C56.3526 503.32 56.8447 502.936 56.9677 502.339L58.664 502.339C58.6172 502.925 58.4737 503.405 58.2335 503.78C57.9933 504.155 57.6476 504.466 57.1965 504.712C56.7454 504.952 56.0833 505.157 55.2102 505.327C54.3431 505.491 53.6283 505.813 53.0658 506.293C52.5092 506.774 52.0406 507.456 51.6598 508.341C52.5855 507.451 53.5991 507.011 54.7007 507.023ZM54.1735 508.728C53.7106 508.716 53.2946 508.825 52.9255 509.053C52.5623 509.276 52.2664 509.592 52.0379 510.002C51.8153 510.412 51.6718 510.884 51.6074 511.417C51.5665 511.851 51.5577 512.238 51.5812 512.577C51.6223 513.163 51.7864 513.626 52.0736 513.966C52.3607 514.3 52.7621 514.476 53.2777 514.494C53.9633 514.511 54.5404 514.262 55.0091 513.747C55.4778 513.231 55.7736 512.505 55.8965 511.567L55.9141 511.383C55.9902 510.568 55.8758 509.926 55.5711 509.458C55.2722 508.989 54.8063 508.746 54.1735 508.728ZM63.1568 516.182C62.3307 516.165 61.6129 515.956 61.0034 515.558C60.3999 515.159 59.9516 514.614 59.6585 513.923C59.3713 513.232 59.2628 512.461 59.3331 511.611L59.3594 511.251C59.4647 510.284 59.7459 509.417 60.2028 508.65C60.6656 507.876 61.2398 507.29 61.9253 506.892C62.6108 506.494 63.3549 506.303 64.1576 506.321C65.3471 506.345 66.2378 506.787 66.8297 507.648C67.4274 508.51 67.6531 509.632 67.5068 511.015L67.3839 511.929L61.3985 511.928C61.3459 512.684 61.4983 513.293 61.8558 513.756C62.2132 514.219 62.7055 514.457 63.3324 514.468C64.2289 514.498 65.055 514.108 65.8108 513.3L66.8656 514.407C66.4672 514.976 65.9429 515.418 65.2925 515.734C64.6422 516.045 63.9303 516.194 63.1568 516.182ZM64.0436 508.026C62.942 507.991 62.1159 508.77 61.5653 510.364L65.5116 510.373L65.5467 510.188C65.5877 509.919 65.5906 509.655 65.5554 509.397C65.4909 508.981 65.3268 508.653 65.0631 508.413C64.7994 508.173 64.4596 508.044 64.0436 508.026ZM77.8071 506.498L76.1646 516.008L74.0728 516.008L75.4254 508.221L72.8414 508.22L71.9718 512.193C71.6614 513.541 71.2074 514.516 70.6098 515.12C70.0122 515.717 69.2476 516.013 68.316 516.007L67.5953 516.007L67.7884 514.24L68.1048 514.214C68.638 514.167 69.0716 513.924 69.4055 513.485C69.7453 513.039 70.006 512.304 70.1875 511.279L70.3193 510.558L71.1625 506.498L77.8071 506.498ZM81.8152 509.522L83.6961 509.531C84.7273 509.555 85.5448 509.851 86.1483 510.419C86.7578 510.988 87.0362 511.744 86.9836 512.687C86.9192 513.677 86.5062 514.48 85.7446 515.095C84.9829 515.704 84.0074 516.009 82.8179 516.009L78.608 516.008L80.2592 506.499L82.3422 506.499L81.8152 509.522ZM81.5254 511.236L80.9896 514.303L82.8881 514.312C83.4271 514.301 83.8783 514.157 84.2415 513.882C84.6048 513.607 84.8245 513.226 84.9006 512.739C84.965 512.288 84.8829 511.934 84.6543 511.676C84.4317 511.412 84.1006 511.269 83.6611 511.245L81.5254 511.236Z" fill="#1D293F"/>
<g opacity="0.65">
<path d="M50.7966 538.025C60.0735 538.014 67.606 545.157 67.6217 553.981C67.6337 560.731 62.6594 568.095 52.8283 576.149C52.2817 576.597 51.5841 576.844 50.8624 576.844C50.1407 576.844 49.4427 576.598 48.8953 576.151L48.2432 575.614C38.8197 567.793 34.0401 560.622 34.0284 554.022C34.0127 545.199 41.5197 538.037 50.7966 538.025ZM50.801 540.483C47.0316 540.488 43.4191 541.917 40.7583 544.455C38.0974 546.994 36.6061 550.434 36.6125 554.019C36.6227 559.757 41.024 566.364 49.9368 573.759L50.5803 574.287C50.6585 574.351 50.7582 574.386 50.8613 574.386C50.9643 574.386 51.0639 574.351 51.1419 574.287C60.4587 566.652 65.048 559.858 65.0376 553.984C65.0344 552.208 64.6637 550.451 63.9465 548.812C63.2293 547.173 62.1798 545.684 60.8578 544.43C59.5358 543.176 57.9673 542.183 56.2417 541.505C54.5162 540.828 52.6674 540.481 50.801 540.483ZM50.8141 547.857C52.5275 547.855 54.1718 548.5 55.3854 549.651C56.599 550.802 57.2824 552.364 57.2853 553.993C57.2882 555.623 56.6103 557.187 55.4008 558.341C54.1914 559.494 52.5493 560.144 50.836 560.146C49.1226 560.148 47.4782 559.503 46.2647 558.352C45.0511 557.201 44.3677 555.639 44.3648 554.009C44.3619 552.38 45.0397 550.816 46.2492 549.662C47.4587 548.508 49.1007 547.859 50.8141 547.857ZM50.8185 550.315C49.7905 550.316 48.8052 550.706 48.0795 551.398C47.3539 552.09 46.9471 553.028 46.9489 554.006C46.9506 554.984 47.3607 555.921 48.0888 556.612C48.817 557.302 49.8036 557.689 50.8316 557.688C51.8596 557.687 52.8448 557.297 53.5705 556.605C54.2962 555.913 54.7029 554.974 54.7012 553.997C54.6994 553.019 54.2894 552.082 53.5612 551.391C52.8331 550.701 51.8465 550.313 50.8185 550.315Z" fill="#FF3D00"/>
</g>
<path d="M91.8949 616.186L80.9148 616.185L73.0724 607.996C72.326 607.216 71.0714 607.121 70.2052 607.779L65.3411 611.471L52.5059 592.196C52.1203 591.617 51.4496 591.266 50.7289 591.266C50.0083 591.266 49.3377 591.617 48.9522 592.196L37.9965 608.651L33.8874 602.934C33.4954 602.389 32.8455 602.063 32.1508 602.063C31.4561 602.063 30.8065 602.389 30.4145 602.934L20.8967 616.178L13.106 616.177C11.9444 616.177 11.0031 617.072 11.0032 618.176C11.0033 619.281 11.9449 620.176 13.1065 620.176L18.0227 620.177L16.3494 622.505C15.6941 623.417 15.9405 624.661 16.8996 625.284C17.2625 625.52 17.6757 625.633 18.0844 625.633C18.7557 625.633 19.4153 625.328 19.8226 624.762L20.6333 623.634L32.1517 607.607L35.5473 612.331L28.0216 623.635L22.5798 631.808C21.9586 632.741 22.2506 633.977 23.2321 634.568C23.5812 634.778 23.9703 634.878 24.3552 634.878C25.0517 634.878 25.7336 634.549 26.1338 633.948L27.133 632.447L50.7298 597.004L69.9073 625.803L70.3862 626.522C71.0074 627.455 72.3067 627.733 73.288 627.143C74.1811 626.605 74.5006 625.534 74.0827 624.642C74.0413 624.554 73.9955 624.467 73.9397 624.384L67.6051 614.871L71.29 612.074L83.9211 625.263L85.3932 626.801C85.8083 627.234 86.3775 627.454 86.9489 627.454C87.4543 627.454 87.9611 627.282 88.3642 626.933C89.2228 626.19 89.2851 624.925 88.5031 624.109L84.7452 620.185L91.8956 620.185C93.0572 620.185 93.9985 619.29 93.9984 618.186C93.9983 617.082 93.0565 616.186 91.8949 616.186Z" fill="#172EA5"/>
<path d="M21.2332 249.998L17.3661 249.997L15.4601 261.001L13.298 261.001L15.2127 249.997L11.3719 249.996L11.6881 248.203L21.5494 248.205L21.2332 249.998ZM28.942 256.283C28.8249 257.232 28.5701 258.093 28.1777 258.866C27.791 259.64 27.296 260.226 26.6925 260.624C26.0949 261.017 25.424 261.204 24.6799 261.186C23.6896 261.163 22.9103 260.811 22.3419 260.131L21.4899 264.658L19.3981 264.657L21.6817 251.492L23.5889 251.483L23.4308 252.467C24.1573 251.677 25.0215 251.293 26.0234 251.316C26.627 251.322 27.1514 251.478 27.5967 251.782C28.0421 252.081 28.382 252.518 28.6164 253.092C28.8567 253.666 28.9857 254.305 29.0034 255.008C29.0093 255.366 28.9888 255.79 28.942 256.283ZM26.8853 256.098L26.9292 255.456C26.9467 254.7 26.8206 254.114 26.5511 253.698C26.2873 253.282 25.8889 253.068 25.3557 253.057C24.5705 253.033 23.8909 253.393 23.3167 254.137L22.579 258.382C22.8427 259.091 23.3789 259.458 24.1875 259.481C24.8789 259.499 25.4589 259.229 25.9276 258.673C26.4022 258.116 26.7214 257.258 26.8853 256.098ZM37.2998 251.494L39.4444 251.494L37.7931 261.003L35.7101 261.003L36.7992 254.798L32.1769 261.003L30.0324 261.002L31.6836 251.493L33.7666 251.493L32.6775 257.698L37.2998 251.494ZM50.2725 252.022C51.3624 252.046 52.2091 252.462 52.8127 253.271C53.4222 254.079 53.6743 255.114 53.569 256.373C53.4402 257.821 52.9306 258.992 52.0401 259.889C51.1554 260.785 50.0568 261.222 48.7443 261.198C47.9299 261.174 47.2297 260.955 46.6437 260.539C46.0635 260.122 45.6387 259.551 45.3691 258.825C45.1053 258.092 45.0202 257.286 45.1139 256.407L45.1314 256.223L45.1314 256.197L45.2193 255.537C45.5061 253.569 46.0743 252.001 46.9238 250.835C47.7791 249.67 48.8835 248.94 50.237 248.647L51.0631 248.489C51.9245 248.319 52.4166 247.936 52.5396 247.338L54.2359 247.338C54.1891 247.924 54.0456 248.405 53.8054 248.78C53.5652 249.155 53.2195 249.465 52.7684 249.711C52.3172 249.951 51.6551 250.156 50.7821 250.326C49.9149 250.49 49.2001 250.812 48.6377 251.293C48.0811 251.773 47.6124 252.456 47.2317 253.34C48.1574 252.45 49.171 252.01 50.2725 252.022ZM49.7454 253.727C49.2825 253.716 48.8665 253.824 48.4974 254.052C48.1341 254.275 47.8383 254.591 47.6098 255.002C47.3872 255.412 47.2437 255.883 47.1793 256.417C47.1384 256.85 47.1296 257.237 47.1531 257.577C47.1942 258.163 47.3583 258.626 47.6454 258.965C47.9326 259.299 48.334 259.475 48.8496 259.493C49.5351 259.511 50.1123 259.262 50.581 258.746C51.0496 258.23 51.3455 257.504 51.4684 256.566L51.486 256.382C51.562 255.567 51.4477 254.926 51.143 254.457C50.8441 253.988 50.3782 253.745 49.7454 253.727ZM63.1666 256.287C63.0495 257.236 62.7947 258.097 62.4023 258.87C62.0156 259.644 61.5206 260.23 60.9171 260.628C60.3195 261.021 59.6486 261.208 58.9045 261.19C57.9143 261.167 57.1349 260.815 56.5665 260.135L55.7145 264.662L53.6227 264.661L55.9063 251.496L57.8135 251.487L57.6554 252.471C58.3819 251.681 59.2461 251.297 60.248 251.32C60.8516 251.326 61.376 251.482 61.8213 251.786C62.2667 252.085 62.6066 252.522 62.841 253.096C63.0813 253.67 63.2103 254.309 63.228 255.012C63.2339 255.37 63.2134 255.794 63.1666 256.287ZM61.1099 256.102L61.1538 255.46C61.1713 254.704 61.0453 254.118 60.7757 253.702C60.512 253.286 60.1135 253.072 59.5803 253.061C58.7951 253.037 58.1155 253.397 57.5414 254.141L56.8036 258.386C57.0673 259.095 57.6035 259.462 58.4121 259.485C59.1035 259.503 59.6836 259.233 60.1522 258.677C60.6268 258.12 60.946 257.262 61.1099 256.102ZM69.8293 261.007C69.7589 260.773 69.7296 260.477 69.7413 260.119C68.9562 260.852 68.1096 261.206 67.2014 261.182C66.3752 261.171 65.6896 260.907 65.1446 260.391C64.6055 259.87 64.3535 259.21 64.3885 258.414C64.4353 257.412 64.8688 256.624 65.689 256.05C66.5093 255.475 67.6108 255.188 68.9936 255.189L70.3471 255.206L70.4701 254.556C70.5052 254.327 70.5052 254.114 70.47 253.914C70.3528 253.281 69.9338 252.956 69.2131 252.939C68.7678 252.927 68.3752 253.041 68.0354 253.281C67.7014 253.516 67.4964 253.832 67.4203 254.23L65.3373 254.248C65.3782 253.662 65.5862 253.149 65.9611 252.71C66.3361 252.264 66.8341 251.919 67.4551 251.673C68.0762 251.427 68.7324 251.31 69.4238 251.321C70.4609 251.345 71.2696 251.659 71.8497 252.262C72.4299 252.86 72.6702 253.636 72.5707 254.591L71.8417 259.047L71.7715 259.838C71.754 260.184 71.798 260.521 71.9035 260.849L71.8947 261.007L69.8293 261.007ZM67.6846 259.477C68.124 259.489 68.5312 259.39 68.9062 259.179C69.2812 258.962 69.6005 258.684 69.8641 258.344L70.1891 256.542L69.1959 256.533C68.4108 256.533 67.7838 256.683 67.3151 256.981C66.8464 257.274 66.5799 257.679 66.5155 258.194C66.4686 258.587 66.5536 258.897 66.7705 259.126C66.9931 259.348 67.2978 259.466 67.6846 259.477ZM82.2121 253.195L79.2239 253.195L77.8625 261.008L75.7795 261.008L77.1321 253.194L74.1701 253.194L74.4688 251.498L82.5108 251.499L82.2121 253.195ZM87.8293 261.009C87.7589 260.775 87.7296 260.479 87.7413 260.121C86.9562 260.854 86.1096 261.208 85.2014 261.185C84.3752 261.173 83.6896 260.909 83.1446 260.393C82.6055 259.872 82.3535 259.213 82.3885 258.416C82.4353 257.414 82.8688 256.626 83.689 256.052C84.5093 255.477 85.6108 255.19 86.9936 255.191L88.3471 255.208L88.4701 254.558C88.5052 254.329 88.5052 254.116 88.47 253.916C88.3528 253.284 87.9338 252.958 87.2131 252.941C86.7678 252.929 86.3752 253.043 86.0354 253.283C85.7014 253.518 85.4964 253.834 85.4203 254.232L83.3373 254.25C83.3782 253.664 83.5862 253.151 83.9611 252.712C84.336 252.266 84.8341 251.921 85.4551 251.675C86.0762 251.429 86.7324 251.312 87.4238 251.323C88.4609 251.347 89.2696 251.661 89.8497 252.264C90.4299 252.862 90.6702 253.638 90.5707 254.593L89.8417 259.049L89.7715 259.84C89.754 260.186 89.798 260.523 89.9035 260.851L89.8947 261.009L87.8293 261.009ZM85.6846 259.48C86.124 259.491 86.5312 259.392 86.9062 259.181C87.2812 258.964 87.6005 258.686 87.8641 258.346L88.1891 256.544L87.1959 256.535C86.4108 256.535 85.7838 256.685 85.3151 256.983C84.8464 257.276 84.5799 257.681 84.5155 258.196C84.4686 258.589 84.5536 258.899 84.7705 259.128C84.9931 259.351 85.2978 259.468 85.6846 259.48Z" fill="#1D293F"/>
<g opacity="0.65">
<path d="M27.7966 283.452C37.0735 283.441 44.606 290.584 44.6217 299.407C44.6337 306.158 39.6594 313.522 29.8283 321.576C29.2817 322.024 28.5841 322.27 27.8624 322.271C27.1407 322.271 26.4427 322.025 25.8953 321.577L25.2432 321.041C15.8197 313.22 11.0401 306.049 11.0284 299.449C11.0127 290.625 18.5197 283.464 27.7966 283.452ZM27.801 285.91C24.0316 285.915 20.4191 287.343 17.7583 289.882C15.0974 292.42 13.6061 295.86 13.6125 299.446C13.6227 305.184 18.024 311.79 26.9368 319.185L27.5803 319.714C27.6585 319.778 27.7582 319.813 27.8613 319.813C27.9643 319.813 28.0639 319.777 28.1419 319.713C37.4587 312.079 42.048 305.285 42.0376 299.41C42.0344 297.635 41.6637 295.878 40.9465 294.239C40.2293 292.599 39.1798 291.11 37.8578 289.857C36.5358 288.603 34.9673 287.609 33.2417 286.932C31.5162 286.255 29.6674 285.908 27.801 285.91ZM27.8141 293.283C29.5275 293.281 31.1718 293.927 32.3854 295.078C33.599 296.228 34.2824 297.79 34.2853 299.42C34.2882 301.05 33.6103 302.613 32.4008 303.767C31.1914 304.921 29.5493 305.571 27.836 305.573C26.1226 305.575 24.4782 304.93 23.2647 303.779C22.0511 302.628 21.3677 301.066 21.3648 299.436C21.3619 297.806 22.0397 296.243 23.2492 295.089C24.4587 293.935 26.1007 293.286 27.8141 293.283ZM27.8185 295.741C26.7905 295.743 25.8052 296.132 25.0795 296.825C24.3539 297.517 23.9471 298.455 23.9489 299.433C23.9506 300.411 24.3607 301.348 25.0888 302.038C25.817 302.729 26.8036 303.116 27.8316 303.115C28.8596 303.114 29.8448 302.724 30.5705 302.032C31.2962 301.339 31.7029 300.401 31.7012 299.423C31.6994 298.445 31.2894 297.508 30.5612 296.818C29.8331 296.127 28.8465 295.74 27.8185 295.741Z" fill="#FF3D00"/>
</g>
<path d="M94.8949 349.253L83.9148 349.252L76.0724 341.063C75.326 340.283 74.0714 340.188 73.2052 340.846L68.3411 344.538L55.5059 325.263C55.1203 324.684 54.4496 324.333 53.7289 324.333C53.0083 324.333 52.3377 324.684 51.9522 325.263L40.9965 341.718L36.8874 336.001C36.4954 335.456 35.8455 335.13 35.1508 335.13C34.4561 335.13 33.8065 335.456 33.4145 336.001L23.8967 349.245L16.106 349.244C14.9444 349.244 14.0031 350.139 14.0032 351.243C14.0033 352.348 14.9449 353.243 16.1065 353.243L21.0227 353.244L19.3494 355.572C18.6941 356.484 18.9405 357.728 19.8996 358.351C20.2625 358.587 20.6757 358.7 21.0844 358.7C21.7557 358.7 22.4153 358.395 22.8226 357.829L23.6333 356.701L35.1517 340.674L38.5473 345.398L31.0216 356.702L25.5798 364.875C24.9586 365.809 25.2506 367.044 26.2321 367.635C26.5812 367.845 26.9703 367.945 27.3552 367.945C28.0517 367.945 28.7336 367.616 29.1338 367.015L30.133 365.514L53.7298 330.071L72.9073 358.87L73.3862 359.589C74.0074 360.522 75.3067 360.8 76.288 360.21C77.1811 359.672 77.5006 358.601 77.0827 357.709C77.0413 357.621 76.9955 357.534 76.9397 357.451L70.6051 347.938L74.29 345.141L86.9211 358.33L88.3932 359.868C88.8083 360.301 89.3775 360.521 89.9489 360.521C90.4543 360.521 90.9611 360.349 91.3642 360C92.2228 359.257 92.2851 357.992 91.5031 357.176L87.7452 353.252L94.8956 353.252C96.0572 353.252 96.9985 352.357 96.9984 351.253C96.9983 350.149 96.0565 349.253 94.8949 349.253Z" fill="#172EA5"/>
<g opacity="0.65">
<path d="M71.0457 35.9613C78.7326 35.9518 84.9741 41.8706 84.9871 49.1819C84.997 54.7758 80.8753 60.8771 72.7292 67.551C72.2762 67.9222 71.6982 68.1265 71.1002 68.1267C70.5022 68.127 69.9239 67.9232 69.4703 67.5523L68.9299 67.1077C61.1216 60.6274 57.1612 54.6854 57.1515 49.2165C57.1385 41.9051 63.3588 35.9709 71.0457 35.9613ZM71.0494 37.9979C67.926 38.0018 64.9327 39.1857 62.7279 41.2891C60.5231 43.3925 59.2874 46.2431 59.2927 49.2138C59.3011 53.9686 62.948 59.4425 70.3332 65.5703L70.8665 66.0082C70.9313 66.0611 71.0139 66.0901 71.0993 66.09C71.1847 66.0899 71.2672 66.0607 71.3318 66.0076C79.0518 59.6819 82.8545 54.0521 82.8459 49.1846C82.8432 47.7136 82.536 46.2574 81.9418 44.8992C81.3476 43.5409 80.4779 42.3072 79.3825 41.2684C78.2871 40.2296 76.9874 39.4061 75.5576 38.845C74.1278 38.2839 72.5959 37.996 71.0494 37.9979ZM71.0602 44.1077C72.4799 44.106 73.8424 44.6407 74.848 45.5943C75.8536 46.5479 76.4199 47.8422 76.4223 49.1926C76.4247 50.5429 75.863 51.8387 74.8608 52.7947C73.8586 53.7508 72.498 54.2889 71.0783 54.2907C69.6586 54.2925 68.2961 53.7577 67.2905 52.8041C66.2849 51.8506 65.7187 50.5562 65.7163 49.2059C65.7139 47.8555 66.2755 46.5598 67.2777 45.6037C68.2799 44.6476 69.6405 44.1095 71.0602 44.1077ZM71.0638 46.1443C70.212 46.1454 69.3956 46.4683 68.7943 47.0419C68.193 47.6156 67.856 48.393 67.8575 49.2032C67.8589 50.0134 68.1987 50.79 68.802 51.3622C69.4054 51.9343 70.2229 52.2552 71.0747 52.2541C71.9265 52.2531 72.7429 51.9302 73.3442 51.3565C73.9455 50.7829 74.2825 50.0054 74.2811 49.1952C74.2796 48.385 73.9399 47.6084 73.3365 47.0363C72.7332 46.4641 71.9157 46.1433 71.0638 46.1443Z" fill="#FF3D00"/>
</g>
<path d="M89.0228 93.2036L78.0427 93.2023L70.2004 85.0132C69.4539 84.2337 68.1993 84.1389 67.3332 84.7962L62.469 88.4883L49.6338 69.2134C49.2482 68.6344 48.5775 68.2832 47.8569 68.2832C47.1362 68.2831 46.4656 68.634 46.0801 69.213L35.1244 85.6688L31.0153 79.9518C30.6234 79.4066 29.9735 79.0803 29.2788 79.0803C28.5841 79.0802 27.9345 79.4063 27.5424 79.9514L18.0246 93.1953L10.2339 93.1944C9.07235 93.1943 8.13098 94.0894 8.13111 95.1938C8.13124 96.2983 9.07282 97.1935 10.2344 97.1937L15.1507 97.1942L13.4774 99.5223C12.822 100.434 13.0685 101.678 14.0275 102.302C14.3905 102.538 14.8036 102.65 15.2123 102.651C15.8836 102.651 16.5433 102.346 16.9505 101.779L17.7612 100.651L29.2797 84.6241L32.6753 89.3482L25.1495 100.652L19.7077 108.826C19.0865 109.759 19.3785 110.994 20.36 111.585C20.7091 111.795 21.0982 111.895 21.4831 111.895C22.1797 111.895 22.8615 111.566 23.2617 110.965L24.2609 109.464L47.8578 74.0214L67.0353 102.821L67.5141 103.54C68.1354 104.473 69.4346 104.75 70.416 104.16C71.309 103.622 71.6285 102.552 71.2106 101.66C71.1693 101.572 71.1235 101.485 71.0676 101.401L64.733 91.8881L68.4179 89.0911L81.0491 102.281L82.5212 103.818C82.9362 104.252 83.5055 104.472 84.0768 104.472C84.5822 104.472 85.089 104.3 85.4921 103.951C86.3508 103.207 86.413 101.943 85.631 101.126L81.8731 97.202L89.0235 97.2028C90.1851 97.2029 91.1265 96.3079 91.1263 95.2034C91.1262 94.099 90.1844 93.2037 89.0228 93.2036Z" fill="#172EA5"/>
<path d="M5.04492 12.5156L3.51562 12.5156L2.56641 18L0.404297 18L2.61914 5.20312L4.78125 5.20312L3.84961 10.582L4.94824 10.582L9.53613 5.20312L12.3311 5.20312L6.91699 11.4346L10.3447 18L7.88379 18L5.04492 12.5156ZM11.7334 13.21C11.833 12.2783 12.1055 11.4316 12.5508 10.6699C13.002 9.9082 13.5791 9.31934 14.2822 8.90332C14.9854 8.4873 15.7646 8.29102 16.6201 8.31445C17.4346 8.32617 18.1377 8.54297 18.7295 8.96484C19.3213 9.38672 19.752 9.96387 20.0215 10.6963C20.2969 11.4287 20.3936 12.2432 20.3115 13.1396C20.2178 14.1475 19.9424 15.0381 19.4854 15.8115C19.0342 16.585 18.4541 17.1797 17.7451 17.5957C17.042 18.0059 16.2598 18.1992 15.3984 18.1758C14.5898 18.1641 13.8896 17.9502 13.2979 17.5342C12.7119 17.1123 12.2812 16.5381 12.0059 15.8115C11.7305 15.0791 11.6309 14.2734 11.707 13.3945L11.7334 13.21ZM13.7812 14.4141C13.8105 15.0293 13.9717 15.5244 14.2646 15.8994C14.5635 16.2686 14.9766 16.4619 15.5039 16.4795C16.2187 16.4971 16.8164 16.2217 17.2969 15.6533C17.7832 15.085 18.0879 14.3086 18.2109 13.3242L18.2637 12.4629C18.2637 11.7129 18.1143 11.124 17.8154 10.6963C17.5166 10.2686 17.083 10.043 16.5146 10.0195C15.624 9.99609 14.9209 10.4326 14.4053 11.3291C14.0947 11.874 13.8984 12.501 13.8164 13.21C13.7695 13.7021 13.7578 14.1035 13.7812 14.4141ZM25.2773 14.2383L24.1699 14.2383L23.5107 18L21.4277 18L23.0801 8.49023L25.1631 8.49023L24.5039 12.2871L25.3301 12.2871L28.5381 8.49023L31.2627 8.49023L27.0352 13.1484L29.7422 18L27.1846 18L25.2773 14.2383ZM35.8506 13.4209L31.3594 13.4209L31.667 11.6982L36.1582 11.6982L35.8506 13.4209ZM47.707 12.4805L46.2744 12.4805L45.3076 18L43.1455 18L44.1123 12.4805L42.7324 12.4805L38.7334 18L35.9033 18L41.1768 11.083L38.5225 5.20312L41.0098 5.20312L43.0576 10.5469L44.4375 10.5469L45.3691 5.20312L47.5312 5.20312L46.5996 10.5469L47.8125 10.5469L51.6709 5.20312L54.4219 5.20312L49.5967 11.2764L52.3301 18L49.7725 18L47.707 12.4805ZM59.2471 18C59.1768 17.7656 59.1475 17.4697 59.1592 17.1123C58.374 17.8447 57.5273 18.1992 56.6191 18.1758C55.793 18.1641 55.1074 17.9004 54.5625 17.3848C54.0234 16.8633 53.7715 16.2041 53.8066 15.4072C53.8535 14.4053 54.2871 13.6172 55.1074 13.043C55.9277 12.4687 57.0293 12.1816 58.4121 12.1816L59.7656 12.1992L59.8887 11.5488C59.9238 11.3203 59.9238 11.1064 59.8887 10.9072C59.7715 10.2744 59.3525 9.94922 58.6318 9.93164C58.1865 9.91992 57.7939 10.0342 57.4541 10.2744C57.1201 10.5088 56.915 10.8252 56.8389 11.2236L54.7559 11.2412C54.7969 10.6553 55.0049 10.1426 55.3799 9.70312C55.7549 9.25781 56.2529 8.91211 56.874 8.66602C57.4951 8.41992 58.1514 8.30273 58.8428 8.31445C59.8799 8.33789 60.6885 8.65137 61.2686 9.25488C61.8486 9.85254 62.0889 10.6289 61.9893 11.584L61.2598 16.04L61.1895 16.8311C61.1719 17.1768 61.2158 17.5137 61.3213 17.8418L61.3125 18L59.2471 18ZM57.1025 16.4707C57.542 16.4824 57.9492 16.3828 58.3242 16.1719C58.6992 15.9551 59.0186 15.6768 59.2822 15.3369L59.6074 13.5352L58.6143 13.5264C57.8291 13.5264 57.2021 13.6758 56.7334 13.9746C56.2646 14.2676 55.998 14.6719 55.9336 15.1875C55.8867 15.5801 55.9717 15.8906 56.1885 16.1191C56.4111 16.3418 56.7158 16.459 57.1025 16.4707ZM70.4883 8.49023L72.6328 8.49023L70.9805 18L68.8975 18L69.9873 11.7949L65.3643 18L63.2197 18L64.8721 8.49023L66.9551 8.49023L65.8652 14.6953L70.4883 8.49023ZM72.0703 4.83398C72.0117 5.61328 71.71 6.22852 71.165 6.67969C70.6201 7.13086 69.9521 7.34473 69.1611 7.32129C68.3877 7.30957 67.7666 7.08105 67.2979 6.63574C66.835 6.18457 66.6035 5.58398 66.6035 4.83398L68.1504 4.84277C68.1211 5.66309 68.458 6.07324 69.1611 6.07324C69.5537 6.07324 69.8613 5.95898 70.084 5.73047C70.3066 5.50195 70.4531 5.20898 70.5234 4.85156L72.0703 4.83398ZM82.7666 8.49023L81.123 18L79.0312 18L80.3848 10.2129L77.8008 10.2129L76.9307 14.1855C76.6201 15.5332 76.166 16.5088 75.5684 17.1123C74.9707 17.71 74.2061 18.0059 73.2744 18L72.5537 18L72.7471 16.2334L73.0635 16.207C73.5967 16.1602 74.0303 15.917 74.3643 15.4775C74.7041 15.0322 74.9648 14.2969 75.1465 13.2715L75.2783 12.5508L76.1221 8.49023L82.7666 8.49023ZM89.0596 18C88.9893 17.7656 88.96 17.4697 88.9717 17.1123C88.1865 17.8447 87.3398 18.1992 86.4316 18.1758C85.6055 18.1641 84.9199 17.9004 84.375 17.3848C83.8359 16.8633 83.584 16.2041 83.6191 15.4072C83.666 14.4053 84.0996 13.6172 84.9199 13.043C85.7402 12.4687 86.8418 12.1816 88.2246 12.1816L89.5781 12.1992L89.7012 11.5488C89.7363 11.3203 89.7363 11.1064 89.7012 10.9072C89.584 10.2744 89.165 9.94922 88.4443 9.93164C87.999 9.91992 87.6064 10.0342 87.2666 10.2744C86.9326 10.5088 86.7275 10.8252 86.6514 11.2236L84.5684 11.2412C84.6094 10.6553 84.8174 10.1426 85.1924 9.70312C85.5674 9.25781 86.0654 8.91211 86.6865 8.66602C87.3076 8.41992 87.9639 8.30273 88.6553 8.31445C89.6924 8.33789 90.501 8.65137 91.0811 9.25488C91.6611 9.85254 91.9014 10.6289 91.8018 11.584L91.0723 16.04L91.002 16.8311C90.9844 17.1768 91.0283 17.5137 91.1338 17.8418L91.125 18L89.0596 18ZM86.915 16.4707C87.3545 16.4824 87.7617 16.3828 88.1367 16.1719C88.5117 15.9551 88.8311 15.6768 89.0947 15.3369L89.4199 13.5352L88.4268 13.5264C87.6416 13.5264 87.0146 13.6758 86.5459 13.9746C86.0771 14.2676 85.8105 14.6719 85.7461 15.1875C85.6992 15.5801 85.7842 15.8906 86.001 16.1191C86.2236 16.3418 86.5283 16.459 86.915 16.4707ZM96.5391 14.9238L99.5273 8.49023L101.83 8.49023L96.1963 19.6436C95.4111 21.1436 94.377 21.8848 93.0937 21.8672C92.7773 21.8555 92.417 21.7969 92.0127 21.6914L92.1885 20.0391L92.5664 20.0742C93.0703 20.0918 93.4863 19.9951 93.8145 19.7842C94.1426 19.5791 94.418 19.2568 94.6406 18.8174L95.1416 17.833L93.5508 8.49023L95.7129 8.49023L96.5391 14.9238Z" fill="#1D293F"/>
</g>
<defs>
<clipPath id="clip0">
<rect width="102" height="634.886" fill="white"/>
</clipPath>
</defs>
</svg>
