<svg width="80" height="16" viewBox="0 0 80 16" fill="none" xmlns="http://www.w3.org/2000/svg">
<path d="M7.99967 3.61358L8.95807 6.36525L9.13338 6.86856H9.66634H12.5203L10.3103 8.62811L9.91707 8.9412L10.0572 9.42391L10.8681 12.2179L8.41952 10.5637L7.99967 10.2801L7.57983 10.5637L5.13122 12.2179L5.94217 9.42391L6.08228 8.9412L5.68905 8.62811L3.47909 6.86856H6.33301H6.86597L7.04128 6.36525L7.99967 3.61358Z" fill="white" stroke="white" stroke-width="1.5"/>
<path d="M23.9997 3.61358L24.9581 6.36525L25.1334 6.86856H25.6663H28.5203L26.3103 8.62811L25.9171 8.9412L26.0572 9.42391L26.8681 12.2179L24.4195 10.5637L23.9997 10.2801L23.5798 10.5637L21.1312 12.2179L21.9422 9.42391L22.0823 8.9412L21.6891 8.62811L19.4791 6.86856H22.333H22.866L23.0413 6.36525L23.9997 3.61358Z" fill="white" stroke="white" stroke-width="1.5"/>
<path d="M39.9997 3.61358L40.9581 6.36525L41.1334 6.86856H41.6663H44.5203L42.3103 8.62811L41.9171 8.9412L42.0572 9.42391L42.8681 12.2179L40.4195 10.5637L39.9997 10.2801L39.5798 10.5637L37.1312 12.2179L37.9422 9.42391L38.0823 8.9412L37.6891 8.62811L35.4791 6.86856H38.333H38.866L39.0413 6.36525L39.9997 3.61358Z" fill="white" stroke="white" stroke-width="1.5"/>
<path d="M55.9997 3.61358L56.9581 6.36525L57.1334 6.86856H57.6663H60.5203L58.3103 8.62811L57.9171 8.9412L58.0572 9.42391L58.8681 12.2179L56.4195 10.5637L55.9997 10.2801L55.5798 10.5637L53.1312 12.2179L53.9422 9.42391L54.0823 8.9412L53.6891 8.62811L51.4791 6.86856H54.333H54.866L55.0413 6.36525L55.9997 3.61358Z" fill="white" stroke="white" stroke-width="1.5"/>
<path d="M71.9997 3.61358L72.9581 6.36525L73.1334 6.86856H73.6663H76.5203L74.3103 8.62811L73.9171 8.9412L74.0572 9.42391L74.8681 12.2179L72.4195 10.5637L71.9997 10.2801L71.5798 10.5637L69.1312 12.2179L69.9422 9.42391L70.0823 8.9412L69.6891 8.62811L67.4791 6.86856H70.333H70.866L71.0413 6.36525L71.9997 3.61358Z" fill="white" stroke="white" stroke-width="1.5"/>
</svg>
