<svg width="69" height="68" viewBox="0 0 69 68" fill="none" xmlns="http://www.w3.org/2000/svg">
<path fill-rule="evenodd" clip-rule="evenodd" d="M56.7764 32.1406C60.2645 32.1406 63.1045 29.3014 63.1045 25.8125L56.7764 0.5H11.7758L5.44772 25.8125C5.44772 29.3014 8.28779 32.1406 11.7758 32.1406C13.314 32.1406 14.8083 31.5593 15.9895 30.4928L17.4011 29.2187L18.8127 30.4928C21.1693 32.619 24.8827 32.619 27.2393 30.4928L28.6508 29.2187L30.0633 30.4928C32.4199 32.619 36.1358 32.619 38.4864 30.4928L39.9014 29.2187L41.3155 30.4928C43.6671 32.619 47.3855 32.619 49.7362 30.4928L51.1511 29.2187L52.5661 30.4928C53.7406 31.5593 55.2383 32.1406 56.7764 32.1406ZM59.5886 35.9308V62.3756H68.0261V68H0.526123V62.3756H8.96362V35.9308C9.8639 36.1839 10.7954 36.3594 11.7758 36.3594C13.7696 36.3594 15.7178 35.7823 17.4011 34.7065C20.7685 36.8597 25.2843 36.8597 28.6508 34.7065C32.0182 36.8538 36.534 36.8538 39.9014 34.7065C43.268 36.8597 47.7837 36.8597 51.1511 34.7065C52.8344 35.7823 54.7792 36.3594 56.7764 36.3594C57.7568 36.3594 58.6883 36.1839 59.5886 35.9308ZM17.4011 62.3756H28.6508V45.5006H17.4011V62.3756ZM37.0883 56.7503H51.1511V45.5006H37.0883V56.7503Z" fill="#E93E2C"/>
</svg>
