<svg width="69" height="68" viewBox="0 0 69 68" fill="none" xmlns="http://www.w3.org/2000/svg">
<path fill-rule="evenodd" clip-rule="evenodd" d="M43.6599 0H31.3364V8.4375H46.7406L43.6599 0ZM68.3079 50.625V44.9997H0.526123V50.625H6.68836V61.8747H0.526123V67.5H68.3079V61.8747H62.1457V50.625H68.3079ZM37.4977 50.625H43.6599V61.8747H37.4977V50.625ZM31.3364 61.8747H25.1741V50.625H31.3364V61.8747ZM12.8506 50.625H19.0119V61.8747H12.8506V50.625ZM55.9835 61.8747H49.8222V50.625H55.9835V61.8747ZM34.4171 11.2497C45.2756 11.2497 54.2385 18.5887 55.7367 28.1247H62.1458V33.75H55.9835V39.3753H49.8222V33.75H43.66V39.3753H37.4977V33.75H31.3364V39.3753H25.1742V33.75H19.012V39.3753H12.8507V33.75H6.68842V28.1247H13.0974C14.5957 18.5887 23.5558 11.2497 34.4171 11.2497Z" fill="#5DB0D1"/>
</svg>
