<svg width="68" height="68" viewBox="0 0 68 68" fill="none" xmlns="http://www.w3.org/2000/svg">
<path fill-rule="evenodd" clip-rule="evenodd" d="M0.0261536 14.0628L33.7762 0L67.5262 14.0628V28.1247H61.9009V50.625H56.2764V28.1247H49.2446V50.625H43.6202V28.1247H36.5884V50.625H30.9639V28.1247H23.9321V50.625H18.3077V28.1247H11.2759V50.625H5.65143V28.1256H0.0261536V14.0628ZM29.5574 15.4685C29.5574 17.8006 31.4466 19.6872 33.7762 19.6872C36.1057 19.6872 37.9949 17.8006 37.9949 15.4685C37.9949 13.1363 36.1057 11.2497 33.7762 11.2497C31.4466 11.2497 29.5574 13.1372 29.5574 15.4685ZM0.026123 56.2503H67.5261V67.5H0.026123V56.2503Z" fill="#8CB800"/>
</svg>
