<svg width="332" height="195" viewBox="0 0 332 195" fill="none" xmlns="http://www.w3.org/2000/svg">
<g clip-path="url(#clip0_169_30166)">
<path d="M168.52 189.531L29.8344 108.292L168.52 27.0537L307.205 108.292L168.52 189.531Z" fill="#8CB800"/>
<g style="mix-blend-mode:multiply">
<path d="M53.9286 100.838H31.9215L21.9929 106.595H12.1725V109.797H21.5675L31.5511 115.554H53.5548L66.1007 108.281L53.9286 100.838Z" fill="#AB9289" fill-opacity="0.501961"/>
</g>
<path d="M14.5781 80.61V108.412L12.1725 109.797V81.9974L14.5781 80.61Z" fill="#4E413C"/>
<path d="M14.5782 80.61L12.1725 81.9974L9.77771 80.61L12.1725 79.2189L14.5782 80.61Z" fill="#4E413C"/>
<path d="M12.1725 81.9974V109.797L9.77771 108.412V80.61L12.1725 81.9974Z" fill="#554F45"/>
<path d="M15.3451 71.4995L25.0912 65.8604V95.1877L12.5429 102.461V73.9461V73.1221L15.3451 71.4995Z" fill="#849E41"/>
<path d="M15.3451 60.2093V65.4195L9.28756 68.5953L2.12655 64.6299V64.6214L6.10352e-05 65.8604L2.12655 67.0877L9.28756 71.2425L12.5429 73.1222L15.3451 71.4995L25.0912 65.8604L15.3451 60.2093Z" fill="#C4DC76"/>
<path d="M9.40729 68.5381H14.5782L20.516 65.0164L12.7451 60.2093L9.40729 68.5381Z" fill="#4E413C" fill-opacity="0.501961"/>
<path d="M15.3451 60.2093V65.4194L9.28754 68.5953V63.328L15.3451 59.8144V60.2093Z" fill="#849E41"/>
<path d="M9.28756 71.2424L12.5429 73.1221V73.9461V102.461L6.10352e-05 95.1877V65.8604L2.12655 67.0877L9.28756 71.2424Z" fill="#A4CE5C"/>
<path d="M6.83031 61.8977L2.12653 59.162V64.6214V64.6299L9.28753 68.5953V63.328L6.83031 61.8977Z" fill="#A4CE5C"/>
<path d="M8.1729 55.657L2.12653 59.162L6.83031 61.8977L9.28753 63.328L15.0144 60.0064L15.3451 59.8144L8.1729 55.657Z" fill="#C4DC76"/>
<path d="M21.4824 76.9446V87.8602L18.8227 86.3121V75.4081L21.4824 76.9446Z" fill="#9BBD4E"/>
<path d="M27.8137 73.3139L21.4824 76.9446L18.8227 75.4081L25.0912 71.777L25.0997 71.7542L27.8137 73.3139Z" fill="#A4CE5C"/>
<path d="M27.8137 73.3138V84.2179L21.4824 87.8602V76.9446L27.8137 73.3138Z" fill="#7D913D"/>
<g style="mix-blend-mode:multiply">
<path d="M83.0329 55.2337L74.127 60.3966H65.3188V63.2687H73.7461L82.7002 68.4322L126.65 61.9086L83.0329 55.2337Z" fill="#AB9289" fill-opacity="0.501961"/>
</g>
<path d="M67.4769 37.0897V62.0267L65.3188 63.2687V38.3337L67.4769 37.0897Z" fill="#4E413C"/>
<path d="M65.3188 38.3337V63.2687L63.171 62.0267V37.0897L65.3188 38.3337Z" fill="#554F45"/>
<path fill-rule="evenodd" clip-rule="evenodd" d="M65.4969 8.08844L67.9399 44.426L66.4226 56.9296L87.3083 46.9921L80.8705 36.1748L65.4969 8.08844Z" fill="#7D913D"/>
<path fill-rule="evenodd" clip-rule="evenodd" d="M66.4226 56.9296L67.9399 44.426L65.4969 8.08844L62.8325 10.0073L49.4524 35.7084L43.3392 45.9833L66.4226 56.9296Z" fill="#A4CE5C"/>
<path fill-rule="evenodd" clip-rule="evenodd" d="M68.291 32.7276L78.5164 27.8664L81.9088 26.2571L75.107 16.5477L77.1562 15.705L66.4542 0L64.8643 20.3575L66.6513 19.8308L68.291 32.7276Z" fill="#7D913D"/>
<path fill-rule="evenodd" clip-rule="evenodd" d="M52.3869 27.4773L64.9488 34.3138L64.8643 20.3575L63.2436 20.8185L66.4542 0L55.2915 16.387L57.0032 17.0144L50.5637 26.4777L52.3869 27.4773Z" fill="#A4CE5C"/>
<path fill-rule="evenodd" clip-rule="evenodd" d="M64.9488 34.3138L52.3869 27.4773L47.2988 36.0203L66.9077 44.9159L66.4542 33.5972L64.9488 34.3138Z" fill="#A4CE5C"/>
<path fill-rule="evenodd" clip-rule="evenodd" d="M63.8894 46.2979L83.8674 36.8588L78.5164 27.8664L68.291 32.7273L65.7021 33.956L63.8894 46.2979Z" fill="#7D913D"/>
<path fill-rule="evenodd" clip-rule="evenodd" d="M64.8643 20.3575L63.0228 35.1105L66.4542 33.5971L68.291 32.7273L66.6513 19.8314L64.8643 20.3575L66.4542 0.000335693L63.2436 20.8184L64.8643 20.3575Z" fill="#7D913D"/>
<g style="mix-blend-mode:multiply">
<path d="M180.272 52.8535H158.265L148.337 58.6105H138.516V61.8122H147.912L157.895 67.5688H179.899L192.445 60.2958L180.272 52.8535Z" fill="#AB9289" fill-opacity="0.501961"/>
</g>
<path d="M140.922 32.6251V60.4275L138.516 61.8122V34.0125L140.922 32.6251Z" fill="#4E413C"/>
<path d="M140.922 32.6251L138.516 34.0125L136.122 32.6251L138.516 31.2343L140.922 32.6251Z" fill="#4E413C"/>
<path d="M138.516 34.0125V61.8122L136.122 60.4275V32.6251L138.516 34.0125Z" fill="#554F45"/>
<path d="M141.689 23.515L151.435 17.8755V47.2029L138.887 54.4759V25.9612V25.1373L141.689 23.515Z" fill="#849E41"/>
<path d="M141.689 12.2244V17.4346L135.631 20.6104L128.47 16.645V16.6365L126.344 17.8755L128.47 19.1029L135.631 23.2576L138.887 25.1373L141.689 23.5149L151.435 17.8755L141.689 12.2244Z" fill="#C4DC76"/>
<path d="M135.751 20.5532H140.922L146.86 17.0315L139.089 12.2244L135.751 20.5532Z" fill="#4E413C" fill-opacity="0.501961"/>
<path d="M141.689 12.2244V17.4346L135.631 20.6104V15.3431L141.689 11.8295V12.2244Z" fill="#849E41"/>
<path d="M135.631 23.2576L138.887 25.1373V25.9612V54.4759L126.344 47.2029V17.8755L128.47 19.1029L135.631 23.2576Z" fill="#A4CE5C"/>
<path d="M133.174 13.9128L128.47 11.1772V16.6365V16.645L135.631 20.6104V15.3431L133.174 13.9128Z" fill="#A4CE5C"/>
<path d="M134.517 7.67206L128.47 11.1772L133.174 13.9128L135.631 15.3431L141.358 12.0215L141.689 11.8295L134.517 7.67206Z" fill="#C4DC76"/>
<path d="M147.826 28.9597V39.8753L145.167 38.3272V27.4232L147.826 28.9597Z" fill="#9BBD4E"/>
<path d="M154.158 25.329L147.826 28.9597L145.167 27.4232L151.435 23.7921L151.444 23.7693L154.158 25.329Z" fill="#A4CE5C"/>
<path d="M154.158 25.3289V36.233L147.826 39.8753V28.9597L154.158 25.3289Z" fill="#7D913D"/>
<g style="mix-blend-mode:multiply">
<path d="M250.518 55.3587H228.511L218.583 61.1156H208.762V64.3174H218.157L228.141 70.0743H250.144L262.69 62.8013L250.518 55.3587Z" fill="#AB9289" fill-opacity="0.501961"/>
</g>
<path d="M211.168 35.1303V62.9327L208.762 64.3174V36.5177L211.168 35.1303Z" fill="#4E413C"/>
<path d="M211.168 35.1303L208.762 36.5177L206.367 35.1303L208.762 33.7395L211.168 35.1303Z" fill="#4E413C"/>
<path d="M208.762 36.5177V64.3174L206.367 62.9327V35.1303L208.762 36.5177Z" fill="#554F45"/>
<path d="M211.935 26.0201L221.681 20.3806V49.7083L209.133 56.9814V28.4663V27.6424L211.935 26.0201Z" fill="#849E41"/>
<path d="M211.935 14.7296V19.9401L205.877 23.1156L198.716 19.1502V19.1417L196.59 20.3806L198.716 21.6084L205.877 25.7627L209.133 27.6424L211.935 26.0201L221.681 20.3806L211.935 14.7296Z" fill="#C4DC76"/>
<path d="M205.997 23.0584H211.168L217.106 19.537L209.335 14.7296L205.997 23.0584Z" fill="#4E413C" fill-opacity="0.501961"/>
<path d="M211.935 14.7296V19.9401L205.877 23.1156V17.8486L211.935 14.335V14.7296Z" fill="#849E41"/>
<path d="M205.877 25.7627L209.133 27.6424V28.4663V56.9814L196.59 49.7083V20.3806L198.716 21.6083L205.877 25.7627Z" fill="#A4CE5C"/>
<path d="M203.42 16.4179L198.716 13.6826V19.1417V19.1502L205.877 23.1156V17.8486L203.42 16.4179Z" fill="#A4CE5C"/>
<path d="M204.763 10.1776L198.716 13.6826L203.42 16.4179L205.877 17.8486L211.604 14.5267L211.935 14.335L204.763 10.1776Z" fill="#C4DC76"/>
<path d="M218.072 31.4652V42.3805L215.412 40.8327V29.9283L218.072 31.4652Z" fill="#9BBD4E"/>
<path d="M224.403 27.8341L218.072 31.4652L215.412 29.9283L221.681 26.2976L221.689 26.2748L224.403 27.8341Z" fill="#A4CE5C"/>
<path d="M224.403 27.8341V38.7382L218.072 42.3805V31.4652L224.403 27.8341Z" fill="#7D913D"/>
<g style="mix-blend-mode:multiply">
<path d="M188.152 97.0395L179.246 102.202H170.438V105.075H178.865L187.819 110.238L231.769 103.715L188.152 97.0395Z" fill="#AB9289" fill-opacity="0.501961"/>
</g>
<path d="M172.596 78.8954V103.833L170.438 105.075V80.1399L172.596 78.8954Z" fill="#4E413C"/>
<path d="M170.438 80.1399V105.075L168.29 103.833V78.8954L170.438 80.1399Z" fill="#554F45"/>
<path fill-rule="evenodd" clip-rule="evenodd" d="M170.616 49.8946L173.059 86.2321L171.542 98.7354L192.427 88.7982L185.99 77.9809L170.616 49.8946Z" fill="#7D913D"/>
<path fill-rule="evenodd" clip-rule="evenodd" d="M171.542 98.7354L173.059 86.2321L170.616 49.8946L167.951 51.8134L154.571 77.5145L148.458 87.7891L171.542 98.7354Z" fill="#A4CE5C"/>
<path fill-rule="evenodd" clip-rule="evenodd" d="M173.41 74.5337L183.635 69.6722L187.028 68.0628L180.226 58.3538L182.275 57.5108L171.573 41.8058L169.983 62.1632L171.77 61.6369L173.41 74.5337Z" fill="#7D913D"/>
<path fill-rule="evenodd" clip-rule="evenodd" d="M157.506 69.2831L170.068 76.12L169.983 62.1632L168.363 62.6242L171.573 41.8058L160.411 58.1927L162.122 58.8206L155.683 68.2835L157.506 69.2831Z" fill="#A4CE5C"/>
<path fill-rule="evenodd" clip-rule="evenodd" d="M170.068 76.12L157.506 69.2831L152.418 77.8261L172.027 86.7217L171.573 75.4033L170.068 76.12Z" fill="#A4CE5C"/>
<path fill-rule="evenodd" clip-rule="evenodd" d="M169.008 88.104L188.986 78.6649L183.635 69.6722L173.41 74.5334L170.821 75.7618L169.008 88.104Z" fill="#7D913D"/>
<path fill-rule="evenodd" clip-rule="evenodd" d="M169.983 62.1632L168.142 76.9163L171.573 75.4033L173.41 74.5334L171.77 61.6376L169.983 62.1632L171.573 41.8061L168.363 62.6242L169.983 62.1632Z" fill="#7D913D"/>
<g style="mix-blend-mode:multiply">
<path d="M255.869 126.175L246.963 131.338H238.155V134.21H246.582L255.536 139.373L299.486 132.85L255.869 126.175Z" fill="#AB9289" fill-opacity="0.501961"/>
</g>
<path d="M240.313 108.031V132.968L238.155 134.21V109.275L240.313 108.031Z" fill="#4E413C"/>
<path d="M238.155 109.275V134.21L236.007 132.968V108.031L238.155 109.275Z" fill="#554F45"/>
<path fill-rule="evenodd" clip-rule="evenodd" d="M238.333 79.0299L240.776 115.367L239.259 127.871L260.144 117.934L253.707 107.116L238.333 79.0299Z" fill="#7D913D"/>
<path fill-rule="evenodd" clip-rule="evenodd" d="M239.259 127.871L240.776 115.367L238.333 79.0299L235.668 80.9488L222.289 106.65L216.176 116.924L239.259 127.871Z" fill="#A4CE5C"/>
<path fill-rule="evenodd" clip-rule="evenodd" d="M241.127 103.669L251.353 98.8079L254.745 97.1985L247.943 87.4891L249.992 86.6465L239.29 70.9415L237.701 91.2989L239.488 90.7722L241.127 103.669Z" fill="#7D913D"/>
<path fill-rule="evenodd" clip-rule="evenodd" d="M225.223 98.4184L237.785 105.255L237.701 91.2989L236.08 91.7599L239.291 70.9415L228.128 87.3284L229.839 87.9559L223.4 97.4191L225.223 98.4184Z" fill="#A4CE5C"/>
<path fill-rule="evenodd" clip-rule="evenodd" d="M237.785 105.255L225.223 98.4184L220.135 106.962L239.744 115.857L239.291 104.539L237.785 105.255Z" fill="#A4CE5C"/>
<path fill-rule="evenodd" clip-rule="evenodd" d="M236.726 117.239L256.704 107.8L251.353 98.8079L241.127 103.669L238.538 104.897L236.726 117.239Z" fill="#7D913D"/>
<path fill-rule="evenodd" clip-rule="evenodd" d="M237.701 91.2989L235.859 106.052L239.291 104.539L241.127 103.669L239.488 90.7729L237.701 91.2989L239.291 70.9418L236.08 91.7599L237.701 91.2989Z" fill="#7D913D"/>
<g style="mix-blend-mode:multiply">
<path d="M96.3723 110.449L87.4664 115.612H78.6582V118.484H87.0851L96.0395 123.648L139.989 117.125L96.3723 110.449Z" fill="#AB9289" fill-opacity="0.501961"/>
</g>
<path d="M80.8159 92.3054V117.242L78.6582 118.484V93.5494L80.8159 92.3054Z" fill="#4E413C"/>
<path d="M78.6582 93.5494V118.484L76.5104 117.242V92.3054L78.6582 93.5494Z" fill="#554F45"/>
<path fill-rule="evenodd" clip-rule="evenodd" d="M78.8363 63.3041L81.2789 99.6417L79.762 112.145L100.647 102.208L94.2099 91.3905L78.8363 63.3041Z" fill="#7D913D"/>
<path fill-rule="evenodd" clip-rule="evenodd" d="M79.762 112.145L81.2789 99.6417L78.8363 63.3041L76.1715 65.223L62.7918 90.9241L56.6786 101.199L79.762 112.145Z" fill="#A4CE5C"/>
<path fill-rule="evenodd" clip-rule="evenodd" d="M81.6303 87.9433L91.8558 83.0821L95.2478 81.4727L88.4464 71.7634L90.4955 70.9207L79.7935 55.2157L78.2037 75.5732L79.9906 75.0465L81.6303 87.9433Z" fill="#7D913D"/>
<path fill-rule="evenodd" clip-rule="evenodd" d="M65.7263 82.693L78.2881 89.5295L78.2037 75.5732L76.5829 76.0342L79.7935 55.2157L68.6309 71.6027L70.3422 72.2301L63.903 81.6934L65.7263 82.693Z" fill="#A4CE5C"/>
<path fill-rule="evenodd" clip-rule="evenodd" d="M78.2882 89.5295L65.7263 82.693L60.6382 91.236L80.2471 100.132L79.7936 88.8129L78.2882 89.5295Z" fill="#A4CE5C"/>
<path fill-rule="evenodd" clip-rule="evenodd" d="M77.2288 101.514L97.2067 92.0748L91.8557 83.0821L81.6303 87.943L79.0415 89.1717L77.2288 101.514Z" fill="#7D913D"/>
<path fill-rule="evenodd" clip-rule="evenodd" d="M78.2037 75.5732L76.3618 90.3262L79.7935 88.8128L81.6303 87.943L79.9906 75.0471L78.2037 75.5732L79.7935 55.216L76.5829 76.0341L78.2037 75.5732Z" fill="#7D913D"/>
<g style="mix-blend-mode:multiply">
<path d="M177.474 135.381H155.467L145.538 141.137H135.718V144.339H145.113L155.097 150.096H177.1L189.646 142.823L177.474 135.381Z" fill="#AB9289" fill-opacity="0.501961"/>
</g>
<path d="M138.124 115.152V142.954L135.718 144.339V116.539L138.124 115.152Z" fill="#4E413C"/>
<path d="M138.124 115.152L135.718 116.539L133.323 115.152L135.718 113.761L138.124 115.152Z" fill="#4E413C"/>
<path d="M135.718 116.539V144.339L133.323 142.954V115.152L135.718 116.539Z" fill="#554F45"/>
<path d="M138.891 106.042L148.637 100.402V129.73L136.088 137.003V108.488V107.664L138.891 106.042Z" fill="#849E41"/>
<path d="M138.891 94.7513V99.9617L132.833 103.137L125.672 99.1719V99.1633L123.545 100.402L125.672 101.63L132.833 105.784L136.088 107.664L138.891 106.042L148.637 100.402L138.891 94.7513Z" fill="#C4DC76"/>
<path d="M132.953 103.08H138.124L144.061 99.5586L136.29 94.7513L132.953 103.08Z" fill="#4E413C" fill-opacity="0.501961"/>
<path d="M138.891 94.7512V99.9617L132.833 103.137V97.8702L138.891 94.3566V94.7512Z" fill="#849E41"/>
<path d="M132.833 105.784L136.088 107.664V108.488V137.003L123.545 129.73V100.402L125.672 101.63L132.833 105.784Z" fill="#A4CE5C"/>
<path d="M130.376 96.4396L125.672 93.7043V99.1633V99.1719L132.833 103.137V97.8703L130.376 96.4396Z" fill="#A4CE5C"/>
<path d="M131.718 90.1992L125.672 93.7043L130.376 96.4396L132.833 97.8703L138.56 94.5483L138.891 94.3566L131.718 90.1992Z" fill="#C4DC76"/>
<path d="M145.028 111.487V122.402L142.368 120.854V109.95L145.028 111.487Z" fill="#9BBD4E"/>
<path d="M151.359 107.856L145.028 111.487L142.368 109.95L148.637 106.319L148.645 106.296L151.359 107.856Z" fill="#A4CE5C"/>
<path d="M151.359 107.856V118.76L145.028 122.402V111.487L151.359 107.856Z" fill="#7D913D"/>
<g style="mix-blend-mode:multiply">
<path d="M235.532 180.285H213.525L203.596 186.041H193.776V189.243H203.171L213.154 195H235.158L247.704 187.727L235.532 180.285Z" fill="#AB9289" fill-opacity="0.501961"/>
</g>
<path d="M196.182 160.056V187.858L193.776 189.243V161.443L196.182 160.056Z" fill="#4E413C"/>
<path d="M196.182 160.056L193.776 161.443L191.381 160.056L193.776 158.665L196.182 160.056Z" fill="#4E413C"/>
<path d="M193.776 161.443V189.243L191.381 187.858V160.056L193.776 161.443Z" fill="#554F45"/>
<path d="M196.948 150.946L206.694 145.306V174.634L194.146 181.907V153.392V152.568L196.948 150.946Z" fill="#849E41"/>
<path d="M196.948 139.655V144.866L190.891 148.041L183.73 144.076V144.067L181.603 145.306L183.73 146.534L190.891 150.688L194.146 152.568L196.948 150.946L206.694 145.306L196.948 139.655Z" fill="#C4DC76"/>
<path d="M191.01 147.984H196.182L202.119 144.463L194.348 139.655L191.01 147.984Z" fill="#4E413C" fill-opacity="0.501961"/>
<path d="M196.948 139.655V144.866L190.891 148.041V142.774L196.948 139.261V139.655Z" fill="#849E41"/>
<path d="M190.891 150.688L194.146 152.568V153.392V181.907L181.603 174.634V145.306L183.73 146.534L190.891 150.688Z" fill="#A4CE5C"/>
<path d="M188.433 141.344L183.73 138.608V144.067V144.076L190.891 148.041V142.774L188.433 141.344Z" fill="#A4CE5C"/>
<path d="M189.776 135.103L183.73 138.608L188.433 141.344L190.891 142.774L196.618 139.452L196.948 139.261L189.776 135.103Z" fill="#C4DC76"/>
<path d="M203.086 156.391V167.306L200.426 165.758V154.854L203.086 156.391Z" fill="#9BBD4E"/>
<path d="M209.417 152.76L203.086 156.391L200.426 154.854L206.694 151.223L206.703 151.2L209.417 152.76Z" fill="#A4CE5C"/>
<path d="M209.417 152.76V163.664L203.086 167.306V156.391L209.417 152.76Z" fill="#7D913D"/>
<g style="mix-blend-mode:multiply">
<path d="M319.827 100.838H297.821L287.892 106.595H278.071V109.797H287.467L297.45 115.554H319.454L332 108.281L319.827 100.838Z" fill="#AB9289" fill-opacity="0.501961"/>
</g>
<path d="M280.477 80.61V108.412L278.071 109.797V81.9974L280.477 80.61Z" fill="#4E413C"/>
<path d="M280.477 80.61L278.071 81.9974L275.677 80.61L278.071 79.2189L280.477 80.61Z" fill="#4E413C"/>
<path d="M278.071 81.9974V109.797L275.677 108.412V80.61L278.071 81.9974Z" fill="#554F45"/>
<path d="M281.244 71.4995L290.99 65.8604V95.1877L278.442 102.461V73.9461V73.1221L281.244 71.4995Z" fill="#849E41"/>
<path d="M281.244 60.2093V65.4195L275.187 68.5953L268.025 64.6299V64.6214L265.899 65.8604L268.025 67.0877L275.187 71.2425L278.442 73.1222L281.244 71.4995L290.99 65.8604L281.244 60.2093Z" fill="#C4DC76"/>
<path d="M275.306 68.5381H280.477L286.415 65.0164L278.644 60.2093L275.306 68.5381Z" fill="#4E413C" fill-opacity="0.501961"/>
<path d="M281.244 60.2093V65.4194L275.187 68.5953V63.328L281.244 59.8144V60.2093Z" fill="#849E41"/>
<path d="M275.187 71.2424L278.442 73.1221V73.9461V102.461L265.899 95.1877V65.8604L268.025 67.0877L275.187 71.2424Z" fill="#A4CE5C"/>
<path d="M272.729 61.8977L268.025 59.162V64.6214V64.6299L275.187 68.5953V63.328L272.729 61.8977Z" fill="#A4CE5C"/>
<path d="M274.072 55.657L268.025 59.162L272.729 61.8977L275.187 63.328L280.913 60.0064L281.244 59.8144L274.072 55.657Z" fill="#C4DC76"/>
<path d="M287.381 76.9446V87.8602L284.722 86.3121V75.4081L287.381 76.9446Z" fill="#9BBD4E"/>
<path d="M293.713 73.3139L287.381 76.9446L284.722 75.4081L290.99 71.777L290.999 71.7542L293.713 73.3139Z" fill="#A4CE5C"/>
<path d="M293.713 73.3138V84.2179L287.381 87.8602V76.9446L293.713 73.3138Z" fill="#7D913D"/>
</g>
<defs>
<clipPath id="clip0_169_30166">
<rect width="332" height="195" fill="white"/>
</clipPath>
</defs>
</svg>
