<svg width="64" height="36" viewBox="0 0 64 36" fill="none" xmlns="http://www.w3.org/2000/svg">
<path fill-rule="evenodd" clip-rule="evenodd" d="M28.8189 7.04593V18.6749L33.2491 18.1825C34.6099 18.0317 35.6463 17.4092 36.2288 16.404C36.795 15.4258 36.9909 13.7851 36.4159 12.7657C36.2956 12.5433 36.1291 12.3513 35.9283 12.2035C35.7274 12.0558 35.4974 11.9559 35.2547 11.9112C36.9559 11.0245 37.0869 8.30252 35.7536 7.13485C35.1715 6.62534 34.2823 6.43718 33.0857 6.57035L28.8164 7.04593H28.8189ZM14.5454 28.7147L17.4515 22.7707L14.1874 23.1316L12.929 26.1371L11.7029 23.4061L8.43638 23.767L11.3125 29.073L8.24056 35.4139L11.5059 35.0556L12.9714 31.63L14.3645 34.7321L17.6473 34.3674L14.5417 28.7147H14.5454ZM25.8741 28.8255V25.6473C25.8826 25.0995 25.8004 24.5542 25.6309 24.035C25.0435 22.3235 23.5468 21.9124 21.9366 22.0902C19.9273 22.3132 18.4555 23.4744 18.1437 25.6022C17.9304 26.9104 18.019 28.3732 18.019 29.6942C18.019 30.1719 18.0377 30.6767 18.0751 31.2085C18.1499 32.2563 18.6089 33.2023 19.5631 33.6573C20.274 34.0001 21.1433 34.0375 21.9403 33.9486C22.6936 33.8849 23.4228 33.6438 24.0719 33.2436C25.6359 32.2267 25.8729 30.5989 25.8729 28.8255H25.8741ZM22.8421 25.9399C22.8421 26.128 22.8508 26.3265 22.8508 26.5263V30.1118C22.8508 30.8593 22.5477 31.2717 21.9453 31.3336C20.9475 31.4457 21.0386 30.3141 21.0386 29.5898V26.7273C21.0386 26.2118 21.0036 25.3818 21.3865 25.0119C21.5404 24.865 21.7367 24.7745 21.9453 24.7542C22.0406 24.7366 22.1383 24.7389 22.2327 24.7612C22.327 24.7834 22.4161 24.8251 22.4945 24.8836C22.573 24.9422 22.6392 25.0165 22.6893 25.1021C22.7394 25.1877 22.7722 25.2828 22.786 25.3818C22.8177 25.5675 22.8365 25.7553 22.8421 25.9438V25.9399ZM26.5402 30.8271V34.3249L29.4824 33.9975V33.0567L34.3105 32.5205V33.4704L37.254 33.143V29.6426L36.139 29.7715V20.6931L28.8301 21.5038C28.7578 23.263 29.0259 29.2276 27.5093 30.7201L26.5402 30.8271ZM33.1768 23.4112V30.095L30.7995 30.3528C31.4456 28.9454 31.4444 25.0764 31.5117 23.5904L33.1768 23.4112ZM46.9389 31.1248V19.501L44.3509 19.7871L41.4423 25.887L41.4261 20.1054L38.4327 20.4367V32.0617L41.0694 31.773L43.9156 25.9309L43.933 31.4586L46.9389 31.1248ZM59.0023 29.787V18.1722L55.9428 18.5099L53.7663 23.5363L51.5837 18.9932L48.5728 19.3257V30.9443L51.5325 30.6157V25.0197L53.2275 27.9053L54.4486 27.7687L56.0438 24.5686V30.1105L59.0023 29.7831V29.787ZM14.2336 20.2743V21.2241L17.1771 20.8968V17.3989L16.062 17.5278V8.44557L8.75318 9.25752C8.68084 11.0168 8.949 16.9801 7.43235 18.4738L6.46324 18.5808V22.0838L9.40549 21.7564V20.8091L14.2336 20.2743ZM13.1023 11.165V17.8474L10.7263 18.1117C11.3724 16.703 11.3712 12.8353 11.4385 11.3493L13.1036 11.165H13.1023ZM63.9838 26.6848L61.0415 27.0109V29.5679L63.9838 29.2405V26.6848ZM61.0103 17.9467L61.2037 26.043L63.8229 25.7517L64 17.6167L61.0066 17.9467H61.0103ZM7.85766 28.3152V27.6463C7.86631 27.0986 7.78492 26.5534 7.61694 26.034C7.47473 25.5767 7.2201 25.1654 6.87795 24.8403C6.53581 24.5153 6.11786 24.2875 5.665 24.1794C4.28554 23.8069 2.34108 24.1974 1.29963 25.2104C0.217021 26.2788 0 27.7571 0 29.2212V31.6944C0 32.173 0.0187087 32.6774 0.0561261 33.2075C0.138444 34.3545 0.662288 35.3147 1.73492 35.7452C2.96471 36.2401 4.92164 35.9836 6.05788 35.2399C6.54082 34.92 6.94676 34.4904 7.24481 33.9838C7.54286 33.4773 7.72516 32.9072 7.77783 32.3169C7.83005 31.8355 7.8567 31.3515 7.85766 30.867L4.83433 31.2034V32.1056C4.83433 32.8544 4.53125 33.2655 3.92883 33.3286C2.93103 33.4408 3.02208 32.3092 3.02208 31.5849V28.7237C3.02208 28.2082 2.9884 27.3782 3.37006 27.0083C3.65818 26.7325 4.1446 26.6307 4.47887 26.8794C4.79068 27.1088 4.81562 27.5715 4.8256 27.9363C4.8256 28.176 4.83433 28.4131 4.83433 28.6515L7.85766 28.3152ZM49.7652 3.14856L54.5259 2.55571V0L49.7652 3.14856ZM47.8943 4.93872V16.5586L50.5472 16.2661L53.3772 10.4535L53.3922 15.9516L56.4005 15.6191V3.99531L53.8125 4.28272L50.9002 10.411L50.8827 4.61136L47.8893 4.94388L47.8943 4.93872ZM21.2032 7.88107L18.0552 19.8477L21.1882 19.5023L21.6135 17.4505L24.1854 17.1657L24.6269 19.1221L27.745 18.778L24.6094 7.50216L21.2032 7.88107ZM23.6241 14.7118L22.1848 14.8716L22.9144 11.2977L23.6241 14.7118ZM40.3522 5.77258L37.2054 17.743L40.3397 17.3989L40.7675 15.3368L43.3393 15.052L43.7784 17.0123L46.8965 16.6669L43.7634 5.39367L40.3522 5.77258ZM42.7731 12.5878L41.3338 12.7476L42.0634 9.17504L42.7731 12.5878ZM31.8435 15.8098V13.5325C32.1101 13.4933 32.3787 13.4696 32.6479 13.4616C33.9102 13.4732 33.9201 14.936 33.3152 15.4167C32.8961 15.7493 32.3499 15.7647 31.8447 15.8227L31.8435 15.8098ZM33.2416 10.7487C32.8787 11.0593 32.2987 11.0631 31.8422 11.1147V9.23175L32.4409 9.16602C33.7468 9.02167 33.7555 10.3221 33.2416 10.7551V10.7487Z" fill="#E93E2C"/>
</svg>
