<svg width="329" height="53" viewBox="0 0 329 53" fill="none" xmlns="http://www.w3.org/2000/svg">
<path fill-rule="evenodd" clip-rule="evenodd" d="M329 15.7973H321.936V16.6909C324.429 16.9457 324.525 17.2014 323.79 18.795C322.895 20.7407 321.17 23.8643 319.986 25.9691C318.612 23.5774 317.045 20.9631 315.703 18.4132C315.095 17.3605 315.032 16.9779 317.301 16.6909V15.7973H309.662V16.6909C311.58 16.8822 311.931 17.2325 313.21 19.401C314.969 22.3654 316.119 24.4391 317.238 26.4152C317.781 27.3714 317.909 27.6585 317.909 28.2956V32.5364C317.909 35.2465 317.621 35.4378 314.776 35.6291V36.5219H323.823V35.6291C320.881 35.4378 320.627 35.2151 320.627 32.5364V28.2001C320.627 27.3714 320.722 27.021 321.136 26.1925C322.671 23.3862 323.757 21.537 325.196 19.2097C326.443 17.2658 326.794 16.9457 329 16.6909V15.7973ZM305.188 20.6442C305.028 18.795 304.867 16.4675 304.867 15H304.197C303.686 15.6068 303.43 15.798 302.568 15.798H289.942C289.046 15.798 288.632 15.7348 288.184 15H287.545C287.48 16.7545 287.321 18.8272 287.16 20.7397H288.088C288.471 19.3373 288.728 18.4446 289.111 17.9021C289.526 17.1693 290.165 16.9136 292.818 16.9136H294.8V32.6008C294.8 35.1186 294.545 35.4378 291.637 35.6291V36.5219H300.81V35.6291C297.773 35.4378 297.518 35.1186 297.518 32.6008V16.9136H299.786C302.184 16.9136 302.727 17.1371 303.239 17.9021C303.621 18.4132 303.91 19.2097 304.262 20.7397L305.188 20.6442ZM282.814 36.5219V35.6291C280.194 35.4378 279.939 35.2787 279.939 32.5364V19.7835C279.939 17.0734 280.194 16.8822 282.814 16.6901V15.798H274.346V16.6901C276.966 16.8822 277.221 17.0734 277.221 19.7835V32.5364C277.221 35.2473 276.966 35.4378 274.346 35.6291V36.5219H282.814ZM269.199 20.4528C268.944 18.4446 268.784 17.2004 268.656 16.0529C267.442 15.6704 266.099 15.3201 264.629 15.3201C260.505 15.3201 258.044 17.9343 258.044 20.9946C258.044 24.5982 261.273 26.1925 263.319 27.2758C265.716 28.5512 267.473 29.6675 267.473 32.0254C267.473 34.3545 266.035 35.8515 263.638 35.8515C260.346 35.8515 258.907 32.6322 258.397 30.6865L257.468 30.9099C257.661 32.4409 258.077 35.1822 258.332 35.8515C258.62 36.0114 259.099 36.2341 259.899 36.5219C260.697 36.7454 261.721 37 263.031 37C267.281 37 270.127 34.3213 270.127 30.9733C270.127 27.4028 267.09 25.9058 264.596 24.6294C262.073 23.3228 260.538 22.2385 260.538 19.9122C260.538 18.1899 261.624 16.4031 264.086 16.4031C266.867 16.4031 267.697 18.6037 268.274 20.6442L269.199 20.4528ZM242.32 26.4152C243.95 26.4152 245.004 26.1603 245.804 25.5222C247.05 24.566 247.562 23.2906 247.562 21.5684C247.562 18.1256 245.293 16.85 242.862 16.85C241.936 16.85 241.392 16.9779 241.137 17.1682C240.912 17.3291 240.786 17.7109 240.786 18.5723V26.4152H242.32ZM254.083 36.7765C253.699 36.7765 253.346 36.7765 252.964 36.7454C250.567 36.6174 249.224 35.9159 247.785 33.8432C246.667 32.2808 245.517 30.3049 244.558 28.7415C244.013 27.8497 243.471 27.4671 241.808 27.4671H240.786V32.5364C240.786 35.2465 241.073 35.4378 243.631 35.6291V36.5219H235.223V35.6291C237.845 35.4378 238.133 35.2465 238.133 32.5364V19.72C238.133 17.0091 237.878 16.9144 235.384 16.6909V15.7973H243.31C245.644 15.7973 247.21 16.0851 248.424 16.8822C249.703 17.7109 250.535 19.1461 250.535 21.0589C250.535 23.8017 248.84 25.491 246.476 26.51C247.019 27.5627 248.361 29.6989 249.32 31.1323C250.469 32.7913 251.141 33.6198 251.909 34.4492C252.771 35.4046 253.507 35.7568 254.21 35.9488L254.083 36.7765ZM230.143 31.3569C229.728 32.6322 229.119 33.7163 228.576 34.3545C227.874 35.1822 226.979 35.4378 224.55 35.4378C222.951 35.4378 221.831 35.4056 221.225 35.0238C220.65 34.6084 220.457 33.9397 220.457 32.4409V26.4152H223.494C226.275 26.4152 226.499 26.6055 226.913 28.9016H227.841V22.7801H226.913C226.499 24.9164 226.339 25.171 223.462 25.171H220.457V17.9343C220.457 16.9779 220.522 16.9136 221.513 16.9136H223.942C226.243 16.9136 227.106 17.1371 227.554 17.8074C227.969 18.5079 228.289 19.2097 228.576 20.5484L229.504 20.3903C229.408 18.7628 229.248 16.5954 229.248 15.798H214.992V16.6901C217.484 16.9136 217.741 17.0091 217.741 19.8781V32.5686C217.741 35.1518 217.484 35.4056 214.576 35.6291V36.5219H229.983C230.27 35.5343 230.909 32.5365 231.101 31.4845L230.143 31.3569ZM210.902 15.7973H203.71V16.6909C206.3 17.0091 206.491 17.2658 205.883 19.0828C204.861 22.27 202.432 28.4869 200.833 32.4721H200.769C198.629 26.9889 196.295 20.8362 195.464 18.5715C194.952 17.1682 195.08 16.9457 197.35 16.6909V15.7973H189.519V16.7223C191.404 16.8822 191.916 17.1371 192.842 19.5279C194.697 24.1521 197.318 31.0064 199.459 36.8408H200.45C202.847 30.2727 206.235 22.1741 207.099 20.1015C208.314 17.2325 208.728 16.9457 210.902 16.6909V15.7973ZM185.493 36.5219V35.6291C182.871 35.4378 182.615 35.2787 182.615 32.5364V19.7835C182.615 17.0734 182.871 16.8822 185.493 16.6901V15.798H177.022V16.6901C179.643 16.8822 179.898 17.0734 179.898 19.7835V32.5364C179.898 35.2473 179.643 35.4378 177.022 35.6291V36.5219H185.493ZM172.804 15.7973H165.26V16.6909C167.466 16.8188 168.233 17.2325 168.393 18.668C168.49 19.5601 168.617 21.0267 168.617 23.96V31.8028H168.521L155.192 15.7973H150.462V16.6909C151.964 16.8188 152.666 17.0734 153.306 17.8708C153.881 18.6358 153.946 18.7628 153.946 21.0911V28.1053C153.946 31.0376 153.85 32.5686 153.754 33.5572C153.594 35.1186 152.795 35.5333 150.94 35.6291V36.5219H158.517V35.6291C156.343 35.5021 155.608 35.1186 155.448 33.4939C155.352 32.5686 155.256 31.0376 155.256 28.1053V20.1015H155.32L168.937 36.8086H169.928V23.96C169.928 20.9946 169.991 19.5601 170.119 18.6037C170.247 17.2014 171.015 16.7857 172.804 16.6909V15.7973ZM146.947 15.7973H139.339V16.6909C141.578 16.85 142.249 17.2325 142.44 18.4767C142.567 19.4653 142.664 20.8051 142.664 23.7374V26.1603C142.664 31.4201 141.225 35.2465 136.623 35.2465C132.659 35.2465 130.614 32.313 130.614 27.1801V19.9112C130.614 17.0413 130.869 16.85 133.394 16.6909V15.7973H125.116V16.6909C127.641 16.9144 127.897 17.0413 127.897 19.9112V27.8819C127.897 31.6125 128.792 34.0031 130.71 35.47C132.116 36.553 133.969 37 135.824 37C137.934 37 140.075 36.3307 141.545 34.8004C143.399 32.8546 143.975 30.1458 143.975 26.3838V23.7374C143.975 20.8051 144.038 19.4322 144.134 18.5715C144.294 17.2658 145.029 16.8188 146.947 16.6909V15.7973ZM111.437 36.5219V35.6291C108.817 35.4378 108.559 35.2787 108.559 32.5364V19.7835C108.559 17.0734 108.817 16.8822 111.437 16.6901V15.798H102.966V16.6901C105.587 16.8822 105.844 17.0734 105.844 19.7835V32.5364C105.844 35.2473 105.587 35.4378 102.966 35.6291V36.5219H111.437ZM87.6253 32.5364C87.6253 34.8318 88.2328 35.4378 90.2785 35.4378C92.8993 35.4056 95.2327 34.0667 95.2327 30.7508C95.2327 27.4671 92.9943 26.0327 89.0957 26.0327H87.6253V32.5364ZM89.1269 24.9798C92.644 24.9798 94.1136 23.5774 94.1136 20.8998C94.1136 18.7314 92.8993 16.8188 89.8627 16.8188C89.0644 16.8188 88.3601 16.9457 88.041 17.1371C87.7533 17.3291 87.6253 17.6795 87.6253 18.7314V24.9798H89.1269ZM92.7397 25.3623C95.9038 25.8414 98.3975 27.2437 98.3975 30.4316C98.3975 32.5686 97.2146 34.1944 95.3285 35.2473C93.6986 36.1393 91.5884 36.5219 89.0644 36.5219H82V35.6291C84.749 35.4378 84.9397 35.2473 84.9397 32.5686V19.72C84.9397 17.0744 84.8125 16.8832 82.2553 16.6901V15.798H90.4703C92.867 15.798 94.2739 16.1807 95.2649 16.8832C96.4154 17.6465 97.0543 19.0506 97.0543 20.5162C97.0543 23.5461 94.5302 24.7895 92.7397 25.2676V25.3623Z" fill="#0F5095"/>
<g clip-path="url(#clip0)">
<path fill-rule="evenodd" clip-rule="evenodd" d="M26.4319 11.9424C28.3068 10.5946 35.4187 10.1049 39.3209 11.2502C37.6791 6.31834 37.5041 5.84945 37.5041 5.84945C37.5041 5.84945 38.8506 6.49436 39.1441 6.72819L41.6641 12.8795C41.6641 12.8795 34.7515 11.1807 26.4319 11.9424ZM10.2048 12.8795L12.7236 6.72819C13.0171 6.49436 14.3641 5.84945 14.3641 5.84945C14.3641 5.84945 14.1881 6.31834 12.5481 11.2502C16.4495 10.1049 23.5614 10.5946 25.4365 11.9424C17.1174 11.1807 10.2048 12.8795 10.2048 12.8795ZM40.2566 5.84945C40.2566 5.84945 36.9776 2.7446 25.8463 5.61494C25.8463 5.61494 16.4728 2.7446 11.7864 5.61494C9.0916 11.3563 7.68555 14.5201 7.68555 14.5201C7.68555 14.5201 14.5986 13.1724 25.8463 13.1724C37.0935 13.1724 44.0066 14.4611 44.0066 14.4611L40.2566 5.84945Z" fill="#FC9D29"/>
<path fill-rule="evenodd" clip-rule="evenodd" d="M49.2086 16.2677C49.0993 17.5337 48.9139 17.6584 47.6349 17.4448C40.8249 16.3144 33.9794 15.6595 27.0756 15.3685C19.5679 15.0513 12.1928 15.8717 4.84147 17.1882C2.77191 17.559 2.70391 17.6031 2.50801 15.5355C2.25693 12.8898 2.05514 10.2341 1.99254 7.57843C1.93424 5.1218 2.42712 4.62462 4.8279 4.07711C10.8407 2.70481 16.9418 1.67927 23.0944 1.99105C30.8304 2.38334 38.5388 3.27804 46.2582 3.97413C46.8506 4.02752 47.4416 4.18151 48.0141 4.35218C49.3466 4.75037 49.6995 5.24025 49.7168 6.62108C49.7253 7.33245 49.718 8.04554 49.718 8.75691C49.7442 8.75986 49.7707 8.76231 49.7972 8.76422C49.6025 11.2657 49.4227 13.7679 49.2086 16.2677ZM48.5691 21.0413C47.5668 27.6904 45.4628 33.8989 41.5288 39.4408C39.0679 42.9066 36.3699 46.1464 33.2583 49.0389C33.0883 49.196 32.906 49.3409 32.7108 49.49C32.7096 49.5023 32.7096 49.5145 32.7096 49.5274L32.6741 49.5378C32.6875 49.428 32.6979 49.3157 32.7016 49.2015C32.7108 48.8315 32.7115 48.4607 32.7225 48.09C32.7446 47.3505 33.1546 46.7571 33.6492 46.1998C33.8726 45.9488 34.1182 45.7143 34.3545 45.4725C33.0614 44.916 31.5361 45.8199 31.0421 47.4475C30.7678 47.3905 30.496 47.3077 30.2166 47.2805C29.4513 47.2082 28.8819 47.5255 28.4633 48.0589C28.0693 48.5615 28.1417 49.093 28.4602 49.6004C28.8984 50.2982 29.9657 50.4444 30.5198 49.8981C30.9569 49.4674 30.936 49.0556 30.453 48.6676C30.3603 48.594 30.2608 48.5259 30.1491 48.4436C30.9556 48.3798 31.4847 48.8468 31.4497 49.5747C31.4104 50.3861 30.8604 50.8972 30.0915 51.2196C29.358 51.5277 28.6486 51.3337 28.0533 50.9115C26.7896 50.0141 26.7473 48.5173 27.9821 47.5967C29.0351 46.8117 30.1596 46.1022 31.2336 45.3394C32.3838 44.5224 33.3449 43.5534 33.8095 42.2972C34.3212 40.9094 34.1911 39.5366 33.4615 38.2165C33.2896 37.9077 33.1282 37.5947 32.9514 37.2633C33.3773 37.0934 33.6161 36.7914 33.7014 36.4016C33.8026 35.9426 33.6633 35.5216 33.3897 35.1299C33.3608 35.0889 33.3411 35.0435 33.3178 34.9998H33.2056C33.1172 35.4768 32.6329 35.8843 32.0647 35.8836C31.481 35.8824 30.8911 35.8536 30.3154 35.7713C29.2175 35.6143 28.1361 35.9039 27.323 36.5109C27.3205 36.4697 27.3157 36.4287 27.3157 36.3869C27.3118 30.5804 27.3132 24.774 27.3222 18.9674C27.3254 17.516 27.431 17.3724 28.8389 17.4233C35.1719 17.6517 41.4509 18.3905 47.6938 19.4818C48.7169 19.6604 48.685 20.2697 48.5691 21.0413ZM26.1299 48.6455C26.0869 48.5278 26.0636 48.4707 26.0463 48.4117C25.8776 47.8452 25.5505 47.3622 25.03 46.9996C23.9615 46.255 22.8623 45.545 21.8135 44.7809C20.8746 44.0973 20.0195 43.3233 19.5494 42.3076C18.8449 40.7831 19.0007 39.3157 20.1528 38.0005C20.7291 37.3444 21.5459 36.9479 22.5083 36.9921C23.6492 37.0442 24.5636 37.5173 25.1 38.4343C25.6389 39.3543 24.8729 40.4621 23.6964 40.5149C23.2625 40.5338 22.5936 40.1608 22.4321 39.8085C22.2622 39.4359 22.4511 39.0223 22.8833 38.8707C23.0796 38.8019 23.295 38.7779 23.5011 38.7338C23.3871 38.3435 22.9317 38.0636 22.3289 38.0163C21.1218 37.9225 20.227 38.9105 20.594 39.9312C20.8144 40.5418 21.2679 40.9678 21.9276 41.2187C22.2935 41.3569 22.6734 41.4668 23.1153 41.6115C22.1492 41.9896 21.2366 41.8055 20.2804 41.6331C20.448 42.0609 20.683 42.4198 21.0513 42.707C21.4231 42.9962 21.8693 43.1545 22.3561 43.1404C22.8329 43.1256 23.3073 43.0421 23.7063 42.9979C23.5111 43.5068 23.2852 44.0591 23.0906 44.6195C23.0243 44.8122 23.0367 45.0245 23.0127 45.2282C23.0372 45.243 23.0612 45.259 23.0852 45.275C23.3933 45.0215 23.7155 44.7797 24.0039 44.5102C24.2961 44.2366 24.5551 43.9334 24.8226 43.6503C24.9637 44.2519 25.062 44.8747 25.2626 45.4719C25.4651 46.0728 25.7683 46.6473 26.0765 47.2271C26.8713 46.117 27.2351 44.9116 27.3598 43.6541C27.9416 44.2027 28.5209 44.7477 29.0997 45.2933C29.1303 45.275 29.1616 45.2559 29.1929 45.2369C29.2298 44.4145 28.872 43.6867 28.4056 42.9299C29.3556 43.1729 30.2523 43.3221 31.0753 42.7808C31.5061 42.4965 31.767 42.1037 31.9388 41.6619C31.457 41.7184 30.9937 41.7932 30.5259 41.822C30.067 41.8485 29.5955 41.8595 29.1395 41.5914C29.4243 41.5079 29.671 41.4435 29.9111 41.3673C30.6856 41.1213 31.3177 40.7365 31.6073 40.0103C31.859 39.3795 31.6933 38.8014 31.1054 38.3361C30.6371 37.966 29.8847 37.8973 29.2721 38.1765C29.0107 38.2957 28.7941 38.4557 28.718 38.7338C28.9156 38.7725 29.0997 38.7934 29.2733 38.8461C29.889 39.0352 30.075 39.6501 29.6084 40.0533C28.9972 40.5818 28.5265 40.6173 27.9722 40.3725C27.2076 40.0336 26.8228 39.455 26.9699 38.8505C27.0081 38.6921 27.0719 38.5331 27.1535 38.3877C28.0067 36.8958 30.2296 36.5478 31.7136 37.6647C32.547 38.2906 32.8858 39.1236 33.0381 40.0436C33.2731 41.4625 32.6943 42.6384 31.6731 43.6921C30.7672 44.6268 29.6569 45.3486 28.5529 46.0814C28.1883 46.3232 27.8262 46.5694 27.4592 46.8093C26.7742 47.2572 26.3066 47.8305 26.1299 48.6455ZM27.8925 41.4748C27.4886 41.7902 27.1241 42.0663 26.773 42.3567C26.6749 42.4377 26.5943 42.5524 26.5497 42.6653C26.4183 42.993 26.309 43.3281 26.1925 43.6602C26.1459 43.6614 26.0993 43.6633 26.0524 43.6651C25.9383 43.3601 25.804 43.0593 25.7186 42.7483C25.6647 42.5543 25.5751 42.4223 25.3916 42.2964C25.0368 42.0522 24.7171 41.7669 24.3526 41.4748C25.097 41.0973 25.753 40.7254 26.1151 40.0263C26.4839 40.7193 27.1265 41.1004 27.8925 41.4748ZM25.0596 49.7429C24.8287 50.5923 23.9848 51.2379 23.0048 51.3398C22.806 51.3607 22.5929 51.3447 22.3964 51.3036C21.5226 51.1195 20.7806 50.2885 20.7867 49.5208C20.7935 48.8094 21.2225 48.4357 22.0927 48.429C21.9805 48.5142 21.8958 48.5774 21.813 48.6419C21.5114 48.88 21.2968 49.1389 21.4624 49.5268C21.6287 49.9197 22.0123 50.2007 22.4537 50.2228C23.0661 50.2528 23.5251 50.0197 23.8039 49.5477C24.1144 49.0218 24.1414 48.4884 23.7192 47.9895C23.1595 47.326 22.345 47.1125 21.4631 47.3881C21.3845 47.4126 21.3053 47.4371 21.1937 47.4714C20.9659 46.5434 20.4885 45.7881 19.4052 45.4676C18.9007 45.3185 18.3938 45.3032 17.8776 45.4479C18.1993 45.801 18.5147 46.1324 18.8111 46.4766C19.2819 47.0241 19.531 47.636 19.5181 48.335C19.5108 48.6983 19.5304 49.0634 19.563 49.4268C19.3831 49.2814 19.2107 49.1384 19.0425 48.9898C10.7013 41.6436 5.02865 32.7683 3.34029 21.6034C3.06589 19.7905 3.02538 19.7936 4.85988 19.4338C10.9751 18.2353 17.1467 17.5553 23.3779 17.4448C24.9074 17.4179 25.0208 17.4516 25.0368 18.9786C25.0963 24.6708 25.0822 30.3644 25.081 36.0579C25.081 36.2426 25.0497 36.4255 25.0116 36.601C24.2217 35.937 23.2275 35.6522 22.0264 35.7627C21.4723 35.8136 20.9169 35.8775 20.3602 35.8928C19.663 35.9112 19.2088 35.5927 19.0026 34.9998H18.9468C18.6343 35.3773 18.4484 35.7952 18.5079 36.2667C18.562 36.7078 18.7861 37.0657 19.2799 37.2553C19.0738 37.6525 18.859 38.0342 18.6729 38.4276C17.6979 40.4928 18.0133 42.3873 19.614 44.131C20.3055 44.8846 21.1642 45.4535 22.0252 46.0316C22.7672 46.5288 23.4982 47.0394 24.2193 47.5598C25.0074 48.1293 25.297 48.8696 25.0596 49.7429ZM49.8603 2.96872C49.1618 2.62761 48.4021 2.32921 47.6399 2.21579C37.4016 0.685706 27.1204 -0.554701 16.7576 0.256035C12.1841 0.613348 7.66272 1.66712 3.12542 2.44962C1.56109 2.71893 0.611524 3.74398 0.275937 5.27701C0.108389 6.03932 -0.0340551 6.83889 0.00718752 7.61096C0.185169 10.9005 0.307242 14.2019 0.687078 17.4706C1.396 23.5649 2.67255 29.5432 5.42389 35.0853C8.68028 41.6441 13.527 46.9253 19.0265 51.6627C19.0308 51.6664 19.0345 51.6719 19.0389 51.6761C18.595 51.7994 18.174 51.9737 17.7727 52.1959V52.245C18.5792 52.7551 19.4967 52.9551 20.4761 53C21.1305 52.9638 21.8509 52.7582 22.572 52.2444C22.4911 52.2384 22.4095 52.2333 22.326 52.2296C22.4253 52.2255 22.5229 52.2192 22.6188 52.2112C22.6217 52.2095 22.6249 52.2071 22.6278 52.2052C22.7985 52.185 22.9592 52.167 23.1103 52.1505C24.6925 51.8853 25.6849 50.9967 26.1163 49.4428C26.6116 51.2417 27.8661 52.1481 29.9147 52.2279C29.8613 52.2309 29.8084 52.234 29.7552 52.2377C29.7657 52.2444 31.7369 53.6682 34.4667 52.2296C34.1034 51.9922 33.7205 51.8296 33.3209 51.7117C33.3676 51.6504 33.4154 51.5889 33.4683 51.5338C35.2978 49.6594 37.2746 47.9152 38.9923 45.9451C42.9822 41.3685 46.4143 36.4048 48.3192 30.5688C50.9288 22.5762 51.7273 14.3167 51.6922 5.95027C51.6861 4.56699 51.0706 3.56041 49.8603 2.96872Z" fill="#0F5095"/>
<path fill-rule="evenodd" clip-rule="evenodd" d="M13.4164 31.8701C13.4164 33.3351 13.8024 33.7211 15.1055 33.7211C16.7742 33.7015 18.2581 32.8466 18.2581 30.7311C18.2581 28.6351 16.8342 27.7195 14.3524 27.7195H13.4164V31.8701ZM14.3726 27.048C16.6103 27.048 17.5463 26.1532 17.5463 24.444C17.5463 23.0606 16.7742 21.8405 14.8408 21.8405C14.3315 21.8405 13.8847 21.9216 13.681 22.043C13.4974 22.1652 13.4164 22.3892 13.4164 23.0606V27.048H14.3726ZM16.6715 27.2923C18.686 27.5974 20.2729 28.4921 20.2729 30.5272C20.2729 31.8904 19.52 32.9282 18.3196 33.5995C17.2824 34.1691 15.9395 34.4133 14.3315 34.4133H9.83594V33.8439C11.5857 33.7211 11.7071 33.5995 11.7071 31.8904V23.6909C11.7071 22.0026 11.6262 21.8805 9.99858 21.7589V21.1888H15.2269C16.7533 21.1888 17.6488 21.4331 18.2791 21.8805C19.0111 22.369 19.418 23.2638 19.418 24.1997C19.418 26.133 17.8107 26.9265 16.6715 27.231V27.2923Z" fill="#FC9D29"/>
<path fill-rule="evenodd" clip-rule="evenodd" d="M43.855 21.7586C42.6343 21.8396 42.1667 22.1243 42.0654 22.959C42.0035 23.5084 41.9624 24.3834 41.9624 26.2547V27.9431C41.9624 30.344 41.5966 32.0734 40.417 33.3144C39.481 34.2916 38.1173 34.718 36.7751 34.718C35.5949 34.718 34.4147 34.4334 33.5193 33.7417C32.2992 32.8057 31.7297 31.28 31.7297 28.8994V23.8133C31.7297 21.982 31.5677 21.9009 29.959 21.7586V21.1885H35.2285V21.7586C33.6212 21.8605 33.4591 21.982 33.4591 23.8133V28.4519C33.4591 31.7274 34.7609 33.5992 37.2838 33.5992C40.2138 33.5992 41.1295 31.1578 41.1295 27.8013V26.2547C41.1295 24.3834 41.0675 23.5286 40.9859 22.8976C40.8638 22.1048 40.4372 21.8605 39.0127 21.7586V21.1885H43.855V21.7586Z" fill="#FC9D29"/>
</g>
<defs>
<clipPath id="clip0">
<rect width="52" height="53" fill="white"/>
</clipPath>
</defs>
</svg>
