<svg width="70" height="68" viewBox="0 0 70 68" fill="none" xmlns="http://www.w3.org/2000/svg">
<path d="M65.5116 56.8365L64.0658 59.0366L67.5236 64.2933L60.6547 64.2772L52.4971 51.8759L44.3719 64.2391L37.503 64.223L52.4835 41.4288L59.7241 52.4365L61.1699 50.2364L52.4778 37.022L35.0289 63.572L17.5108 36.9401L0.0618861 63.4438L0.066841 67.2515L70.0008 67.4152L69.996 63.7203L65.5116 56.8365ZM12.3025 64.164L17.5359 56.2009L22.7901 64.1888L12.3025 64.1642L12.3025 64.164ZM25.6876 64.1954L17.5302 51.7941L9.40497 64.1572L2.53588 64.1412L17.5166 41.3469L32.5567 64.2116L25.6876 64.1956L25.6876 64.1954ZM52.5028 56.2827L57.757 64.2706L47.2694 64.2461L52.5028 56.2827Z" fill="url(#paint0_linear)"/>
<path d="M61.1729 54.6356L62.6182 52.4291L64.0329 54.5872L62.5876 56.7937L61.1729 54.6356Z" fill="url(#paint1_linear)"/>
<path d="M17.5091 23.1437L24.7088 34.1074L26.1553 31.9029L17.5033 18.7281L0.0483748 45.3313L0.0541263 49.7472L17.5091 23.1437Z" fill="url(#paint2_linear)"/>
<path d="M69.982 45.4403L52.4621 18.7755L35.0106 45.3573L27.668 34.1822L26.222 36.385L35.0163 49.7695L52.4677 23.1877L69.9877 49.8527L69.982 45.4403Z" fill="url(#paint3_linear)"/>
<path d="M17.4907 5.30731L35.0061 31.9791L43.6066 18.8855L42.1552 16.6753L35.0012 27.5668L17.4857 0.895067L0.0296816 27.4704L0.0346009 31.8828L17.4907 5.30731Z" fill="url(#paint4_linear)"/>
<path d="M52.4502 5.3277L69.9724 32.0155L69.967 27.5997L52.4448 0.912053L43.5874 14.4087L45.0394 16.6202L52.4502 5.3277Z" fill="url(#paint5_linear)"/>
<path d="M13.1387 15.822L14.5841 13.6154L16.0351 15.8289L14.5897 18.0356L13.1387 15.822Z" fill="url(#paint6_linear)"/>
<path d="M10.2456 20.2393L11.691 18.0326L13.1421 20.2462L11.6967 22.4528L10.2456 20.2393Z" fill="url(#paint7_linear)"/>
<path d="M48.0908 34.845L49.5362 32.6384L50.9873 34.8519L49.5419 37.0584L48.0908 34.845Z" fill="url(#paint8_linear)"/>
<path d="M45.1963 39.2578L46.6417 37.0512L48.0928 39.2647L46.6474 41.4713L45.1963 39.2578Z" fill="url(#paint9_linear)"/>
<defs>
<linearGradient id="paint0_linear" x1="34.9943" y1="36.981" x2="34.9232" y2="67.3331" gradientUnits="userSpaceOnUse">
<stop stop-color="#071DE0"/>
<stop offset="1" stop-color="#57AFEE"/>
</linearGradient>
<linearGradient id="paint1_linear" x1="61.8955" y1="53.5324" x2="63.8747" y2="54.8287" gradientUnits="userSpaceOnUse">
<stop stop-color="#071DE0"/>
<stop offset="1" stop-color="#57AFEE"/>
</linearGradient>
<linearGradient id="paint2_linear" x1="13.0759" y1="18.7177" x2="13.003" y2="49.7776" gradientUnits="userSpaceOnUse">
<stop stop-color="#071DE0"/>
<stop offset="1" stop-color="#57AFEE"/>
</linearGradient>
<linearGradient id="paint3_linear" x1="48.0735" y1="18.765" x2="47.9998" y2="49.8005" gradientUnits="userSpaceOnUse">
<stop stop-color="#071DE0"/>
<stop offset="1" stop-color="#57AFEE"/>
</linearGradient>
<linearGradient id="paint4_linear" x1="21.7933" y1="0.906927" x2="21.7079" y2="31.9425" gradientUnits="userSpaceOnUse">
<stop stop-color="#071DE0"/>
<stop offset="1" stop-color="#57AFEE"/>
</linearGradient>
<linearGradient id="paint5_linear" x1="56.7526" y1="0.92281" x2="56.675" y2="31.9823" gradientUnits="userSpaceOnUse">
<stop stop-color="#071DE0"/>
<stop offset="1" stop-color="#57AFEE"/>
</linearGradient>
<linearGradient id="paint6_linear" x1="13.8614" y1="14.7187" x2="15.8914" y2="16.0484" gradientUnits="userSpaceOnUse">
<stop stop-color="#071DE0"/>
<stop offset="1" stop-color="#57AFEE"/>
</linearGradient>
<linearGradient id="paint7_linear" x1="10.9683" y1="19.1359" x2="12.9984" y2="20.4656" gradientUnits="userSpaceOnUse">
<stop stop-color="#071DE0"/>
<stop offset="1" stop-color="#57AFEE"/>
</linearGradient>
<linearGradient id="paint8_linear" x1="48.8135" y1="33.7417" x2="50.8435" y2="35.0714" gradientUnits="userSpaceOnUse">
<stop stop-color="#071DE0"/>
<stop offset="1" stop-color="#57AFEE"/>
</linearGradient>
<linearGradient id="paint9_linear" x1="45.919" y1="38.1545" x2="47.949" y2="39.4842" gradientUnits="userSpaceOnUse">
<stop stop-color="#071DE0"/>
<stop offset="1" stop-color="#57AFEE"/>
</linearGradient>
</defs>
</svg>
